<svg xmlns="http://www.w3.org/2000/svg" viewBox="0 0 274.77 238.52"><defs><style>.cls-1{isolation:isolate;}.cls-2{fill:#ffb852;}.cls-3{fill:#e27a34;}.cls-4{fill:#c6422c;}.cls-5{fill:#ffd16c;}.cls-6{fill:#513935;}.cls-7{fill:#fff2d2;}.cls-8{fill:#ffe18d;}.cls-9{fill:#ffcf7b;}.cls-10{fill:#6b4a43;}.cls-11{fill:#4f322d;}.cls-12{fill:#35201d;}.cls-13{fill:#f45e4e;}.cls-14{fill:#bf6767;}.cls-15{fill:#fffbf6;opacity:0.7;mix-blend-mode:overlay;}</style></defs><title>pet-boarding-01</title><g class="cls-1"><g id="_1" data-name="1"><path class="cls-2" d="M86.57,116.66c-2.34,6.88,5.7,9.51,8.77,7.32s4.39-3.81,7.17-3.81,4.1,1.61,7.17,3.81,11.12-.44,8.78-7.32-9.74-15.87-15.95-15.87S88.91,109.79,86.57,116.66Z"/><path class="cls-2" d="M108.33,99.47c3,0,5.41-3,5.41-6.77s-2.42-6.76-5.41-6.76-5.41,3-5.41,6.76S105.34,99.47,108.33,99.47Z"/><path class="cls-2" d="M119.16,109c3,0,5.41-2.9,5.41-6.47S122.15,96,119.16,96s-5.42,2.9-5.42,6.48S116.17,109,119.16,109Z"/><path class="cls-2" d="M94.63,100.79c3,0,5.41-3.05,5.41-6.81s-2.42-6.8-5.41-6.8-5.42,3-5.42,6.8S91.64,100.79,94.63,100.79Z"/><path class="cls-2" d="M89.21,103.25c0-3.35-2-6.06-4.38-6.06s-4.37,2.71-4.37,6.06,2,6.06,4.37,6.06S89.21,106.6,89.21,103.25Z"/><path class="cls-2" d="M202.49,124.83l-95.71-77a6.81,6.81,0,0,0-8.53,0L2.54,124.83a6.8,6.8,0,1,0,8.52,10.59l17.66-14.21v99.94A2.27,2.27,0,0,0,31,223.42H174a2.27,2.27,0,0,0,2.27-2.27V121.21L194,135.42a6.8,6.8,0,1,0,8.52-10.59Zm-30.72,94.06H123.23v-45c0-10-9.27-18.13-20.72-18.13s-20.72,8.11-20.72,18.13v45H33.25V117.56l69.26-55.75,69.26,55.75Z"/><path class="cls-3" d="M96.41,117.07C60.72,179.75,98.15,215,129.93,228.51l5.66-13.5C66.81,190.64,96.41,117.07,96.41,117.07Z"/><path class="cls-3" d="M126,146.23c6.93,16.56,27.86,3.05,24.81-11.31s-30-92.72-21.33-116.67C129.49,18.25,80.09,36.43,126,146.23Z"/><path class="cls-4" d="M130.27,140.65c4.75,12.57,17.87,1.88,15.64-9.06S121.38,49.14,126.49,30.67C126.49,30.67,98.79,57.32,130.27,140.65Z"/><path class="cls-3" d="M172.16.84c10-2.61,28.73-1.3,44,36.14s44,121.44,8.71,118.83S172.16.84,172.16.84Z"/><path class="cls-4" d="M181,16.67c8.07-2,23-.57,34.51,31.36s32.81,103.46,4.62,100.6S181,16.67,181,16.67Z"/><path class="cls-5" d="M227.87,174.53s1.29-55-23.08-82.89-45.06-3.26-45.06-3.26S136.9,140.14,131.67,158s-12.62,67.47-10,80.53H243.11S254,207.61,227.87,174.53Z"/><path class="cls-2" d="M227.87,174.53s2.62-59.2-21.76-87.06-47.88-3.92-47.88-3.92S136.9,140.14,131.67,158s-12.62,67.47-10,80.53h43c-4.81-62.09,12.25-132.65,42.23-124.24,21.06,5.91,23.43,50,15.06,99.06a196,196,0,0,1-6,25.18h27.17S254,207.61,227.87,174.53Z"/><polygon class="cls-2" points="167.91 238.52 183.26 238.52 180.74 117.76 153.97 138 167.91 238.52"/><polygon class="cls-2" points="213.28 238.52 222.1 238.52 222.42 152.37 199.72 133.69 213.28 238.52"/><path class="cls-5" d="M140.38,238.52H99.89S88,231,94.12,221.9s34.69-4.91,39.82-.32C140.14,227.13,140.38,238.52,140.38,238.52Z"/><path class="cls-5" d="M130.8,152.77c-13.06,5.22-19.59,54.84-19.15,71.82l6.09,13.93h30.91S143.86,147.54,130.8,152.77Z"/><path class="cls-2" d="M143.36,215.62a125.65,125.65,0,0,1,1.15,22.9h5.75s-6.52-92.9-19.58-87.67c-4.35,1.73-7.85,10.33-10.73,19.07C129.24,168.85,139.69,189.23,143.36,215.62Z"/><path class="cls-5" d="M270.08,216.93c-35.84-4.34-46.36,21.59-46.36,21.59h47.74S279.76,218.1,270.08,216.93Z"/><path class="cls-2" d="M269.46,226.71c-13.51.6-24.62-2.57-24.82-7.07,0,0,0-.07,0-.1a51,51,0,0,0-23.43,19h50.24a52.21,52.21,0,0,0,3.19-12.22C273,226.49,271.25,226.64,269.46,226.71Z"/><path class="cls-5" d="M216.12,63.53c-7-37.87-21.76-71.39-63.12-60.95s-31.77,53.76-19.7,78.9c5.34,4,16,8.17,17.09,23.11l62.25-1.89C202.63,82.68,216.12,63.53,216.12,63.53Z"/><path class="cls-2" d="M216.12,63.53c-6.76.36-22.68-18.13-40.55-15.31-12.24,1.93-36.08,34.12-42.16,33.35C139,85.21,149.1,93,150,105.61l63.69-2.43C205.15,86.05,213.45,67.94,216.12,63.53Z"/><path class="cls-3" d="M187.53,46s-3.7,8-11.71,10.73c-4,1.37-9.53.42-15.31-1.43,0,0,8.44,12.47,20.28,8.59S187.53,46,187.53,46Z"/><path class="cls-6" d="M167.73,74.34c3,3.64,15,11.66,20.73,7.18s12.31-14.44,8-24.81S177,61.34,177,61.34Z"/><path class="cls-7" d="M188.77,74.51c-4.48,2.68-12.33,1.65-18.73-.19l-.6.92C172.38,78.13,184,84.12,189,79.9a21.91,21.91,0,0,0,7.13-11.48A30.17,30.17,0,0,1,188.77,74.51Z"/><path class="cls-8" d="M162.36,45.57c-7.83,3.59-19,12.77-17.64,27.79,0,0,12.17,7.63,21,5.22,7.18-2,14.27-21.26,14.27-21.26Z"/><path class="cls-9" d="M175.29,54.19c-2.39,6.07-8.91,12.28-17.81,16.14a41.57,41.57,0,0,1-12.29,3.27c3.24,1.62,14.11,7.52,21.89,4.41C174.69,75,180,57.32,180,57.32Z"/><path class="cls-8" d="M177.84,39.66c7.83-3.6,21.54-1.71,31.68,10,0,0,.65,20.8-8.45,19.86S177.78,57,177.78,57Z"/><path class="cls-9" d="M192.05,56.91A46.26,46.26,0,0,1,177.8,52.5l0,4.51S192,68.61,201.07,69.55c5.64.58,7.54-7.2,8.16-13.2A44.39,44.39,0,0,1,192.05,56.91Z"/><path class="cls-6" d="M186.94,23.53c-1.7-3.57-4.78-5.64-6.77-4.6s-2,4.46-.36,7.7,3.63,3.78,5.57,3.06S188.6,27,186.94,23.53Z"/><path class="cls-6" d="M147.88,41.05c-1.88-3.94-5.14-6.21-7.3-5.07s-2.38,5.26-.51,9.2,4.24,4.53,6.39,3.39S149.76,45,147.88,41.05Z"/><path class="cls-10" d="M179.49,57c-2.64,1.22-21.26-5.43-20.4-10.44s18.48-14.11,23.51-8.49C186.3,42.2,182.32,55.69,179.49,57Z"/><polygon class="cls-8" points="162.03 238.52 177.38 238.52 176.84 145.62 153.5 165.1 162.03 238.52"/><path class="cls-5" d="M176.75,154.74l.15,0,.35-21.55c-5.48-12.91-27.23-3-24.86,31.06.68,9.79,5.66,39.93,5.66,39.93C160.22,176.11,168.37,154.26,176.75,154.74Z"/><path class="cls-8" d="M239.63,238.52h-17l-23.4-107c10.14,3.55,17.23,6.58,26.89,10Z"/><path class="cls-8" d="M172.48,238.52H193.7s-3.91-11.1-16.08-11.45C169.54,226.84,172.48,238.52,172.48,238.52Z"/><path class="cls-8" d="M156.22,238.52h21.22s-2-9.2-14.12-9.49C155.28,228.84,156.22,238.52,156.22,238.52Z"/><path class="cls-8" d="M249.7,238.52H229.28s1.94-9.2,13.59-9.49C250.61,228.84,249.7,238.52,249.7,238.52Z"/><path class="cls-8" d="M214.91,238.52h21.22s-2-9.2-14.13-9.49C214,228.84,214.91,238.52,214.91,238.52Z"/><path class="cls-5" d="M231.05,176.79l-4.92-35.34c-6.87-33.26-30.59-28.69-26.89-10l3.87,17.71C211.08,148.31,222,159.44,231.05,176.79Z"/><path class="cls-11" d="M171.22,46.22a36,36,0,0,1-11.55,2.34c3.12,4.59,17.52,9.49,19.82,8.43,2.65-1.22,6.32-13.15,3.72-18.05A33.19,33.19,0,0,1,171.22,46.22Z"/><path class="cls-12" d="M174.12,54.12c.87-.33-2.71-5.42-6.32-5.94s-4.14,1.28-2.84,2.46S173.09,54.51,174.12,54.12Z"/><path class="cls-12" d="M179.05,53.4c-.83.48-2.33-5.64-.31-8.83s3.74-2.45,3.76-.66S180,52.83,179.05,53.4Z"/><path class="cls-2" d="M134.34,40.08c.59,6.5-7,6.74-6.52-2.61s10.41-17.26,15.61-16.84,1.94,7-2.19,7.21S133.57,31.56,134.34,40.08Z"/><path class="cls-2" d="M173.29,16.51c-5.07,3.65-9.28-4-1.27-7.88s19.81,2.51,22.2,8-4.77,5.26-7.13,1.16S180,11.71,173.29,16.51Z"/><path class="cls-13" d="M174.85,75.49s3.88,15.91,9.81,14.88c7.42-1.3,8.37-20.72,8.37-20.72S181.48,68.7,174.85,75.49Z"/><path class="cls-2" d="M145.19,222.42c-4.1,10.72-23,16.2-42.83,12.25a63.72,63.72,0,0,1-8.46-2.29,24.14,24.14,0,0,0,7.52,6.14h50.8S151.94,228.2,145.19,222.42Z"/><path class="cls-14" d="M162,238.52h5s-1.53-4.35-2.94-4.57S162,238.52,162,238.52Z"/><path class="cls-14" d="M173.66,238.52h5s-1.52-4.35-2.94-4.57S173.66,238.52,173.66,238.52Z"/><path class="cls-14" d="M184.66,238.52h5s-3.07-4-4.57-4.24S184.66,238.52,184.66,238.52Z"/><path class="cls-14" d="M220.57,238.52h4.73s-1.44-4.35-2.78-4.57S220.57,238.52,220.57,238.52Z"/><path class="cls-14" d="M231.57,238.52h4.73s-1.44-4.35-2.77-4.57S231.57,238.52,231.57,238.52Z"/><path class="cls-14" d="M242,238.52h4.73s-2.91-4-4.32-4.24S242,238.52,242,238.52Z"/><path class="cls-15" d="M180.64,38.63c-.34-.9-2.46-.93-4.74-.06s-3.84,2.3-3.5,3.2,2.47.92,4.74.06S181,39.52,180.64,38.63Z"/><path class="cls-15" d="M169,43.55c-.28-.37-1.05-.27-1.72.23s-1,1.22-.71,1.59,1.05.27,1.72-.23S169.24,43.93,169,43.55Z"/></g></g></svg>