<svg xmlns="http://www.w3.org/2000/svg" viewBox="0 0 216.87 216.87"><defs><style>.cls-1{fill:#fff;}</style></defs><title>pet-vet-01</title><g id="OBJECTS"><path class="cls-1" d="M140.86,160.83c-2.74-8.05-7.17-23-15.44-26.58s-13-8.6-13.82-11.51c-.61-2.21.57-8.91,1.17-11.94a2.48,2.48,0,0,1,2.23-2c1.81-.15,5.26-.06,11.7,1,12.13,2,7.37-4.4,14.78-4.23,6.1.13,6.58-9.84,6.56-13.39a.34.34,0,0,1,.63-.18c1.73,2.82,6.4,10.53,7.55,14.13,0,0,5.55.49,8.89,3.16,0,0,14.19-13.42,16.77-12.52s3.08,7,1.51,11.56-5.14,14.51-1.58,19.27S192.88,141,200,144.94a17.66,17.66,0,0,1,5.66,4.49,11.55,11.55,0,0,0,11.22-11.54V79a11.56,11.56,0,0,0-11.56-11.55H149.45V11.55A11.56,11.56,0,0,0,137.89,0H79A11.55,11.55,0,0,0,67.42,11.55V67.42H11.55A11.55,11.55,0,0,0,0,79v58.92a11.56,11.56,0,0,0,11.55,11.56h6.64a98.19,98.19,0,0,0,8.34-13.15c11.73-22.06,14.88-16.37,19-24.11s2-16.12,7.69-19.86,11.83,17.27,12.53,11.78c.48-3.73,5.56-6.63,8.77-8.11a1,1,0,0,1,1.37,1.34c-1.3,3-2.46,7.88,2.94,9.07,7.93,1.75,19.11,12.34,20.86,16,1.38,2.88,5.87,7.22,7.7,8.92a3,3,0,0,1,1,1.92c.22,2.24.07,7-4.57,9.53-6.2,3.34-3.55,7.78-10.94,6.68-2.84-.42-7.17,1.48-11.52,4.33a30.91,30.91,0,0,0-13.92,25.84v25.7A11.56,11.56,0,0,0,79,216.87h58.92a11.57,11.57,0,0,0,11.56-11.56V203a102.73,102.73,0,0,0-5.78-34C142.43,165.47,141.46,162.59,140.86,160.83Z"/></g></svg>