<svg xmlns="http://www.w3.org/2000/svg" viewBox="0 0 106.43 95.44"><defs><style>.cls-1,.cls-2{fill:#fd6016;}.cls-2{font-size:15px;font-family:Gorditas-Regular, Gorditas Regular;}.cls-3{letter-spacing:-0.01em;}.cls-4{letter-spacing:-0.08em;}.cls-5{letter-spacing:-0.04em;}.cls-6{letter-spacing:0em;}</style></defs><title>pethouse</title><g id="ELEMENTS"><path class="cls-1" d="M47.78,48.33c-1,3,2.52,4.19,3.87,3.23s1.94-1.68,3.17-1.68,1.8.71,3.16,1.68,4.91-.2,3.87-3.23-4.3-7-7-7S48.81,45.29,47.78,48.33Z"/><path class="cls-1" d="M57.38,40.74a2.74,2.74,0,0,0,2.39-3,2.74,2.74,0,0,0-2.39-3,2.74,2.74,0,0,0-2.39,3A2.74,2.74,0,0,0,57.38,40.74Z"/><path class="cls-1" d="M62.16,44.94a2.66,2.66,0,0,0,2.39-2.86,2.43,2.43,0,1,0-4.78,0A2.66,2.66,0,0,0,62.16,44.94Z"/><path class="cls-1" d="M51.34,41.32c1.31,0,2.38-1.34,2.38-3s-1.07-3-2.38-3S49,36.66,49,38.32,50,41.32,51.34,41.32Z"/><path class="cls-1" d="M49,42.41c0-1.48-.87-2.68-1.94-2.68s-1.93,1.2-1.93,2.68S46,45.08,47,45.08,49,43.89,49,42.41Z"/><path class="cls-1" d="M98.93,51.93l-42.23-34a3,3,0,0,0-3.77,0l-42.23,34a3,3,0,0,0,3.76,4.68l7.79-6.28V94.44a1,1,0,0,0,1,1H86.38a1,1,0,0,0,1-1V50.33l7.79,6.28a3,3,0,0,0,3.76-4.68ZM85.38,93.44H64V73.56c0-4.42-4.09-8-9.14-8s-9.15,3.58-9.15,8V93.44H24.25V48.72l30.57-24.6,30.56,24.6Z"/><text class="cls-2" transform="matrix(0.78, -0.62, 0.62, 0.78, 7.84, 49.7)">DOGGY</text><text class="cls-2" transform="translate(52.72 9.8) rotate(38.65)"><tspan class="cls-3">D</tspan><tspan class="cls-4" x="9.78" y="0">A</tspan><tspan class="cls-5" x="17.77" y="0">Y</tspan><tspan class="cls-6" x="25.35" y="0">C</tspan><tspan x="34.11" y="0">ARE</tspan></text></g></svg>