<svg xmlns="http://www.w3.org/2000/svg" xmlns:xlink="http://www.w3.org/1999/xlink" viewBox="0 0 225.81 143.59"><defs><style>.cls-1,.cls-16,.cls-19,.cls-6{fill:#fff;}.cls-2,.cls-21{fill:none;}.cls-3{isolation:isolate;}.cls-4{fill:#b1ceb3;}.cls-17,.cls-20,.cls-22,.cls-24,.cls-26,.cls-35,.cls-4,.cls-7,.cls-9{mix-blend-mode:multiply;}.cls-5{fill:#398696;}.cls-6{opacity:0.3;}.cls-16,.cls-19,.cls-41,.cls-44,.cls-6{mix-blend-mode:soft-light;}.cls-41,.cls-7{fill:#e5e5e5;}.cls-8{fill:#257382;}.cls-9{fill:#ccc;}.cls-10{fill:#1a3d44;}.cls-11{clip-path:url(#clip-path);}.cls-12{fill:#130606;}.cls-13{fill:#7d3a15;}.cls-14{fill:#ab4f1c;}.cls-15{fill:#210c0b;}.cls-16,.cls-17{opacity:0.2;}.cls-17{fill:#854e36;}.cls-18{fill:#c4a88e;}.cls-19{opacity:0.5;}.cls-20{fill:#b3b3b3;}.cls-21{stroke:#210c0b;stroke-miterlimit:10;stroke-width:0.55px;}.cls-22{fill:#999;}.cls-23{fill:#111117;}.cls-24{fill:#101015;}.cls-25{fill:#3b2218;}.cls-27{fill:#fd672d;}.cls-28{fill:#cc3921;}.cls-29{fill:#813417;}.cls-30{clip-path:url(#clip-path-2);}.cls-31,.cls-35{fill:#fdbf7e;}.cls-32{fill:#605249;}.cls-33{fill:#f94759;}.cls-34{fill:#f99b7e;}.cls-36{fill:#3cb1a8;}.cls-37{fill:#880602;}.cls-38{fill:#c70902;}.cls-39{fill:#da1b20;}.cls-40{fill:#7e0601;}.cls-42{clip-path:url(#clip-path-3);}.cls-43{fill:#9e3f16;}.cls-44{fill:#fdae6d;}</style><clipPath id="clip-path"><path class="cls-1" d="M188.43,71.89a36.13,36.13,0,1,1-36.12-36.12A36.12,36.12,0,0,1,188.43,71.89Z"/></clipPath><clipPath id="clip-path-2"><path class="cls-1" d="M94.55,71.53A36.15,36.15,0,1,1,58.4,35.38,36.14,36.14,0,0,1,94.55,71.53Z"/></clipPath><clipPath id="clip-path-3"><path class="cls-2" d="M101.18,99.59c-23.69.29-24.83,11.79-24.83,14s11.28,4,25.19,4,25.2-1.79,25.2-4S124.74,100.19,101.18,99.59Z"/></clipPath></defs><title>service_icon_2</title><g class="cls-3"><g id="Layer_1" data-name="Layer 1"><path class="cls-4" d="M211.74,132.47c0,5.61-26.36,10.17-58.89,10.17S94,138.08,94,132.47s26.37-10.16,58.9-10.16S211.74,126.86,211.74,132.47Z"/><path class="cls-5" d="M110.47,10.26,101.56,111s0,15,12.18,16.87h80.61s11.72-4.22,8-18.75l-9.38-98.88Z"/><path class="cls-6" d="M163.36,105.44c-1.87.43-3.77.74-5.62,1.21-1.1.27-3,.62-3.56,1.73-.73,1.39,1.13,3.21,2,4.06a12.76,12.76,0,0,0,7,3.71c6.22,1.22,13,.45,19.09-1a37.18,37.18,0,0,0,17.08-8.41c.89-.82,1.74-1.68,2.54-2.56l-8.4-88.68c-1.2.1-2.4.19-3.59.3-9.42.85-19,1.76-28.15,4.23-5.22,1.4-16.12,4.52-14.84,11.93.88,5.19,5.34,8.75,10,10.53,5.41,2.05,12.75,2.84,16,8.27,1.11,1.88,2.22,4.33,1.25,6.51-.82,1.81-2.67,2.84-4.47,3.48-4.73,1.67-9.84,1.58-14.62,3a38.4,38.4,0,0,0-15.11,8.4c-3.31,3.16-6.32,8.1-2.49,12.12a17.53,17.53,0,0,0,8.38,4.7,32.16,32.16,0,0,0,7.2.49c5,0,10.51-.58,15.24,1.28a7,7,0,0,1,4,9.22C170.76,103.46,166.69,104.67,163.36,105.44Z"/><path class="cls-7" d="M202,105.5a27.63,27.63,0,0,1-11.52,12.16,29.93,29.93,0,0,1-10.55,3.62,58.31,58.31,0,0,1-11.44.19c-6.07-.34-12.17-.26-18.23-.71a51.58,51.58,0,0,1-9.1-1.31c-2.09-.54-4.65-1.29-6.15-3-1.69-1.87-3-4.5-.93-6.63s5.15-2.93,7.82-3.7c2.51-.74,5.66-1.13,7.88-2.59,2.37-1.56-5.29-3.83-5.85-3.93-4.14-.77-8.65-.1-12.48-2.17a24.86,24.86,0,0,1-8.69-7.41,19.09,19.09,0,0,1-3.81-10.44,25.41,25.41,0,0,1,1.75-9.76,16.79,16.79,0,0,1,10.93-9.65,37.64,37.64,0,0,1,8.49-1.52c3.41-.25,7.06-.09,10.29-1.4,5.47-2.23-.48-6.56-3.24-8.09-5.46-3-12-3.48-17-7.41-4-3.19-6.28-8.08-4.22-13.07,2.69-6.52,10.48-9.51,16.57-11.78,16.17-6,33.37-6.61,50.43-6.66v0H110.47L101.56,111s0,15,12.18,16.87h80.61s11.72-4.22,8-18.75Z"/><path class="cls-7" d="M148.75,126.76c-8.09-.56-17.34-1.61-24-6.79-1.24-1-2.68-2.45-2.13-4.18.5-1.56,1.84-2.68,2.94-3.83,1.39-1.46,2.84-3.23,2.57-5.4-.52-4.11-4.8-3.77-7.86-4.63-3.36-1-6.06-4-8-6.82a20.62,20.62,0,0,1-3.75-10.9c-.37-7.29,2.88-14,7.89-19.21a72.36,72.36,0,0,1,8.42-6.8c1.46-1.13,4-3.09,3.21-5.26-.6-1.75-2.45-3-3.87-4.06a47,47,0,0,1-5.39-4.37c-3.94-4-5.2-9.67-4.76-15.15a16.53,16.53,0,0,1,6.48-12.1c4-3.08,9-4.68,13.82-5.88q2.5-.62,5-1.12H110.47L101.56,111s0,15,12.18,16.87h47.61C157.17,127.29,153,127.06,148.75,126.76Z"/><polygon class="cls-8" points="107.19 0.42 110.47 10.26 192.94 10.26 196.22 0.42 107.19 0.42"/><polygon class="cls-9" points="112.96 7.55 110.58 0.42 107.19 0.42 110.47 10.26 192.94 10.26 193.85 7.55 112.96 7.55"/><polygon class="cls-10" points="110.93 127.89 194.35 127.89 199.04 133.51 107.19 133.51 110.93 127.89"/><path class="cls-1" d="M188.43,71.89a36.13,36.13,0,1,1-36.12-36.12A36.12,36.12,0,0,1,188.43,71.89Z"/><g class="cls-11"><path class="cls-12" d="M200.36,69.6c4.17-2.79,9.23-4.26,14-2.08a11.18,11.18,0,0,1,6.3,8.15c1.17,5.47-.3,14.79-7.17,15.59-3.08.36-3.12,5.23,0,4.87C223.88,94.92,227,83.7,225.44,74.75a15.82,15.82,0,0,0-8.62-11.43c-6.21-3.13-13.34-1.66-18.92,2.08-2.59,1.73-.16,5.95,2.46,4.2Z"/><path class="cls-13" d="M223.39,123.24l-4.35-4.4C213.9,112.5,217,107.2,217,107.2a13,13,0,0,0,2.32-2.88,24.17,24.17,0,0,0-.65-9.81,17.61,17.61,0,0,0-4.4-7.82c-.43-.46-.88-.89-1.33-1.32a.06.06,0,0,0,0,0c-27.72,1.57-44.69-7.35-44.69-7.35l-9.15,34.42c17.84,3.88,42,.31,42,.31-1.37,10.17,16.33,12.14,16.33,12.14l1.59,6a3.49,3.49,0,0,0-4.68-.59c-5,2.68-.67,6-.67,6h7l3.56-6.25C228,124.73,223.39,123.24,223.39,123.24Z"/><path class="cls-14" d="M159.06,113.76c17.84,4.35,37.41-2.55,37.41-2.55-1.38,11.4,16.33,13.61,16.33,13.61l-2.34,6.79a3.22,3.22,0,0,0-4.68-.66c-5,3-.66,6.68-.66,6.68h7l5.13-7c3.79-6,1.55-7.68,1.55-7.68L214.47,118c-1-3.27,2.79-7.75,2.79-7.75,9.82-10.38-.13-23.43-.13-23.44-3.42-4.4-7.42-7.47-13-8.3-7.74-1.14-15.52.23-23.32-1.1A72.07,72.07,0,0,1,166,73.28c-.55-.22-1.72-1-2.31-1,0,0-15.35.38-16.64,19.92C147,92.18,146.78,110.29,159.06,113.76Z"/><path class="cls-7" d="M218.81,122.93,214.47,118c-1-3.27,2.79-7.75,2.79-7.75,9.82-10.38-.13-23.43-.13-23.44-3.42-4.4-7.42-7.47-13-8.3-7.74-1.14-15.52.23-23.32-1.1A72.07,72.07,0,0,1,166,73.28c-.55-.22-1.72-1-2.31-1a12.61,12.61,0,0,0-2.15.3c1.36,1.77,3.52,2.69,5.59,3.41s4.2,1.48,6.27,2.32c5.08,2.08,10.29,4.36,15.83,4.82,5,.41,10-.83,15.06-.22a13.43,13.43,0,0,1,9.86,6.65c3.06,5,5,12.23,1.69,17.52-1.69,2.7-4.54,5.51-4.41,8.94.11,2.81,2.53,4.31,3.86,6.53a8.07,8.07,0,0,1,.27,7.48c-1,2.27-2.63,4.91-5.23,5.5-1.68.38-3.84-.08-4.54-1.86a2.71,2.71,0,0,1,1.1-3.26,3.37,3.37,0,0,0-1.06.56c-5,3-.66,6.68-.66,6.68h7l5.13-7C221.05,124.6,218.81,122.93,218.81,122.93Z"/><path class="cls-13" d="M161.44,90.38H139.89c-1.76,17.7,6.84,21.57,6.84,21.57l-1.51,16.2v2.44s-3.62-.65-4.29,2.58c-1.31,4.53,7,2.88,7,2.88,4,.37,3.41-5,3.41-5-.7-8.61,2.64-23.62,2.64-23.62C159,100.9,161.13,95.23,161.44,90.38Z"/><path class="cls-14" d="M142.91,70.28c-12.94,35.44,8.56,42,8.56,42l.54,17.2v2.44s-3.62-.65-4.29,2.58c-1.31,4.54,7,2.88,7,2.88,4,.37,3.41-5,3.41-5-.7-8.61,2.64-23.61,2.64-23.61,19.93-25.6-6.1-38.41-6.1-38.41a13.13,13.13,0,0,0-4.1-1.16V69a17.64,17.64,0,0,0-1.77,0c-.56,0-1.16,0-1.78,0v.13a13.26,13.26,0,0,0-4.11,1.16"/><path class="cls-7" d="M167.67,95.32c-3.12,4.84-6.7,9.34-11.52,12.56,2.12,2.55,1.35,6.93.94,9.89-.28,2-.69,4.1-.83,6.16a41.55,41.55,0,0,0,.27,5.23c.09,1.68.25,3.78-.77,5.24a3.52,3.52,0,0,1-3.4,1.07,4.06,4.06,0,0,1-3.14-1.85,1.37,1.37,0,0,1,0-1.32,3,3,0,0,0-1.5,2.15c-1.31,4.54,7,2.88,7,2.88,4,.37,3.41-5,3.41-5-.7-8.61,2.64-23.61,2.64-23.61C164.6,103.76,166.73,99.3,167.67,95.32Z"/><path class="cls-7" d="M150.24,111.47c-3.63-2.48-5.43-7.79-6.15-11.83s-.92-9.52,2.3-12.64c-2.71-.74-4.72-2.64-6.89-4.34-3.58,20.45,7,27.33,10.74,29.07Z"/><path class="cls-9" d="M145.58,91.37a21.8,21.8,0,0,0,12.5,0c5.53-1.84,9.14-7,11.07-12.2a29.11,29.11,0,0,0-10.44-9.47,13.28,13.28,0,0,0-4.1-1.17v-.12c-.63,0-1.22,0-1.78,0s-1.15,0-1.78,0v.12a13.28,13.28,0,0,0-4.1,1.17s-6.42,4.15-8.18,15.67C140.72,88,142.24,90.27,145.58,91.37Z"/><path class="cls-15" d="M213.07,124.82a26.34,26.34,0,0,1-5.64-.91,20.73,20.73,0,0,1-5.31-2.21c-.41-.25-.81-.53-1.2-.81s-.76-.6-1.12-.92a12.65,12.65,0,0,1-1-1.06,10.22,10.22,0,0,1-.88-1.17,9.9,9.9,0,0,1-.68-1.29,9.38,9.38,0,0,1-.51-1.37,8.56,8.56,0,0,1-.31-1.42,14.25,14.25,0,0,1-.15-1.45v0a9,9,0,0,1,.21-3,9.78,9.78,0,0,1,1.1-2.75,9.9,9.9,0,0,1,4.33-3.85,11.58,11.58,0,0,0-2.32,1.73,9.64,9.64,0,0,0-1.74,2.28,8.79,8.79,0,0,0-1,2.68,8.37,8.37,0,0,0-.18,1.41,8.27,8.27,0,0,0,0,1.41v0a12.57,12.57,0,0,0,.15,1.39,8.67,8.67,0,0,0,.31,1.36,8.51,8.51,0,0,0,.5,1.3,9,9,0,0,0,.67,1.22,11.07,11.07,0,0,0,.82,1.12,11.58,11.58,0,0,0,1,1,13.49,13.49,0,0,0,1.07.91,13.89,13.89,0,0,0,1.16.79,22.65,22.65,0,0,0,5.14,2.31A31.86,31.86,0,0,0,213.07,124.82Z"/><path class="cls-16" d="M211.46,104.87c1.45-2.47,3-3.63,3.11-6.74.11-3.88-.93-8.1-4.18-10.55-3.66-2.76-9-2.65-13.35-2.41-4.51.25-9.48,1.59-14,.56a39.27,39.27,0,0,1-11.15-4.6c-1.85-1.1-3.66-2.26-5.48-3.42a18.5,18.5,0,0,0-5.15-2.65,10.75,10.75,0,0,0-7.12.58c-3.37,2.75-6.51,7.5-7.14,15.68a.36.36,0,0,1,.1.3,15.51,15.51,0,0,0,.49,5.38c.77,3,2.58,7.2,6.34,6.81,3.32-.34,6.41-3.18,8.49-5.62,1.49-1.75,2.59-4.81,4.81-5.8s3.54,1,3.85,3c.43,2.57-.31,4.57-1.45,6.84-1.28,2.55-2.84,5.55.59,7.09,2.89,1.3,6.41,1.31,9.52,1,2.95-.3,6.44-.82,8.53-3.15,3.28-3.68,4.16-10.27,9.93-11.13,1.83-.27,4.08-.08,5.47,1.32s1.35,3.62.36,5.37a40.29,40.29,0,0,1-2.74,3.61,6.83,6.83,0,0,0-1.16,5.35,10.7,10.7,0,0,0,2.91,5.59c.64.63,1.57,1.52,2.55,1.49a2.17,2.17,0,0,0,2.1-2.28c.08-2.83-1-5.56.87-8.06A37.07,37.07,0,0,0,211.46,104.87Z"/><path class="cls-12" d="M137.35,55l-2,3.69a4.07,4.07,0,0,0-4,.39c-3.69,3.09-2.55,14-2.55,14,1.78,9.15-6.84,8.07-6.84,8.07-5.88-1-4.57-8.33-4.57-8.33,1-10,4-16.67,12.21-18.86A8.83,8.83,0,0,1,137.35,55Z"/><path class="cls-12" d="M165.27,55l2,3.69a4.07,4.07,0,0,1,4,.39c3.69,3.09,2.54,14,2.54,14-1.77,9.15,6.84,8.07,6.84,8.07,5.89-1,4.58-8.33,4.58-8.33-1-10-4-16.67-12.22-18.86A8.81,8.81,0,0,0,165.27,55Z"/><path class="cls-14" d="M170,72.41c0,10.36-7.94,17.11-18.3,17.11h0c-10.36,0-19.21-6.75-19.21-17.11V67.5a18.76,18.76,0,0,1,18.76-18.75h0A18.76,18.76,0,0,1,170,67.5Z"/><path class="cls-17" d="M135.21,75.08c2.53-2,5.65-2.66,8.56-3.87a9.86,9.86,0,0,0,3.91-2.56,8.22,8.22,0,0,0,1.56-5.55c-.06-2.6-.46-5.76-1.9-8-1.09-1.72-2.69-3-3.92-4.64a18.75,18.75,0,0,0-11,17v4.91a16.65,16.65,0,0,0,.76,5A7.29,7.29,0,0,1,135.21,75.08Z"/><path class="cls-17" d="M153.14,63.41c.12,2,.42,4.52,1.84,6.11a7.32,7.32,0,0,0,3.67,2.11c2.66.72,5.68.76,8.08,2.25a8.48,8.48,0,0,1,2.73,2.86,18.28,18.28,0,0,0,.51-4.33V67.5A18.75,18.75,0,0,0,157.9,50C155.1,53.92,152.85,58.45,153.14,63.41Z"/><path class="cls-18" d="M139.35,81.44h0c.81,5.76,1.83,7.14,6.63,8.08h10.48c3.71,0,6.62-3.61,6.62-8.08h0s-.26-9.82-11.87-10C151.21,71.39,140.68,70.65,139.35,81.44Z"/><path class="cls-15" d="M154.69,76.09s-.62-1-3.47-1-3.48,1-3.48,1a2.31,2.31,0,0,0-.41,2.41,7,7,0,0,0,2.84,2.44,3.5,3.5,0,0,0,1,.27h0a3.6,3.6,0,0,0,1-.27,7,7,0,0,0,2.84-2.44A2.29,2.29,0,0,0,154.69,76.09Z"/><path class="cls-19" d="M153.66,77a1.08,1.08,0,0,0,0-.31,1.45,1.45,0,0,0-1.74-1.13,2,2,0,0,0-1.43,2.2,1.25,1.25,0,0,0,1.71.81A2.26,2.26,0,0,0,153.66,77Z"/><path class="cls-19" d="M153.29,76.79a1,1,0,0,0-1.22-.8h0a1.34,1.34,0,0,1,.62.58,1,1,0,0,1-.36,1.26,1.21,1.21,0,0,1-.85.24.9.9,0,0,0,.79.05,1.59,1.59,0,0,0,1-1.11A.81.81,0,0,0,153.29,76.79Z"/><path class="cls-20" d="M154.69,76.09a1.32,1.32,0,0,0-.41-.37,2.2,2.2,0,0,1-.07,2.08,3.14,3.14,0,0,1-2.37,1.65,2,2,0,0,1-2.15-1.71A2.79,2.79,0,0,1,151,75.1c-2.69,0-3.29,1-3.29,1a2.31,2.31,0,0,0-.41,2.41,7,7,0,0,0,2.84,2.44,3.5,3.5,0,0,0,1,.27h0a3.6,3.6,0,0,0,1-.27,7,7,0,0,0,2.84-2.44A2.29,2.29,0,0,0,154.69,76.09Z"/><path class="cls-20" d="M154.85,76.29a2.66,2.66,0,0,1-.25,1.63,3.31,3.31,0,0,1-3.14,1.85,2.39,2.39,0,0,1-2.23-2.25,2.66,2.66,0,0,1,1.23-2.4c-2.21.11-2.72,1-2.72,1a2.31,2.31,0,0,0-.41,2.41,7,7,0,0,0,2.84,2.44,3.5,3.5,0,0,0,1,.27h0a3.6,3.6,0,0,0,1-.27,7,7,0,0,0,2.84-2.44A2.3,2.3,0,0,0,154.85,76.29Z"/><line class="cls-21" x1="151.29" y1="84.46" x2="151.29" y2="80.45"/><path class="cls-15" d="M147,82.51a.84.84,0,0,0,.12.41,1,1,0,0,0,.28.37c.1.15.33.21.5.34a5.54,5.54,0,0,0,.69.25,6.15,6.15,0,0,0,.81.15,5.1,5.1,0,0,0,.89.07l.93,0A8.9,8.9,0,0,0,153,84a6.26,6.26,0,0,0,.8-.18,4.82,4.82,0,0,0,.68-.27,3.49,3.49,0,0,0,.51-.35,1.75,1.75,0,0,0,.33-.35l.23-.37a4.4,4.4,0,0,1-.12.43,2.49,2.49,0,0,1-.76.94,4,4,0,0,1-.71.4,5.3,5.3,0,0,1-.85.29,7.63,7.63,0,0,1-1.92.19,11.89,11.89,0,0,1-1.92-.2,4.75,4.75,0,0,1-.86-.25,4.06,4.06,0,0,1-.72-.38c-.19-.18-.4-.29-.5-.49A1.34,1.34,0,0,1,147,83a.83.83,0,0,1,0-.33A.21.21,0,0,1,147,82.51Z"/><circle class="cls-22" cx="141.76" cy="67.37" r="2.97"/><path class="cls-23" d="M144.35,67.37a2.59,2.59,0,1,1-2.59-2.59A2.58,2.58,0,0,1,144.35,67.37Z"/><path class="cls-24" d="M143.37,67.37a1.61,1.61,0,1,1-1.61-1.61A1.6,1.6,0,0,1,143.37,67.37Z"/><path class="cls-1" d="M141,66.33a.8.8,0,1,1-.8-.8A.8.8,0,0,1,141,66.33Z"/><path class="cls-1" d="M141.58,67.28a.4.4,0,0,1-.8,0,.4.4,0,1,1,.8,0Z"/><path class="cls-22" d="M157.7,67.37a3,3,0,1,0,3-3A3,3,0,0,0,157.7,67.37Z"/><path class="cls-23" d="M158.08,67.37a2.59,2.59,0,1,0,2.59-2.59A2.58,2.58,0,0,0,158.08,67.37Z"/><path class="cls-24" d="M159.06,67.37a1.61,1.61,0,1,0,1.61-1.61A1.6,1.6,0,0,0,159.06,67.37Z"/><path class="cls-1" d="M161.47,66.33a.8.8,0,1,0,1.6,0,.8.8,0,0,0-1.6,0Z"/><path class="cls-1" d="M160.85,67.28a.4.4,0,0,0,.8,0,.4.4,0,1,0-.8,0Z"/><path class="cls-25" d="M141,76.52a3.73,3.73,0,0,1,.41-1,7.51,7.51,0,0,1,1.8-2.1,9.22,9.22,0,0,1,1.57-1,11.31,11.31,0,0,1,1.95-.77,13,13,0,0,1,2.18-.45,19.11,19.11,0,0,1,2.28-.16,14.21,14.21,0,0,1,4.46.68,10.87,10.87,0,0,1,3.5,1.8,8.4,8.4,0,0,1,1.86,2c.17.28.29.51.37.67l.11.25a10,10,0,0,0-.65-.79,9.47,9.47,0,0,0-2.06-1.65,12.2,12.2,0,0,0-3.4-1.39,16.42,16.42,0,0,0-4.19-.52c-.72,0-1.45,0-2.16.12a13.29,13.29,0,0,0-2.05.33,12.15,12.15,0,0,0-1.85.57,11.94,11.94,0,0,0-1.56.78,11.51,11.51,0,0,0-1.19.88,6,6,0,0,0-.8.83A5.07,5.07,0,0,0,141,76.52Z"/></g><g class="cls-26"><path class="cls-15" d="M177.14,120.12s1.38,2.33,7.7,2.18c6.31.15,7.69-2.18,7.69-2.18a5.08,5.08,0,0,0,.9-5.34,15.38,15.38,0,0,0-6.28-5.39,8,8,0,0,0-2.29-.61h-.05a8,8,0,0,0-2.29.61,15.46,15.46,0,0,0-6.28,5.39A5.1,5.1,0,0,0,177.14,120.12Z"/><path class="cls-15" d="M190.76,103.78c-.31,2.27-1.88,3.92-3.51,3.69s-2.68-2.24-2.36-4.51,1.89-3.92,3.51-3.7S191.08,101.51,190.76,103.78Z"/><path class="cls-15" d="M183.24,102.92c.67,2.19-.05,4.35-1.62,4.83s-3.38-.91-4.05-3.1.06-4.35,1.63-4.83S182.57,100.73,183.24,102.92Z"/><path class="cls-15" d="M177.29,107c1.34,1.86,1.35,4.14,0,5.1s-3.49.22-4.83-1.63-1.35-4.14,0-5.1S176,105.18,177.29,107Z"/><path class="cls-15" d="M191.12,106.7c-.91,2.1-.44,4.33,1.06,5s3.46-.52,4.38-2.61.44-4.34-1.06-5S192,104.61,191.12,106.7Z"/></g><path class="cls-9" d="M117.88,132.15c0,5.62-26.39,10.17-58.94,10.17S0,137.77,0,132.15,26.39,122,58.94,122,117.88,126.54,117.88,132.15Z"/><path class="cls-27" d="M16.53,9.85,7.62,110.68s0,15,12.19,16.88h80.66s11.73-4.22,8-18.76L99.07,9.85Z"/><path class="cls-6" d="M69.46,105.1c-1.87.43-3.76.74-5.62,1.21-1.1.27-3,.61-3.56,1.74-.73,1.39,1.13,3.2,2,4.06a12.68,12.68,0,0,0,7,3.7c6.23,1.23,13,.46,19.1-.94,6.3-1.44,12.29-4,17.1-8.42.89-.82,1.74-1.68,2.54-2.57L99.57,15.14c-1.2.1-2.4.19-3.59.3-9.43.86-19,1.77-28.17,4.23-5.22,1.41-16.13,4.53-14.85,12,.89,5.19,5.34,8.76,10,10.53C68.38,44.2,75.73,45,79,50.43c1.11,1.88,2.22,4.34,1.25,6.51a7.22,7.22,0,0,1-4.48,3.48C71,62.1,65.88,62,61.1,63.45A38.2,38.2,0,0,0,46,71.86C42.66,75,39.65,80,43.49,84a17.55,17.55,0,0,0,8.39,4.7,32.12,32.12,0,0,0,7.2.48c5,0,10.51-.58,15.24,1.29a7,7,0,0,1,4,9.23C76.87,103.12,72.8,104.33,69.46,105.1Z"/><path class="cls-7" d="M108.1,105.16a27.78,27.78,0,0,1-11.53,12.17A29.93,29.93,0,0,1,86,121a58.51,58.51,0,0,1-11.46.19c-6.07-.34-12.17-.26-18.24-.71a51.83,51.83,0,0,1-9.11-1.31c-2.09-.54-4.64-1.29-6.15-3-1.69-1.88-3-4.5-.93-6.63s5.16-2.94,7.83-3.71c2.51-.74,5.66-1.13,7.89-2.59S50.55,99.4,50,99.29c-4.15-.76-8.66-.09-12.49-2.17a24.7,24.7,0,0,1-8.69-7.42A19.07,19.07,0,0,1,25,79.26a25.49,25.49,0,0,1,1.75-9.77,16.83,16.83,0,0,1,10.94-9.66,37.81,37.81,0,0,1,8.5-1.51c3.41-.25,7.07-.1,10.29-1.41,5.48-2.22-.47-6.56-3.24-8.09-5.46-3-12-3.48-17-7.42-4-3.19-6.28-8.09-4.22-13.08,2.68-6.52,10.49-9.52,16.58-11.79C64.79,10.5,82,9.92,99.07,9.87v0H16.53L7.62,110.68s0,15,12.19,16.88h80.66s11.73-4.22,8-18.76Z"/><path class="cls-7" d="M54.84,126.44c-8.09-.57-17.35-1.61-24-6.8-1.23-1-2.67-2.45-2.12-4.18.49-1.56,1.84-2.69,2.93-3.83,1.4-1.47,2.84-3.24,2.57-5.41-.51-4.12-4.79-3.77-7.86-4.63-3.36-1-6.06-4-8-6.83a20.71,20.71,0,0,1-3.75-10.9c-.36-7.3,2.88-14.06,7.9-19.23C25.09,62,28,60.05,30.94,57.82c1.47-1.12,4-3.09,3.22-5.26-.61-1.75-2.45-3-3.87-4.06a48.19,48.19,0,0,1-5.4-4.37c-3.94-4-5.21-9.68-4.76-15.17a16.57,16.57,0,0,1,6.48-12.11c4-3.07,9-4.68,13.83-5.88,1.67-.41,3.36-.78,5-1.12H16.53L7.62,110.68s0,15,12.19,16.88H67.45C63.27,127,59.07,126.73,54.84,126.44Z"/><polygon class="cls-28" points="13.24 0 16.53 9.85 99.07 9.85 102.35 0 13.24 0"/><polygon class="cls-9" points="19.03 7.14 16.65 0 13.24 0 16.53 9.85 99.07 9.85 99.97 7.14 19.03 7.14"/><polygon class="cls-29" points="17 127.56 100.47 127.56 105.17 133.19 13.24 133.19 17 127.56"/><path class="cls-1" d="M94.55,71.53A36.15,36.15,0,1,1,58.4,35.38,36.14,36.14,0,0,1,94.55,71.53Z"/><g class="cls-30"><path class="cls-31" d="M51.1,117.21a83.11,83.11,0,0,0-6.66,15.3h65c-.82-11.38-4.19-22.87-12.92-30.3,0,0-5.08-6.1-20.78-17.16,0,0-4.53-10.4-15.94-6.68,0,0-14.48,4.47-10,13.65C49.77,92,54.29,100.68,51.1,117.21Z"/><path class="cls-7" d="M104.41,132.51h5c-.82-11.38-4.19-22.87-12.92-30.3a51.93,51.93,0,0,0-4.83-4.72,64.88,64.88,0,0,1,6.26,11.21A84.1,84.1,0,0,1,104.41,132.51Z"/><path class="cls-9" d="M51.1,117.21s-.59,1-1.48,2.74a32.16,32.16,0,0,0,5.71-7.71A39.1,39.1,0,0,0,60,93.43a44,44,0,0,0-1-9.58,20.34,20.34,0,0,1-.82-4.91c-3.6,1.47-12,5.79-8.43,13.08C49.77,92,54.29,100.68,51.1,117.21Z"/><path class="cls-31" d="M76.91,59.49c-10.63-14.88-29-14.69-39.46,0,0,0-15.75,17.54,6.31,29.75,0,0,8.56,4.33,13.42,5.34,4.86-1,13.42-5.34,13.42-5.34C92.66,77,76.91,59.49,76.91,59.49Z"/><rect class="cls-32" x="54.89" y="87.53" width="4.86" height="3.52"/><path class="cls-31" d="M68.26,90.38c-2.89,1.36-7.8,3.52-11.05,4.2-3.26-.68-8.16-2.84-11.05-4.2C46.16,90.38,57.21,90,68.26,90.38Z"/><path class="cls-1" d="M57.18,86.77c0,2.9-2.72,5.25-6.08,5.25S45,89.67,45,86.77s2.72-5.25,6.08-5.25S57.18,83.87,57.18,86.77Z"/><path class="cls-1" d="M69.36,86.77c0,2.9-2.73,5.25-6.09,5.25s-6.08-2.35-6.08-5.25,2.73-5.25,6.09-5.25S69.36,83.88,69.36,86.77Z"/><path class="cls-33" d="M59.65,82.48H54.74s-1.68.48-1,1.84l2.63,2a2,2,0,0,0,.85.49,2,2,0,0,0,.86-.49l2.63-2C61.33,83,59.65,82.48,59.65,82.48Z"/><path class="cls-1" d="M49.34,55.89c.07,1.63-.13-9.33-12.19-12.75a2.68,2.68,0,0,0-3.7,1.78s-4.88,9.35,2.41,17.18A14.26,14.26,0,0,0,49.34,55.89Z"/><path class="cls-31" d="M49.34,55.89c.07,1.63-.13-9.33-12.19-12.75a2.68,2.68,0,0,0-3.7,1.78s-4.88,9.35,2.41,17.18A14.26,14.26,0,0,0,49.34,55.89Z"/><path class="cls-34" d="M47.8,56.43c.06,1.29-.1-7.32-9.57-10a2.1,2.1,0,0,0-2.9,1.4s-3.84,7.34,1.88,13.49A11.22,11.22,0,0,0,47.8,56.43Z"/><path class="cls-9" d="M47,56a6.94,6.94,0,0,1-5.6,3.87c-2.65.16-4.12-2-4.69-4.34-.41-1.64-.88-3.81-.13-5.43.82-1.77,2.17-2.28,3.91-2.89a16,16,0,0,0-2.25-.82,2.1,2.1,0,0,0-2.9,1.4s-3.84,7.34,1.88,13.49a11.21,11.21,0,0,0,10.58-4.86,10.07,10.07,0,0,0-.39-1.6A6.35,6.35,0,0,1,47,56Z"/><path class="cls-1" d="M65.08,55.89c-.07,1.63.13-9.33,12.19-12.75A2.68,2.68,0,0,1,81,44.92s4.88,9.35-2.41,17.18A14.26,14.26,0,0,1,65.08,55.89Z"/><path class="cls-31" d="M65.08,55.89c-.07,1.63.13-9.33,12.19-12.75A2.68,2.68,0,0,1,81,44.92s4.88,9.35-2.41,17.18A14.26,14.26,0,0,1,65.08,55.89Z"/><path class="cls-34" d="M66.62,56.43c-.06,1.29.1-7.32,9.57-10a2.1,2.1,0,0,1,2.9,1.4s3.84,7.34-1.89,13.49A11.2,11.2,0,0,1,66.62,56.43Z"/><path class="cls-9" d="M67.43,56A6.94,6.94,0,0,0,73,59.9c2.65.16,4.12-2,4.69-4.34.41-1.64.88-3.81.13-5.43-.82-1.77-2.17-2.28-3.91-2.89a16,16,0,0,1,2.25-.82,2.1,2.1,0,0,1,2.9,1.4s3.84,7.34-1.89,13.49a11.2,11.2,0,0,1-10.57-4.86,10.07,10.07,0,0,1,.39-1.6A6.35,6.35,0,0,0,67.43,56Z"/><path class="cls-35" d="M32.14,71a7.7,7.7,0,0,1,7.68-.74,7.49,7.49,0,0,0-7.81,3A6.77,6.77,0,0,1,32.14,71Z"/><path class="cls-35" d="M32.23,75.61a15.92,15.92,0,0,0,.53,2.09,12.51,12.51,0,0,1,6.78-2.76S36.93,72.85,32.23,75.61Z"/><path class="cls-35" d="M33.77,80S34.66,81.53,35,82c0,0,4.45-.6,5.61-4.26C40.6,77.7,36.3,81.52,33.77,80Z"/><path class="cls-35" d="M82.28,71a7.72,7.72,0,0,0-7.69-.74,7.5,7.5,0,0,1,7.82,3A6.77,6.77,0,0,0,82.28,71Z"/><path class="cls-35" d="M82.19,75.61a15.92,15.92,0,0,1-.53,2.09,12.51,12.51,0,0,0-6.78-2.76S77.48,72.85,82.19,75.61Z"/><path class="cls-35" d="M80.65,80s-.89,1.51-1.22,1.94c0,0-4.45-.6-5.61-4.26C73.82,77.7,78.12,81.52,80.65,80Z"/><path class="cls-1" d="M38.66,72.42c.25-3.69,5-6,7.34-6s7.09,2.26,7.33,6c-.24,3.69-5,6-7.33,6S38.91,76.11,38.66,72.42Z"/><path class="cls-22" d="M50.83,72.42A4.84,4.84,0,1,1,46,67.59,4.83,4.83,0,0,1,50.83,72.42Z"/><circle class="cls-36" cx="46" cy="72.42" r="4.21"/><path class="cls-24" d="M48.61,72.42A2.61,2.61,0,1,1,46,69.81,2.61,2.61,0,0,1,48.61,72.42Z"/><path class="cls-1" d="M44.69,70.74a1.31,1.31,0,0,1-2.61,0,1.31,1.31,0,1,1,2.61,0Z"/><path class="cls-1" d="M45.7,72.27a.65.65,0,1,1-.65-.65A.65.65,0,0,1,45.7,72.27Z"/><path class="cls-1" d="M75.7,72.42c-.25-3.69-5-6-7.34-6s-7.09,2.26-7.33,6c.24,3.69,5,6,7.33,6S75.45,76.11,75.7,72.42Z"/><path class="cls-22" d="M63.53,72.42a4.84,4.84,0,1,0,4.83-4.83A4.83,4.83,0,0,0,63.53,72.42Z"/><path class="cls-36" d="M64.15,72.42a4.22,4.22,0,1,0,4.21-4.21A4.21,4.21,0,0,0,64.15,72.42Z"/><path class="cls-24" d="M65.75,72.42a2.61,2.61,0,1,0,2.61-2.61A2.61,2.61,0,0,0,65.75,72.42Z"/><path class="cls-1" d="M69.67,70.74A1.31,1.31,0,1,0,71,69.43,1.3,1.3,0,0,0,69.67,70.74Z"/><path class="cls-1" d="M68.66,72.27a.65.65,0,1,0,.65-.65A.65.65,0,0,0,68.66,72.27Z"/></g><g class="cls-26"><path class="cls-15" d="M83.25,119.78S84.63,122.12,91,122c6.32.15,7.7-2.19,7.7-2.19a5.06,5.06,0,0,0,.89-5.33,15.37,15.37,0,0,0-6.28-5.4,8,8,0,0,0-2.3-.61h0a8,8,0,0,0-2.29.61,15.37,15.37,0,0,0-6.28,5.4A5.06,5.06,0,0,0,83.25,119.78Z"/><path class="cls-15" d="M96.88,103.44c-.31,2.27-1.88,3.92-3.5,3.7s-2.69-2.25-2.37-4.52,1.89-3.93,3.51-3.7S97.2,101.17,96.88,103.44Z"/><path class="cls-15" d="M89.36,102.58c.67,2.19-.06,4.35-1.63,4.83s-3.37-.91-4-3.1.06-4.35,1.62-4.83S88.69,100.39,89.36,102.58Z"/><path class="cls-15" d="M83.4,106.7c1.34,1.86,1.35,4.14,0,5.1s-3.49.23-4.83-1.63-1.35-4.14,0-5.1S82.06,104.84,83.4,106.7Z"/><path class="cls-15" d="M97.25,106.36c-.92,2.1-.45,4.34,1,5s3.47-.51,4.38-2.61.45-4.34-1.05-5S98.16,104.26,97.25,106.36Z"/></g><path class="cls-9" d="M143.41,130c0,7.5-18.91,13.58-42.23,13.58S58.94,137.51,58.94,130s18.91-13.59,42.24-13.59S143.41,122.5,143.41,130Z"/><path class="cls-37" d="M67.17,129.65c0,5.36,15.38,9.7,34.36,9.7s34.36-4.34,34.36-9.7v-1.94H67.33Z"/><path class="cls-38" d="M135.89,128.63c0,5.35-15.38,9.69-34.36,9.69S67.17,134,67.17,128.63s15.38-9.7,34.36-9.7S135.89,123.27,135.89,128.63Z"/><path class="cls-37" d="M70.8,126.58c0,4.79,13.76,8.67,30.73,8.67s30.74-3.88,30.74-8.67v-1.73H70.94Z"/><path class="cls-38" d="M70.8,125.67c0,4.79,13.76,8.67,30.73,8.67s30.74-3.88,30.74-8.67l-3-12.18H73.85l-2.91,11.36Z"/><path class="cls-7" d="M129.24,113.49H112c1.81.52,3.64.93,5.4,1.61a46.66,46.66,0,0,1,7,3.43c1.29.76,3,1.59,3.75,3,2.31,4.12-5.68,6.23-8.23,6.92a73.26,73.26,0,0,1-15,2.31c-1.47.08-2.94.12-4.41.11q-3.19,0-6.37-.3a22.85,22.85,0,0,1-7-1.43c-2.3-1-4-3.38-2.33-5.77,1.94-2.84,5.3-4.34,8.28-5.83,2.34-1.16,4.63-2.56,7-3.6.33-.15.67-.28,1-.42H73.85l-2.91,11.36-.14.82c0,4.79,13.76,8.67,30.73,8.67s30.74-3.88,30.74-8.67Z"/><path class="cls-9" d="M116.47,114.55c3,1.14,6,1.88,9.15,2.73a13.71,13.71,0,0,1,5.24,2.74l-1.62-6.53H113.5C114.5,113.81,115.49,114.18,116.47,114.55Z"/><path class="cls-9" d="M131.4,122.19a9,9,0,0,1-.85,2.85c-1.53,3-5.13,4.24-8.15,5.14a65.92,65.92,0,0,1-12.56,2.18,86.23,86.23,0,0,1-13.44.58,50.36,50.36,0,0,1-12.28-2.31c-2.7-.85-5.06-2.13-4.65-5.34.46-3.54,3.72-6,6.63-7.56,3.89-2.14,8.24-2.9,12.43-4.24H73.85l-2.91,11.36-.14.82c0,4.79,13.76,8.67,30.73,8.67s30.74-3.88,30.74-8.67Z"/><path class="cls-39" d="M129.24,113.63c0,2.93-12.4,5.3-27.7,5.3s-27.69-2.37-27.69-5.3,12.4-5.31,27.69-5.31S129.24,110.7,129.24,113.63Z"/><path class="cls-38" d="M126.74,113.59c0,2.21-11.28,4-25.2,4s-25.19-1.79-25.19-4,11.28-4,25.19-4S126.74,111.38,126.74,113.59Z"/><path class="cls-40" d="M79.73,115.59c4.35,1.19,12.49,2,21.81,2s17.46-.81,21.82-2c-4.36-1.2-12.49-2-21.82-2S84.08,114.39,79.73,115.59Z"/><path class="cls-41" d="M123.33,123.71c.14,2.54-7.58,5-17.22,5.51s-17.58-1.15-17.71-3.69,7.58-5,17.23-5.51S123.2,121.17,123.33,123.71Z"/><g class="cls-26"><path class="cls-15" d="M98.21,130.4s.64,1.09,3.6,1,3.6-1,3.6-1a2.38,2.38,0,0,0,.42-2.5,7.22,7.22,0,0,0-2.94-2.52,3.58,3.58,0,0,0-1.07-.29h0a3.58,3.58,0,0,0-1.08.29,7.16,7.16,0,0,0-2.93,2.52A2.38,2.38,0,0,0,98.21,130.4Z"/><path class="cls-15" d="M104.58,122.75c-.15,1.06-.88,1.84-1.64,1.73s-1.25-1-1.11-2.11.89-1.84,1.65-1.73S104.73,121.69,104.58,122.75Z"/><path class="cls-15" d="M101.06,122.35c.31,1,0,2-.76,2.26s-1.58-.43-1.89-1.45a1.72,1.72,0,0,1,.76-2.26C99.9,120.68,100.75,121.32,101.06,122.35Z"/><path class="cls-15" d="M98.27,124.28a1.72,1.72,0,0,1,0,2.38c-.62.45-1.63.11-2.26-.76a1.46,1.46,0,1,1,2.25-1.62Z"/><path class="cls-15" d="M104.75,124.12a1.73,1.73,0,0,0,.49,2.33c.71.31,1.62-.24,2.05-1.22a1.73,1.73,0,0,0-.49-2.33C106.1,122.59,105.18,123.14,104.75,124.12Z"/></g><g class="cls-42"><path class="cls-43" d="M93.74,114.9a1.6,1.6,0,0,0,1.17-1.48,1.82,1.82,0,0,0-3.6,0v.1H88.86s0-.07,0-.1a1.82,1.82,0,0,0-3.61,0,1.6,1.6,0,0,0,1.17,1.48,1.61,1.61,0,0,0-1.17,1.48,1.82,1.82,0,0,0,3.61,0s0-.06,0-.1h2.45v.1a1.81,1.81,0,0,0,3.6,0A1.61,1.61,0,0,0,93.74,114.9Z"/><path class="cls-44" d="M92.58,114.41c.23-.2,1.66-1,.88-1.33-.49-.21-.76.4-1,.67a2.44,2.44,0,0,1-.7.53,4.69,4.69,0,0,1-3.15.23c-.32-.11-.53-.45-.71-.71s-.39-.64-.67-.76a.55.55,0,0,0-.63.13c-.17.25.07.61.3.73a3.06,3.06,0,0,1,.54.34.75.75,0,0,1,.32.9c-.14.38-.6.53-.87.79s0,1,.46.67a1.42,1.42,0,0,0,.38-.43,2.17,2.17,0,0,1,.43-.61,2,2,0,0,1,1.14-.45,4.81,4.81,0,0,1,1.69,0,2.06,2.06,0,0,1,1.1.76,2.09,2.09,0,0,0,.67.62c.85.36.34-.31.21-.43C92.5,115.56,91.9,115,92.58,114.41Z"/><path class="cls-9" d="M93.74,114.9a1.6,1.6,0,0,0,1.17-1.48,1.82,1.82,0,0,0-3.6,0v.1H88.86s0-.07,0-.1a1.82,1.82,0,0,0-3.61,0,1.6,1.6,0,0,0,1.17,1.48,1.61,1.61,0,0,0-1.17,1.48,1.82,1.82,0,0,0,3.61,0s0-.06,0-.1h2.45v.1a1.81,1.81,0,0,0,3.6,0A1.61,1.61,0,0,0,93.74,114.9Zm-.66,2c-.52.13-1-.44-1.29-.78a1.51,1.51,0,0,0-.92-.66,5.05,5.05,0,0,0-1.23,0,1.68,1.68,0,0,0-1.42.6,4.36,4.36,0,0,1-.52.75.76.76,0,0,1-1.14,0c-.27-.31-.4-.71,0-1a5.93,5.93,0,0,1,.56-.43c.66-.48,0-.83-.39-1.07-.59-.38-.73-1.25-.15-1.52h0a1,1,0,0,1,.74-.1c.43.13.67.68.89,1a2.14,2.14,0,0,0,2.11.74,3.58,3.58,0,0,0,1.54-.42,5.18,5.18,0,0,0,.9-1,.73.73,0,0,1,1-.18.82.82,0,0,1,.16,1.07c-.19.34-1.7.91-1.15,1.42S94.18,116.58,93.08,116.87Z"/><path class="cls-9" d="M93.74,114.9a1.6,1.6,0,0,0,1.17-1.48,1.82,1.82,0,0,0-3.6,0v.1H88.86s0-.07,0-.1a1.82,1.82,0,0,0-3.61,0,1.6,1.6,0,0,0,1.17,1.48,1.61,1.61,0,0,0-1.17,1.48,1.82,1.82,0,0,0,3.61,0s0-.06,0-.1h2.45v.1a1.81,1.81,0,0,0,3.6,0A1.61,1.61,0,0,0,93.74,114.9Zm.54,1.7a.9.9,0,0,1-.35.61,1.68,1.68,0,0,1-2.09-.31c-.32-.34-.22-.82-.68-1a3.39,3.39,0,0,0-1.23-.1,1.55,1.55,0,0,0-1.31.34c-.29.24-.3.68-.55,1a1.21,1.21,0,0,1-1,.38c-.56-.08-1.23-.57-1.14-1.23a1.7,1.7,0,0,1,.68-1c.3-.25.34-.44,0-.69s-.7-.41-.83-.79a1.18,1.18,0,0,1,.38-1.22,1.46,1.46,0,0,1,1.9.15,1,1,0,0,1,.39.68c.17.65,1,.76,1.53.72.73,0,1.6.08,2-.61.29-.49.18-.9,1.22-1.14a1.2,1.2,0,0,1,1.31.92c.11,1-.7,1-1.14,1.54s.53.92.76,1.2A.87.87,0,0,1,94.28,116.6Z"/><path class="cls-43" d="M95.93,108.9a1.62,1.62,0,0,0,.44-1.83,1.81,1.81,0,0,0-3.27,1.5.41.41,0,0,0,.05.09l-2.23,1a1,1,0,0,0,0-.1,1.81,1.81,0,0,0-3.27,1.51,1.6,1.6,0,0,0,1.68.85,1.62,1.62,0,0,0-.45,1.84,1.82,1.82,0,0,0,3.28-1.51l-.05-.09,2.23-1a.69.69,0,0,0,0,.1,1.82,1.82,0,0,0,3.27-1.51A1.6,1.6,0,0,0,95.93,108.9Z"/><path class="cls-44" d="M94.67,108.94c.12-.28,1.09-1.6.24-1.58-.54,0-.53.68-.65,1a2.24,2.24,0,0,1-.41.78,4.62,4.62,0,0,1-2.77,1.52,1.58,1.58,0,0,1-.94-.35,2.31,2.31,0,0,0-.92-.41.57.57,0,0,0-.52.39c0,.3.32.52.58.54a3.4,3.4,0,0,1,.63.08c.38.1.63.28.67.69s-.33.73-.47,1.07.43.94.71.42a1.47,1.47,0,0,0,.16-.54,2,2,0,0,1,.14-.74A2,2,0,0,1,92,111a4.9,4.9,0,0,1,1.52-.75,2.06,2.06,0,0,1,1.31.23,2.14,2.14,0,0,0,.87.29c.93,0,.18-.43,0-.48C95.07,110,94.3,109.77,94.67,108.94Z"/><path class="cls-9" d="M95.93,108.9a1.62,1.62,0,0,0,.44-1.83,1.81,1.81,0,0,0-3.27,1.5.41.41,0,0,0,.05.09l-2.23,1a1,1,0,0,0,0-.1,1.81,1.81,0,0,0-3.27,1.51,1.6,1.6,0,0,0,1.68.85,1.62,1.62,0,0,0-.45,1.84,1.82,1.82,0,0,0,3.28-1.51l-.05-.09,2.23-1a.69.69,0,0,0,0,.1,1.82,1.82,0,0,0,3.27-1.51A1.6,1.6,0,0,0,95.93,108.9Zm.21,2.07c-.41.34-1.08,0-1.48-.17a1.53,1.53,0,0,0-1.12-.22,5.18,5.18,0,0,0-1.11.54c-.45.26-1,.56-1,1.14a4,4,0,0,1-.17.9.77.77,0,0,1-1,.44c-.37-.17-.65-.48-.48-.92a5.36,5.36,0,0,1,.34-.62c.39-.71-.36-.75-.8-.81-.7-.1-1.19-.84-.77-1.32,0,0,0,0,0,0a.94.94,0,0,1,.63-.39c.45-.07.89.33,1.24.55a2.13,2.13,0,0,0,2.22-.2,3.61,3.61,0,0,0,1.23-1,5.55,5.55,0,0,0,.41-1.25.73.73,0,0,1,.86-.59.81.81,0,0,1,.58.9c0,.39-1.16,1.53-.45,1.78S97,110.24,96.14,111Z"/><path class="cls-9" d="M95.93,108.9a1.62,1.62,0,0,0,.44-1.83,1.81,1.81,0,0,0-3.27,1.5.41.41,0,0,0,.05.09l-2.23,1a1,1,0,0,0,0-.1,1.81,1.81,0,0,0-3.27,1.51,1.6,1.6,0,0,0,1.68.85,1.62,1.62,0,0,0-.45,1.84,1.82,1.82,0,0,0,3.28-1.51l-.05-.09,2.23-1a.69.69,0,0,0,0,.1,1.82,1.82,0,0,0,3.27-1.51A1.6,1.6,0,0,0,95.93,108.9Zm1.2,1.31a.94.94,0,0,1-.07.71,1.67,1.67,0,0,1-2,.59c-.43-.18-.53-.66-1-.65a3.57,3.57,0,0,0-1.17.42c-.4.2-.76.24-1,.85-.16.35,0,.75-.1,1.12a1.17,1.17,0,0,1-.79.78,1.23,1.23,0,0,1-1.55-.64,1.71,1.71,0,0,1,.18-1.23c.17-.35.13-.54-.3-.62a2,2,0,0,1-1.08-.37A1.18,1.18,0,0,1,88,109.9a1.46,1.46,0,0,1,1.78-.66,1,1,0,0,1,.64.46c.43.52,1.27.25,1.7,0,.64-.35,1.48-.6,1.57-1.4.07-.57-.2-.9.64-1.55a1.19,1.19,0,0,1,1.57.28c.51.83-.2,1.25-.39,1.88s.87.62,1.19.78A.88.88,0,0,1,97.13,110.21Z"/><path class="cls-43" d="M100.47,113.05a1.61,1.61,0,0,0,.44-1.84,1.82,1.82,0,0,0-3.27,1.51.41.41,0,0,0,0,.09l-2.23,1a.36.36,0,0,0,0-.09,1.81,1.81,0,0,0-3.27,1.5,1.6,1.6,0,0,0,1.68.86,1.62,1.62,0,0,0-.45,1.84,1.82,1.82,0,0,0,3.28-1.51l0-.09,2.23-1a.36.36,0,0,0,0,.09,1.81,1.81,0,0,0,3.27-1.5A1.6,1.6,0,0,0,100.47,113.05Z"/><path class="cls-44" d="M99.21,113.09c.12-.28,1.09-1.6.24-1.58-.54,0-.52.68-.65,1a2.34,2.34,0,0,1-.41.78,4.68,4.68,0,0,1-2.76,1.52,1.59,1.59,0,0,1-.95-.35,2.18,2.18,0,0,0-.92-.41.56.56,0,0,0-.52.39c0,.29.32.52.58.54a2.72,2.72,0,0,1,.63.08c.38.1.63.28.67.68s-.33.74-.47,1.08.43.94.71.42a1.47,1.47,0,0,0,.16-.54,2.12,2.12,0,0,1,.14-.75,2.09,2.09,0,0,1,.84-.88,4.9,4.9,0,0,1,1.52-.75,2.06,2.06,0,0,1,1.31.23,2.14,2.14,0,0,0,.87.29c.93,0,.18-.43,0-.49C99.61,114.17,98.84,113.92,99.21,113.09Z"/><path class="cls-9" d="M100.47,113.05a1.61,1.61,0,0,0,.44-1.84,1.82,1.82,0,0,0-3.27,1.51.41.41,0,0,0,0,.09l-2.23,1a.36.36,0,0,0,0-.09,1.81,1.81,0,0,0-3.27,1.5,1.6,1.6,0,0,0,1.68.86,1.62,1.62,0,0,0-.45,1.84,1.82,1.82,0,0,0,3.28-1.51l0-.09,2.23-1a.36.36,0,0,0,0,.09,1.81,1.81,0,0,0,3.27-1.5A1.6,1.6,0,0,0,100.47,113.05Zm.21,2.06c-.41.34-1.08,0-1.48-.17a1.58,1.58,0,0,0-1.12-.21,5.18,5.18,0,0,0-1.11.54c-.45.26-1,.56-1,1.13a3.77,3.77,0,0,1-.17.9.76.76,0,0,1-1,.45c-.37-.18-.65-.48-.47-.92a3.69,3.69,0,0,1,.33-.62c.39-.72-.36-.76-.8-.82-.7-.1-1.19-.83-.77-1.31v0a.91.91,0,0,1,.63-.39c.45-.07.89.33,1.24.55a2.13,2.13,0,0,0,2.22-.2,3.61,3.61,0,0,0,1.23-1,5.23,5.23,0,0,0,.41-1.25.73.73,0,0,1,.86-.59.8.8,0,0,1,.58.9c0,.39-1.16,1.53-.45,1.78S101.57,114.39,100.68,115.11Z"/><path class="cls-9" d="M100.47,113.05a1.61,1.61,0,0,0,.44-1.84,1.82,1.82,0,0,0-3.27,1.51.41.41,0,0,0,0,.09l-2.23,1a.36.36,0,0,0,0-.09,1.81,1.81,0,0,0-3.27,1.5,1.6,1.6,0,0,0,1.68.86,1.62,1.62,0,0,0-.45,1.84,1.82,1.82,0,0,0,3.28-1.51l0-.09,2.23-1a.36.36,0,0,0,0,.09,1.81,1.81,0,0,0,3.27-1.5A1.6,1.6,0,0,0,100.47,113.05Zm1.2,1.31a.91.91,0,0,1-.07.7,1.67,1.67,0,0,1-2,.6c-.43-.18-.53-.66-1-.65a3.43,3.43,0,0,0-1.17.42c-.41.2-.75.23-1,.85-.16.35,0,.75-.1,1.12a1.17,1.17,0,0,1-.79.78,1.24,1.24,0,0,1-1.55-.64,1.76,1.76,0,0,1,.18-1.23c.17-.35.13-.54-.29-.62a1.92,1.92,0,0,1-1.09-.38,1.16,1.16,0,0,1-.16-1.26,1.45,1.45,0,0,1,1.78-.66,1,1,0,0,1,.64.46c.43.52,1.27.25,1.7,0,.64-.34,1.49-.59,1.57-1.39.07-.57-.2-.9.63-1.55a1.21,1.21,0,0,1,1.59.28c.5.83-.21,1.25-.4,1.88s.87.62,1.19.78A.88.88,0,0,1,101.67,114.36Z"/><path class="cls-43" d="M88.58,110.31a1.62,1.62,0,0,0,.45-1.84A1.82,1.82,0,0,0,85.75,110l0,.09-2.23,1a.3.3,0,0,0,0-.1,1.81,1.81,0,0,0-3.27,1.5,1.6,1.6,0,0,0,1.68.86,1.61,1.61,0,0,0-.44,1.84,1.82,1.82,0,0,0,3.27-1.51.41.41,0,0,0,0-.09l2.23-1a.36.36,0,0,1,0,.09,1.82,1.82,0,0,0,3.28-1.5A1.62,1.62,0,0,0,88.58,110.31Z"/><path class="cls-44" d="M87.32,110.35c.13-.28,1.09-1.6.25-1.58-.54,0-.53.68-.65,1a2.19,2.19,0,0,1-.42.78,4.62,4.62,0,0,1-2.76,1.52,1.56,1.56,0,0,1-.94-.35,2.16,2.16,0,0,0-.93-.41.54.54,0,0,0-.51.39c0,.29.32.52.57.54a2.65,2.65,0,0,1,.63.08c.38.1.64.28.67.68s-.32.74-.46,1.08.43.94.7.42a1.3,1.3,0,0,0,.16-.54,2.12,2.12,0,0,1,.14-.75,2.06,2.06,0,0,1,.85-.88,4.85,4.85,0,0,1,1.51-.75,2.09,2.09,0,0,1,1.32.23,2.09,2.09,0,0,0,.87.29c.92,0,.18-.43,0-.49C87.73,111.43,87,111.18,87.32,110.35Z"/><path class="cls-9" d="M88.58,110.31a1.62,1.62,0,0,0,.45-1.84A1.82,1.82,0,0,0,85.75,110l0,.09-2.23,1a.3.3,0,0,0,0-.1,1.81,1.81,0,0,0-3.27,1.5,1.6,1.6,0,0,0,1.68.86,1.61,1.61,0,0,0-.44,1.84,1.82,1.82,0,0,0,3.27-1.51.41.41,0,0,0,0-.09l2.23-1a.36.36,0,0,1,0,.09,1.82,1.82,0,0,0,3.28-1.5A1.62,1.62,0,0,0,88.58,110.31Zm.22,2.06c-.42.35-1.09,0-1.49-.16A1.51,1.51,0,0,0,86.2,112a5,5,0,0,0-1.11.54c-.45.26-1,.56-1,1.13a3.34,3.34,0,0,1-.17.9.76.76,0,0,1-1,.45c-.38-.18-.66-.48-.48-.92a6.08,6.08,0,0,1,.33-.62c.4-.72-.36-.75-.8-.82-.69-.09-1.18-.83-.77-1.31,0,0,0,0,0,0a.93.93,0,0,1,.63-.39c.45-.07.9.33,1.24.55a2.14,2.14,0,0,0,2.23-.2,3.48,3.48,0,0,0,1.22-1,4.82,4.82,0,0,0,.41-1.25.74.74,0,0,1,.86-.59.81.81,0,0,1,.59.9c0,.39-1.17,1.53-.45,1.78S89.68,111.65,88.8,112.37Z"/><path class="cls-9" d="M88.58,110.31a1.62,1.62,0,0,0,.45-1.84A1.82,1.82,0,0,0,85.75,110l0,.09-2.23,1a.3.3,0,0,0,0-.1,1.81,1.81,0,0,0-3.27,1.5,1.6,1.6,0,0,0,1.68.86,1.61,1.61,0,0,0-.44,1.84,1.82,1.82,0,0,0,3.27-1.51.41.41,0,0,0,0-.09l2.23-1a.36.36,0,0,1,0,.09,1.82,1.82,0,0,0,3.28-1.5A1.62,1.62,0,0,0,88.58,110.31Zm1.2,1.31a.87.87,0,0,1-.07.7,1.66,1.66,0,0,1-2,.6c-.44-.18-.54-.66-1-.65a3.29,3.29,0,0,0-1.17.42c-.41.2-.76.23-1,.85-.16.35,0,.75-.1,1.12a1.19,1.19,0,0,1-.79.78A1.23,1.23,0,0,1,82,114.8a1.66,1.66,0,0,1,.18-1.23c.17-.35.12-.54-.3-.62a1.88,1.88,0,0,1-1.08-.38,1.14,1.14,0,0,1-.16-1.26,1.45,1.45,0,0,1,1.78-.66,1,1,0,0,1,.64.46c.43.52,1.27.25,1.7,0,.64-.34,1.48-.59,1.57-1.39.06-.57-.21-.9.63-1.55a1.2,1.2,0,0,1,1.58.28c.5.83-.21,1.25-.39,1.88s.87.62,1.18.78A.85.85,0,0,1,89.78,111.62Z"/><path class="cls-43" d="M106,118.23a1.6,1.6,0,0,0,1.88-.18,1.72,1.72,0,0,0-.1-2.4,1.7,1.7,0,0,0-2.39-.2.46.46,0,0,0-.07.07l-1.7-1.77.08-.07a1.82,1.82,0,0,0-2.49-2.6,1.62,1.62,0,0,0-.27,1.87,1.61,1.61,0,0,0-1.88.18,1.82,1.82,0,0,0,2.5,2.6l.07-.07,1.69,1.77a.46.46,0,0,0-.07.07,1.69,1.69,0,0,0,.1,2.39,1.71,1.71,0,0,0,2.39.21A1.61,1.61,0,0,0,106,118.23Z"/><path class="cls-44" d="M105.5,117.05c.31,0,1.87.51,1.57-.28-.19-.51-.81-.28-1.18-.28a2.34,2.34,0,0,1-.87-.14,4.7,4.7,0,0,1-2.35-2.11,1.74,1.74,0,0,1,0-1,2,2,0,0,0,.09-1,.56.56,0,0,0-.53-.37c-.3,0-.39.47-.32.72a4.4,4.4,0,0,1,.13.63.75.75,0,0,1-.43.85c-.38.16-.8-.07-1.17-.08s-.75.7-.17.79a1.22,1.22,0,0,0,.57,0,2.08,2.08,0,0,1,.74-.11,2,2,0,0,1,1.11.51,4.89,4.89,0,0,1,1.21,1.19,2,2,0,0,1,.21,1.31,2.19,2.19,0,0,0,0,.92c.33.87.46,0,.47-.15C104.61,117.79,104.6,117,105.5,117.05Z"/><path class="cls-9" d="M106,118.23a1.6,1.6,0,0,0,1.88-.18,1.72,1.72,0,0,0-.1-2.4,1.7,1.7,0,0,0-2.39-.2.46.46,0,0,0-.07.07l-1.7-1.77.08-.07a1.82,1.82,0,0,0-2.49-2.6,1.62,1.62,0,0,0-.27,1.87,1.61,1.61,0,0,0-1.88.18,1.82,1.82,0,0,0,2.5,2.6l.07-.07,1.69,1.77a.46.46,0,0,0-.07.07,1.69,1.69,0,0,0,.1,2.39,1.71,1.71,0,0,0,2.39.21A1.61,1.61,0,0,0,106,118.23Zm-1.88.88c-.46-.28-.37-1-.33-1.46a1.54,1.54,0,0,0-.16-1.13,5.12,5.12,0,0,0-.87-.87,1.69,1.69,0,0,0-1.41-.61,4,4,0,0,1-.91.14.77.77,0,0,1-.76-.85c0-.41.24-.77.71-.75a5.37,5.37,0,0,1,.7.11c.81.14.59-.58.51-1-.14-.69.4-1.39,1-1.16h0a.92.92,0,0,1,.58.46c.21.41,0,1-.12,1.36a2.1,2.1,0,0,0,.92,2,3.58,3.58,0,0,0,1.37.83,5.29,5.29,0,0,0,1.32,0,.75.75,0,0,1,.84.62.81.81,0,0,1-.66.85c-.38.1-1.84-.6-1.83.16C105,118.4,105,119.7,104.07,119.11Z"/><path class="cls-9" d="M106,118.23a1.6,1.6,0,0,0,1.88-.18,1.72,1.72,0,0,0-.1-2.4,1.7,1.7,0,0,0-2.39-.2.46.46,0,0,0-.07.07l-1.7-1.77.08-.07a1.82,1.82,0,0,0-2.49-2.6,1.62,1.62,0,0,0-.27,1.87,1.61,1.61,0,0,0-1.88.18,1.82,1.82,0,0,0,2.5,2.6l.07-.07,1.69,1.77a.46.46,0,0,0-.07.07,1.69,1.69,0,0,0,.1,2.39,1.71,1.71,0,0,0,2.39.21A1.61,1.61,0,0,0,106,118.23Zm-.85,1.56a.94.94,0,0,1-.69.17,1.67,1.67,0,0,1-1.22-1.72c0-.47.45-.73.27-1.2a3.3,3.3,0,0,0-.78-1c-.32-.32-.46-.64-1.14-.71-.38,0-.71.26-1.09.27a1.15,1.15,0,0,1-1-.49,1.23,1.23,0,0,1,.09-1.67,1.7,1.7,0,0,1,1.22-.23c.39.05.56-.06.5-.49a1.85,1.85,0,0,1,0-1.14,1.13,1.13,0,0,1,1.14-.56,1.43,1.43,0,0,1,1.2,1.46,1,1,0,0,1-.22.76c-.35.57.18,1.28.54,1.61.53.49,1,1.21,1.83,1,.56-.13.79-.49,1.67.09a1.2,1.2,0,0,1,.25,1.59c-.62.74-1.25.21-1.9.24s-.3,1-.35,1.37A.84.84,0,0,1,105.1,119.79Z"/><path class="cls-43" d="M102.26,111.94a1.6,1.6,0,0,0,1.88-.18,1.82,1.82,0,0,0-2.49-2.6.27.27,0,0,0-.07.08l-1.7-1.78.08-.06a1.82,1.82,0,0,0-2.49-2.61,1.61,1.61,0,0,0-.26,1.87,1.62,1.62,0,0,0-1.88.18,1.82,1.82,0,0,0,2.49,2.61l.07-.08,1.69,1.77a.46.46,0,0,1-.07.07,1.81,1.81,0,0,0,2.49,2.6A1.61,1.61,0,0,0,102.26,111.94Z"/><path class="cls-44" d="M101.81,110.76c.31,0,1.87.51,1.57-.28-.18-.51-.81-.28-1.18-.28a2,2,0,0,1-.87-.14A4.55,4.55,0,0,1,99,108a1.56,1.56,0,0,1,0-1,2.19,2.19,0,0,0,.08-1,.54.54,0,0,0-.53-.36c-.3,0-.39.47-.32.71a3.53,3.53,0,0,1,.13.63.74.74,0,0,1-.43.85c-.37.17-.8-.06-1.17-.08s-.75.71-.16.8a1.33,1.33,0,0,0,.56,0,2.13,2.13,0,0,1,.75-.11,2.06,2.06,0,0,1,1.11.51,5,5,0,0,1,1.2,1.19,2,2,0,0,1,.21,1.32,2.15,2.15,0,0,0,0,.91c.34.87.47,0,.47-.14C100.92,111.5,100.91,110.68,101.81,110.76Z"/><path class="cls-9" d="M102.26,111.94a1.6,1.6,0,0,0,1.88-.18,1.82,1.82,0,0,0-2.49-2.6.27.27,0,0,0-.07.08l-1.7-1.78.08-.06a1.82,1.82,0,0,0-2.49-2.61,1.61,1.61,0,0,0-.26,1.87,1.62,1.62,0,0,0-1.88.18,1.82,1.82,0,0,0,2.49,2.61l.07-.08,1.69,1.77a.46.46,0,0,1-.07.07,1.81,1.81,0,0,0,2.49,2.6A1.61,1.61,0,0,0,102.26,111.94Zm-1.88.88c-.46-.28-.37-1-.33-1.46a1.54,1.54,0,0,0-.16-1.13,5.51,5.51,0,0,0-.87-.87,1.65,1.65,0,0,0-1.41-.6,4,4,0,0,1-.9.13.76.76,0,0,1-.77-.84c0-.41.24-.78.71-.75a4.08,4.08,0,0,1,.7.11c.81.14.6-.59.51-1-.13-.69.4-1.4,1-1.16h0a1,1,0,0,1,.58.47c.21.4,0,1-.12,1.35a2.17,2.17,0,0,0,.92,2,3.63,3.63,0,0,0,1.37.82,5.3,5.3,0,0,0,1.32,0,.73.73,0,0,1,.84.62.8.8,0,0,1-.66.84c-.38.11-1.83-.59-1.83.16S101.35,113.42,100.38,112.82Z"/><path class="cls-9" d="M102.26,111.94a1.6,1.6,0,0,0,1.88-.18,1.82,1.82,0,0,0-2.49-2.6.27.27,0,0,0-.07.08l-1.7-1.78.08-.06a1.82,1.82,0,0,0-2.49-2.61,1.61,1.61,0,0,0-.26,1.87,1.62,1.62,0,0,0-1.88.18,1.82,1.82,0,0,0,2.49,2.61l.07-.08,1.69,1.77a.46.46,0,0,1-.07.07,1.81,1.81,0,0,0,2.49,2.6A1.61,1.61,0,0,0,102.26,111.94Zm-.85,1.57a.92.92,0,0,1-.68.16A1.67,1.67,0,0,1,99.5,112c0-.47.45-.72.28-1.2a3.43,3.43,0,0,0-.78-1c-.32-.33-.47-.65-1.15-.71-.38,0-.7.25-1.09.27a1.18,1.18,0,0,1-1-.49,1.24,1.24,0,0,1,.1-1.68,1.67,1.67,0,0,1,1.22-.22c.38,0,.55-.07.49-.49a1.88,1.88,0,0,1,0-1.15,1.15,1.15,0,0,1,1.14-.56,1.46,1.46,0,0,1,1.21,1.47,1,1,0,0,1-.23.75c-.35.58.18,1.28.54,1.61.54.5,1.05,1.21,1.83,1,.56-.12.79-.49,1.68.09a1.21,1.21,0,0,1,.24,1.59c-.62.74-1.24.21-1.9.24s-.3,1-.35,1.37A.86.86,0,0,1,101.41,113.51Z"/><path class="cls-43" d="M111.1,113.66a1.6,1.6,0,0,0,1.42-1.24,1.81,1.81,0,0,0-3.54-.66s0,.07,0,.1l-2.41-.45a.3.3,0,0,0,0-.1,1.81,1.81,0,0,0-3.54-.65,1.6,1.6,0,0,0,.88,1.67,1.59,1.59,0,0,0-1.42,1.24,1.81,1.81,0,0,0,3.54.66.34.34,0,0,0,0-.1l2.42.44,0,.1a1.82,1.82,0,0,0,3.55.66A1.62,1.62,0,0,0,111.1,113.66Z"/><path class="cls-44" d="M110.05,113c.27-.16,1.81-.68,1.11-1.15-.45-.3-.82.25-1.12.47a2.34,2.34,0,0,1-.79.39,4.61,4.61,0,0,1-3.14-.35,1.66,1.66,0,0,1-.57-.82,2.11,2.11,0,0,0-.51-.87.56.56,0,0,0-.65,0c-.21.21,0,.61.16.77a2.73,2.73,0,0,1,.47.43.74.74,0,0,1,.15.94c-.2.35-.68.41-1,.62s-.19,1,.34.74a1.24,1.24,0,0,0,.44-.35,2.26,2.26,0,0,1,.54-.53,2.06,2.06,0,0,1,1.2-.23,5,5,0,0,1,1.67.26,2,2,0,0,1,.94,1,2.07,2.07,0,0,0,.55.73c.77.51.39-.24.29-.39C109.76,114.09,109.27,113.43,110.05,113Z"/><path class="cls-9" d="M111.1,113.66a1.6,1.6,0,0,0,1.42-1.24,1.81,1.81,0,0,0-3.54-.66s0,.07,0,.1l-2.41-.45a.3.3,0,0,0,0-.1,1.81,1.81,0,0,0-3.54-.65,1.6,1.6,0,0,0,.88,1.67,1.59,1.59,0,0,0-1.42,1.24,1.81,1.81,0,0,0,3.54.66.34.34,0,0,0,0-.1l2.42.44,0,.1a1.82,1.82,0,0,0,3.55.66A1.62,1.62,0,0,0,111.1,113.66Zm-1,1.81c-.53,0-.89-.61-1.12-1a1.49,1.49,0,0,0-.78-.82,5.1,5.1,0,0,0-1.22-.2,1.68,1.68,0,0,0-1.5.33,3.63,3.63,0,0,1-.66.64.76.76,0,0,1-1.11-.24c-.2-.36-.26-.77.14-1,.2-.13.42-.21.63-.32.74-.35.14-.82-.18-1.12-.51-.48-.49-1.36.12-1.52h0a1,1,0,0,1,.75,0c.4.21.53.79.69,1.17a2.15,2.15,0,0,0,1.94,1.12,3.57,3.57,0,0,0,1.59-.14,5.12,5.12,0,0,0,1-.78.74.74,0,0,1,1,0,.81.81,0,0,1,0,1.07c-.25.31-1.84.59-1.4,1.2S111.23,115.39,110.09,115.47Z"/><path class="cls-9" d="M111.1,113.66a1.6,1.6,0,0,0,1.42-1.24,1.81,1.81,0,0,0-3.54-.66s0,.07,0,.1l-2.41-.45a.3.3,0,0,0,0-.1,1.81,1.81,0,0,0-3.54-.65,1.6,1.6,0,0,0,.88,1.67,1.59,1.59,0,0,0-1.42,1.24,1.81,1.81,0,0,0,3.54.66.34.34,0,0,0,0-.1l2.42.44,0,.1a1.82,1.82,0,0,0,3.55.66A1.62,1.62,0,0,0,111.1,113.66Zm.23,1.76a.93.93,0,0,1-.46.54,1.68,1.68,0,0,1-2-.68c-.25-.4-.06-.85-.48-1.13a3.11,3.11,0,0,0-1.19-.33,1.55,1.55,0,0,0-1.35.09c-.33.19-.42.62-.72.85a1.18,1.18,0,0,1-1.1.19,1.25,1.25,0,0,1-.9-1.42,1.7,1.7,0,0,1,.86-.89c.34-.19.41-.38.12-.69s-.61-.52-.67-.93a1.15,1.15,0,0,1,.59-1.12,1.44,1.44,0,0,1,1.84.49,1,1,0,0,1,.26.74c.05.67.89.93,1.38,1,.72.09,1.55.37,2.09-.23.38-.43.35-.86,1.41-.91a1.19,1.19,0,0,1,1.12,1.15c-.06,1-.88.9-1.4,1.3s.35,1,.52,1.32A.89.89,0,0,1,111.33,115.42Z"/><path class="cls-43" d="M102.69,117.42a1.6,1.6,0,0,0,1.42-1.24,1.81,1.81,0,0,0-3.54-.66.38.38,0,0,0,0,.1l-2.41-.44a.3.3,0,0,1,0-.1,1.81,1.81,0,0,0-3.54-.66,1.6,1.6,0,0,0,.88,1.67,1.6,1.6,0,0,0-1.42,1.24,1.81,1.81,0,0,0,3.54.66.34.34,0,0,0,0-.1l2.41.45s0,.06,0,.1a1.81,1.81,0,0,0,3.54.65A1.6,1.6,0,0,0,102.69,117.42Z"/><path class="cls-44" d="M101.64,116.73c.26-.16,1.81-.68,1.11-1.15-.45-.3-.82.25-1.12.47a2.25,2.25,0,0,1-.79.39,4.66,4.66,0,0,1-3.14-.34,1.66,1.66,0,0,1-.57-.83,2,2,0,0,0-.52-.87.54.54,0,0,0-.64,0c-.21.21,0,.61.16.77a3.15,3.15,0,0,1,.47.43.74.74,0,0,1,.15.94c-.21.35-.69.42-1,.62s-.19,1,.33.74a1.28,1.28,0,0,0,.45-.35,2.06,2.06,0,0,1,.54-.52,2,2,0,0,1,1.2-.24,5,5,0,0,1,1.67.26,2,2,0,0,1,.94,1,2.08,2.08,0,0,0,.54.73c.78.52.4-.24.3-.38C101.35,117.85,100.86,117.19,101.64,116.73Z"/><path class="cls-9" d="M102.69,117.42a1.6,1.6,0,0,0,1.42-1.24,1.81,1.81,0,0,0-3.54-.66.38.38,0,0,0,0,.1l-2.41-.44a.3.3,0,0,1,0-.1,1.81,1.81,0,0,0-3.54-.66,1.6,1.6,0,0,0,.88,1.67,1.6,1.6,0,0,0-1.42,1.24,1.81,1.81,0,0,0,3.54.66.34.34,0,0,0,0-.1l2.41.45s0,.06,0,.1a1.81,1.81,0,0,0,3.54.65A1.6,1.6,0,0,0,102.69,117.42Zm-1,1.81c-.54,0-.9-.61-1.12-1a1.58,1.58,0,0,0-.79-.82,4.94,4.94,0,0,0-1.22-.2,1.66,1.66,0,0,0-1.49.33,3.63,3.63,0,0,1-.66.64.75.75,0,0,1-1.11-.24c-.21-.36-.26-.77.14-1a4.65,4.65,0,0,1,.63-.32c.73-.36.14-.82-.19-1.13-.51-.48-.49-1.36.13-1.52h0a1,1,0,0,1,.74,0c.41.21.54.79.69,1.17a2.14,2.14,0,0,0,1.94,1.12,3.69,3.69,0,0,0,1.59-.13,5.22,5.22,0,0,0,1.06-.79.73.73,0,0,1,1,0,.8.8,0,0,1,0,1.07c-.24.31-1.83.59-1.39,1.2S102.82,119.15,101.68,119.23Z"/><path class="cls-9" d="M102.69,117.42a1.6,1.6,0,0,0,1.42-1.24,1.81,1.81,0,0,0-3.54-.66.38.38,0,0,0,0,.1l-2.41-.44a.3.3,0,0,1,0-.1,1.81,1.81,0,0,0-3.54-.66,1.6,1.6,0,0,0,.88,1.67,1.6,1.6,0,0,0-1.42,1.24,1.81,1.81,0,0,0,3.54.66.34.34,0,0,0,0-.1l2.41.45s0,.06,0,.1a1.81,1.81,0,0,0,3.54.65A1.6,1.6,0,0,0,102.69,117.42Zm.23,1.77a.91.91,0,0,1-.46.53,1.67,1.67,0,0,1-2-.68c-.25-.4-.06-.85-.48-1.13a3.51,3.51,0,0,0-1.2-.33,1.53,1.53,0,0,0-1.34.09c-.33.19-.42.62-.72.86a1.2,1.2,0,0,1-1.1.18c-.54-.18-1.11-.78-.9-1.41a1.68,1.68,0,0,1,.86-.9c.34-.19.41-.37.11-.69s-.61-.52-.67-.92a1.19,1.19,0,0,1,.6-1.13,1.44,1.44,0,0,1,1.84.49,1.05,1.05,0,0,1,.26.74c0,.67.89.93,1.38,1,.72.09,1.55.37,2.08-.23.39-.43.36-.86,1.41-.9a1.19,1.19,0,0,1,1.13,1.14c-.07,1-.89.9-1.4,1.3s.35,1,.52,1.32A.91.91,0,0,1,102.92,119.19Z"/><path class="cls-43" d="M99.18,112.42a1.62,1.62,0,0,0,1.42-1.25,1.82,1.82,0,0,0-3.55-.66s0,.07,0,.11l-2.41-.45a.36.36,0,0,0,0-.1,1.81,1.81,0,0,0-3.54-.66,1.61,1.61,0,0,0,.88,1.67,1.61,1.61,0,0,0-1.42,1.25,1.81,1.81,0,0,0,3.54.65s0-.06,0-.1l2.41.45,0,.1A1.72,1.72,0,0,0,98,115.32a1.7,1.7,0,0,0,2.06-1.23A1.61,1.61,0,0,0,99.18,112.42Z"/><path class="cls-44" d="M98.12,111.72c.27-.15,1.82-.68,1.11-1.15-.45-.3-.82.25-1.12.47a2.09,2.09,0,0,1-.79.39,4.63,4.63,0,0,1-3.13-.34,1.62,1.62,0,0,1-.57-.83,2.27,2.27,0,0,0-.52-.87.57.57,0,0,0-.65,0c-.21.21,0,.61.16.77a3.87,3.87,0,0,1,.47.43.75.75,0,0,1,.15,1c-.2.35-.68.41-1,.61s-.19,1,.34.75a1.36,1.36,0,0,0,.44-.35,2.09,2.09,0,0,1,.54-.53,2,2,0,0,1,1.2-.23,4.8,4.8,0,0,1,1.68.26,2,2,0,0,1,.93.94,2.27,2.27,0,0,0,.55.74c.77.51.39-.25.29-.39C97.83,112.84,97.34,112.18,98.12,111.72Z"/><path class="cls-9" d="M99.18,112.42a1.62,1.62,0,0,0,1.42-1.25,1.82,1.82,0,0,0-3.55-.66s0,.07,0,.11l-2.41-.45a.36.36,0,0,0,0-.1,1.81,1.81,0,0,0-3.54-.66,1.61,1.61,0,0,0,.88,1.67,1.61,1.61,0,0,0-1.42,1.25,1.81,1.81,0,0,0,3.54.65s0-.06,0-.1l2.41.45,0,.1A1.72,1.72,0,0,0,98,115.32a1.7,1.7,0,0,0,2.06-1.23A1.61,1.61,0,0,0,99.18,112.42Zm-1,1.81c-.53,0-.89-.61-1.12-1a1.53,1.53,0,0,0-.78-.82,5.08,5.08,0,0,0-1.22-.19,1.65,1.65,0,0,0-1.5.33,4.3,4.3,0,0,1-.65.63.76.76,0,0,1-1.12-.23c-.2-.36-.26-.77.14-1a5.33,5.33,0,0,1,.63-.32c.74-.35.14-.82-.18-1.12-.51-.49-.49-1.37.13-1.52h0a1,1,0,0,1,.74,0c.4.21.53.79.69,1.17a2.14,2.14,0,0,0,1.94,1.11,3.42,3.42,0,0,0,1.59-.13,5.13,5.13,0,0,0,1.06-.79.73.73,0,0,1,1,0,.81.81,0,0,1,0,1.07c-.24.3-1.84.58-1.39,1.19S99.3,114.14,98.16,114.23Z"/><path class="cls-9" d="M99.18,112.42a1.62,1.62,0,0,0,1.42-1.25,1.82,1.82,0,0,0-3.55-.66s0,.07,0,.11l-2.41-.45a.36.36,0,0,0,0-.1,1.81,1.81,0,0,0-3.54-.66,1.61,1.61,0,0,0,.88,1.67,1.61,1.61,0,0,0-1.42,1.25,1.81,1.81,0,0,0,3.54.65s0-.06,0-.1l2.41.45,0,.1A1.72,1.72,0,0,0,98,115.32a1.7,1.7,0,0,0,2.06-1.23A1.61,1.61,0,0,0,99.18,112.42Zm.22,1.76a.88.88,0,0,1-.46.53,1.66,1.66,0,0,1-2-.68c-.25-.39-.06-.84-.47-1.13a3.57,3.57,0,0,0-1.2-.33,1.6,1.6,0,0,0-1.35.1c-.32.19-.42.62-.72.85a1.16,1.16,0,0,1-1.09.19,1.23,1.23,0,0,1-.9-1.42,1.66,1.66,0,0,1,.85-.9c.34-.19.41-.37.12-.68s-.61-.53-.67-.93a1.15,1.15,0,0,1,.59-1.12,1.45,1.45,0,0,1,1.84.48,1,1,0,0,1,.26.74c.06.68.9.94,1.38,1,.72.09,1.56.36,2.09-.24.38-.43.35-.85,1.41-.9a1.2,1.2,0,0,1,1.13,1.14c-.07,1-.89.9-1.41,1.31s.36,1,.52,1.32A.8.8,0,0,1,99.4,114.18Z"/><path class="cls-43" d="M121.18,111.07a1.61,1.61,0,0,0,1.42-1.24,1.81,1.81,0,0,0-3.54-.66s0,.07,0,.1l-2.41-.44,0-.11a1.82,1.82,0,0,0-3.55-.65,1.61,1.61,0,0,0,.88,1.67,1.61,1.61,0,0,0-1.42,1.24,1.82,1.82,0,0,0,3.55.66s0-.07,0-.1l2.41.45a.29.29,0,0,0,0,.09,1.81,1.81,0,0,0,3.54.66A1.61,1.61,0,0,0,121.18,111.07Z"/><path class="cls-44" d="M120.12,110.38c.27-.16,1.82-.68,1.12-1.15-.45-.3-.83.25-1.13.47a2.25,2.25,0,0,1-.79.39,4.58,4.58,0,0,1-3.13-.35,1.59,1.59,0,0,1-.57-.82,2.13,2.13,0,0,0-.52-.87.56.56,0,0,0-.65,0c-.21.21,0,.6.16.77a2.79,2.79,0,0,1,.48.43.75.75,0,0,1,.15.94c-.21.35-.69.41-1,.62s-.19,1,.33.74a1.24,1.24,0,0,0,.44-.35,2.22,2.22,0,0,1,.54-.52,2,2,0,0,1,1.2-.24,5,5,0,0,1,1.68.26,2.06,2.06,0,0,1,.94,1,2.17,2.17,0,0,0,.54.73c.78.51.4-.24.29-.39C119.83,111.49,119.35,110.84,120.12,110.38Z"/><path class="cls-9" d="M121.18,111.07a1.61,1.61,0,0,0,1.42-1.24,1.81,1.81,0,0,0-3.54-.66s0,.07,0,.1l-2.41-.44,0-.11a1.82,1.82,0,0,0-3.55-.65,1.61,1.61,0,0,0,.88,1.67,1.61,1.61,0,0,0-1.42,1.24,1.82,1.82,0,0,0,3.55.66s0-.07,0-.1l2.41.45a.29.29,0,0,0,0,.09,1.81,1.81,0,0,0,3.54.66A1.61,1.61,0,0,0,121.18,111.07Zm-1,1.81c-.54,0-.9-.61-1.12-1a1.58,1.58,0,0,0-.79-.82,5,5,0,0,0-1.22-.2,1.68,1.68,0,0,0-1.5.33,3.58,3.58,0,0,1-.65.64.77.77,0,0,1-1.12-.24c-.2-.36-.26-.77.14-1a6.42,6.42,0,0,1,.64-.33c.73-.35.13-.82-.19-1.12-.51-.48-.49-1.36.13-1.52h0a1,1,0,0,1,.74,0c.4.21.54.79.69,1.17a2.13,2.13,0,0,0,1.94,1.12,3.56,3.56,0,0,0,1.59-.14,5.47,5.47,0,0,0,1.06-.78.73.73,0,0,1,1,0,.81.81,0,0,1,0,1.07c-.24.31-1.84.59-1.39,1.2S121.3,112.8,120.17,112.88Z"/><path class="cls-9" d="M121.18,111.07a1.61,1.61,0,0,0,1.42-1.24,1.81,1.81,0,0,0-3.54-.66s0,.07,0,.1l-2.41-.44,0-.11a1.82,1.82,0,0,0-3.55-.65,1.61,1.61,0,0,0,.88,1.67,1.61,1.61,0,0,0-1.42,1.24,1.82,1.82,0,0,0,3.55.66s0-.07,0-.1l2.41.45a.29.29,0,0,0,0,.09,1.81,1.81,0,0,0,3.54.66A1.61,1.61,0,0,0,121.18,111.07Zm.22,1.76a.87.87,0,0,1-.46.54,1.66,1.66,0,0,1-2-.68c-.26-.4-.07-.85-.48-1.13a3.16,3.16,0,0,0-1.2-.33,1.53,1.53,0,0,0-1.34.09c-.33.19-.43.62-.73.85a1.16,1.16,0,0,1-1.09.19,1.23,1.23,0,0,1-.9-1.42,1.72,1.72,0,0,1,.85-.89c.35-.19.42-.38.12-.69s-.61-.52-.67-.93a1.16,1.16,0,0,1,.6-1.12,1.43,1.43,0,0,1,1.83.49.94.94,0,0,1,.26.74c.06.67.9.93,1.38,1,.72.09,1.56.37,2.09-.23.38-.43.35-.86,1.41-.91a1.21,1.21,0,0,1,1.13,1.15c-.07,1-.89.9-1.4,1.3s.35,1,.52,1.32A.84.84,0,0,1,121.4,112.83Z"/><path class="cls-43" d="M109,109a1.61,1.61,0,0,0,1.42-1.25,1.81,1.81,0,0,0-3.54-.65.34.34,0,0,0,0,.1l-2.42-.45,0-.1a1.81,1.81,0,0,0-3.54-.65,1.6,1.6,0,0,0,.88,1.67,1.58,1.58,0,0,0-1.42,1.24,1.81,1.81,0,0,0,3.54.66s0-.07,0-.1l2.41.44s0,.07,0,.1a1.81,1.81,0,0,0,3.54.66A1.6,1.6,0,0,0,109,109Z"/><path class="cls-44" d="M107.93,108.3c.26-.16,1.81-.69,1.11-1.15-.45-.3-.82.25-1.12.46a2.27,2.27,0,0,1-.79.4,4.6,4.6,0,0,1-3.14-.35,1.59,1.59,0,0,1-.57-.82,2,2,0,0,0-.52-.87.54.54,0,0,0-.64,0c-.21.21,0,.6.16.77a3.15,3.15,0,0,1,.47.43.74.74,0,0,1,.15.94c-.21.35-.69.41-1,.62s-.19,1,.33.74a1.19,1.19,0,0,0,.45-.35,2.09,2.09,0,0,1,.54-.53,2.06,2.06,0,0,1,1.2-.23,5,5,0,0,1,1.67.26,2,2,0,0,1,.94,1,2.07,2.07,0,0,0,.55.73c.77.51.39-.24.29-.39C107.64,109.42,107.15,108.76,107.93,108.3Z"/><path class="cls-9" d="M109,109a1.61,1.61,0,0,0,1.42-1.25,1.81,1.81,0,0,0-3.54-.65.34.34,0,0,0,0,.1l-2.42-.45,0-.1a1.81,1.81,0,0,0-3.54-.65,1.6,1.6,0,0,0,.88,1.67,1.58,1.58,0,0,0-1.42,1.24,1.81,1.81,0,0,0,3.54.66s0-.07,0-.1l2.41.44s0,.07,0,.1a1.81,1.81,0,0,0,3.54.66A1.6,1.6,0,0,0,109,109Zm-1,1.81c-.54,0-.9-.61-1.12-1a1.55,1.55,0,0,0-.79-.82,4.94,4.94,0,0,0-1.21-.2,1.67,1.67,0,0,0-1.5.33,4,4,0,0,1-.66.64.76.76,0,0,1-1.11-.24c-.21-.36-.26-.77.14-1a6.19,6.19,0,0,1,.63-.32c.73-.35.14-.82-.19-1.12-.51-.48-.49-1.36.13-1.52h0a1,1,0,0,1,.74,0c.41.21.54.79.69,1.17a2.17,2.17,0,0,0,1.94,1.12,3.55,3.55,0,0,0,1.59-.14,4.92,4.92,0,0,0,1.06-.78.73.73,0,0,1,1,0,.79.79,0,0,1,0,1.07c-.24.31-1.83.59-1.39,1.2S109.1,110.72,108,110.8Z"/><path class="cls-9" d="M109,109a1.61,1.61,0,0,0,1.42-1.25,1.81,1.81,0,0,0-3.54-.65.34.34,0,0,0,0,.1l-2.42-.45,0-.1a1.81,1.81,0,0,0-3.54-.65,1.6,1.6,0,0,0,.88,1.67,1.58,1.58,0,0,0-1.42,1.24,1.81,1.81,0,0,0,3.54.66s0-.07,0-.1l2.41.44s0,.07,0,.1a1.81,1.81,0,0,0,3.54.66A1.6,1.6,0,0,0,109,109Zm.23,1.76a.93.93,0,0,1-.46.54,1.67,1.67,0,0,1-2-.68c-.26-.4-.06-.85-.48-1.13a3.11,3.11,0,0,0-1.2-.33,1.53,1.53,0,0,0-1.34.09c-.33.19-.42.62-.73.85a1.15,1.15,0,0,1-1.09.19,1.24,1.24,0,0,1-.9-1.42,1.75,1.75,0,0,1,.86-.9c.34-.18.41-.37.12-.68s-.62-.52-.68-.93a1.18,1.18,0,0,1,.6-1.12,1.44,1.44,0,0,1,1.84.49,1,1,0,0,1,.26.74c0,.67.89.93,1.38,1,.72.09,1.55.37,2.08-.23.39-.43.36-.86,1.41-.91a1.21,1.21,0,0,1,1.13,1.15c-.06,1-.89.9-1.4,1.3s.35,1,.52,1.32A.89.89,0,0,1,109.21,110.75Z"/><path class="cls-43" d="M113.24,116.74a1.62,1.62,0,0,0,1.42-1.25,1.82,1.82,0,0,0-3.55-.66.41.41,0,0,1,0,.11l-2.41-.45a.36.36,0,0,0,0-.1,1.81,1.81,0,0,0-3.54-.66,1.61,1.61,0,0,0,.88,1.67,1.61,1.61,0,0,0-1.42,1.25,1.81,1.81,0,0,0,3.54.65s0-.06,0-.1l2.41.45a.36.36,0,0,0,0,.1,1.81,1.81,0,0,0,3.54.66A1.61,1.61,0,0,0,113.24,116.74Z"/><path class="cls-44" d="M112.18,116c.27-.15,1.82-.68,1.12-1.15-.45-.3-.83.25-1.13.47a2.09,2.09,0,0,1-.79.39,4.63,4.63,0,0,1-3.13-.34,1.62,1.62,0,0,1-.57-.83,2.27,2.27,0,0,0-.52-.87.56.56,0,0,0-.65,0c-.21.21,0,.61.16.77a4.91,4.91,0,0,1,.48.43.76.76,0,0,1,.14.95c-.2.35-.68.41-1,.61s-.19,1,.33.75a1.51,1.51,0,0,0,.44-.35,2.26,2.26,0,0,1,.54-.53,2,2,0,0,1,1.2-.23,5,5,0,0,1,1.68.25,2.09,2.09,0,0,1,.93,1,2.27,2.27,0,0,0,.55.74c.77.51.39-.24.29-.39C111.89,117.16,111.4,116.5,112.18,116Z"/><path class="cls-9" d="M113.24,116.74a1.62,1.62,0,0,0,1.42-1.25,1.82,1.82,0,0,0-3.55-.66.41.41,0,0,1,0,.11l-2.41-.45a.36.36,0,0,0,0-.1,1.81,1.81,0,0,0-3.54-.66,1.61,1.61,0,0,0,.88,1.67,1.61,1.61,0,0,0-1.42,1.25,1.81,1.81,0,0,0,3.54.65s0-.06,0-.1l2.41.45a.36.36,0,0,0,0,.1,1.81,1.81,0,0,0,3.54.66A1.61,1.61,0,0,0,113.24,116.74Zm-1,1.81c-.54,0-.9-.61-1.12-1a1.58,1.58,0,0,0-.79-.82,5.08,5.08,0,0,0-1.22-.19,1.65,1.65,0,0,0-1.5.33,4.3,4.3,0,0,1-.65.63.76.76,0,0,1-1.12-.23c-.2-.36-.26-.77.14-1a5.33,5.33,0,0,1,.63-.32c.74-.35.14-.82-.18-1.12-.51-.49-.49-1.37.13-1.52h0a1,1,0,0,1,.74,0c.4.2.53.79.69,1.17a2.14,2.14,0,0,0,1.94,1.11,3.42,3.42,0,0,0,1.59-.13,5.13,5.13,0,0,0,1.06-.79.72.72,0,0,1,1,0,.81.81,0,0,1,0,1.07c-.24.3-1.84.58-1.39,1.19S113.36,118.46,112.23,118.55Z"/><path class="cls-9" d="M113.24,116.74a1.62,1.62,0,0,0,1.42-1.25,1.82,1.82,0,0,0-3.55-.66.41.41,0,0,1,0,.11l-2.41-.45a.36.36,0,0,0,0-.1,1.81,1.81,0,0,0-3.54-.66,1.61,1.61,0,0,0,.88,1.67,1.61,1.61,0,0,0-1.42,1.25,1.81,1.81,0,0,0,3.54.65s0-.06,0-.1l2.41.45a.36.36,0,0,0,0,.1,1.81,1.81,0,0,0,3.54.66A1.61,1.61,0,0,0,113.24,116.74Zm.22,1.76a.85.85,0,0,1-.46.53,1.66,1.66,0,0,1-2-.68c-.25-.39-.06-.84-.47-1.13a3.57,3.57,0,0,0-1.2-.33,1.57,1.57,0,0,0-1.34.1c-.33.19-.43.62-.73.85a1.16,1.16,0,0,1-1.09.19,1.23,1.23,0,0,1-.9-1.42,1.66,1.66,0,0,1,.85-.9c.34-.19.42-.37.12-.68s-.61-.53-.67-.93a1.18,1.18,0,0,1,.59-1.13,1.47,1.47,0,0,1,1.84.49,1,1,0,0,1,.26.74c.06.68.9.94,1.38,1,.72.09,1.56.36,2.09-.24.38-.43.35-.85,1.41-.9a1.2,1.2,0,0,1,1.13,1.14c-.07,1-.89.9-1.41,1.31s.36,1,.53,1.32A.84.84,0,0,1,113.46,118.5Z"/><path class="cls-43" d="M119.06,115.24a1.62,1.62,0,0,0,1.42-1.24,1.82,1.82,0,0,0-3.55-.66s0,.07,0,.1l-2.41-.44a.44.44,0,0,0,0-.1,1.81,1.81,0,0,0-3.54-.66,1.61,1.61,0,0,0,.88,1.67,1.61,1.61,0,0,0-1.42,1.24,1.81,1.81,0,0,0,3.54.66s0-.07,0-.1l2.41.45,0,.1a1.82,1.82,0,0,0,3.55.65A1.61,1.61,0,0,0,119.06,115.24Z"/><path class="cls-44" d="M118,114.55c.27-.16,1.82-.68,1.11-1.15-.45-.3-.82.25-1.12.47a2.09,2.09,0,0,1-.79.39,4.62,4.62,0,0,1-3.13-.34,1.66,1.66,0,0,1-.57-.83,2.13,2.13,0,0,0-.52-.87.56.56,0,0,0-.65,0c-.21.21,0,.61.16.77a2.73,2.73,0,0,1,.47.43.74.74,0,0,1,.15.94c-.2.35-.68.42-1,.62s-.19,1,.34.74a1.24,1.24,0,0,0,.44-.35,2.22,2.22,0,0,1,.54-.52,2,2,0,0,1,1.2-.24,5,5,0,0,1,1.68.26,2,2,0,0,1,.93,1,2.34,2.34,0,0,0,.55.73c.77.52.39-.24.29-.38C117.71,115.67,117.22,115,118,114.55Z"/><path class="cls-9" d="M119.06,115.24a1.62,1.62,0,0,0,1.42-1.24,1.82,1.82,0,0,0-3.55-.66s0,.07,0,.1l-2.41-.44a.44.44,0,0,0,0-.1,1.81,1.81,0,0,0-3.54-.66,1.61,1.61,0,0,0,.88,1.67,1.61,1.61,0,0,0-1.42,1.24,1.81,1.81,0,0,0,3.54.66s0-.07,0-.1l2.41.45,0,.1a1.82,1.82,0,0,0,3.55.65A1.61,1.61,0,0,0,119.06,115.24Zm-1,1.81c-.53,0-.89-.61-1.12-1a1.53,1.53,0,0,0-.78-.82,5.1,5.1,0,0,0-1.22-.2,1.68,1.68,0,0,0-1.5.33,3.63,3.63,0,0,1-.66.64.76.76,0,0,1-1.11-.24c-.2-.36-.26-.77.14-1a5.33,5.33,0,0,1,.63-.32c.74-.36.14-.82-.18-1.13-.51-.48-.49-1.36.12-1.52h0a1,1,0,0,1,.74,0c.4.21.53.79.69,1.17a2.13,2.13,0,0,0,1.94,1.12,3.71,3.71,0,0,0,1.59-.13,5.55,5.55,0,0,0,1.05-.79.74.74,0,0,1,1,0,.81.81,0,0,1,0,1.07c-.25.31-1.84.59-1.39,1.2S119.18,117,118,117.05Z"/><path class="cls-9" d="M119.06,115.24a1.62,1.62,0,0,0,1.42-1.24,1.82,1.82,0,0,0-3.55-.66s0,.07,0,.1l-2.41-.44a.44.44,0,0,0,0-.1,1.81,1.81,0,0,0-3.54-.66,1.61,1.61,0,0,0,.88,1.67,1.61,1.61,0,0,0-1.42,1.24,1.81,1.81,0,0,0,3.54.66s0-.07,0-.1l2.41.45,0,.1a1.82,1.82,0,0,0,3.55.65A1.61,1.61,0,0,0,119.06,115.24Zm.22,1.77a.91.91,0,0,1-.46.53,1.68,1.68,0,0,1-2-.68c-.25-.4-.06-.85-.47-1.13a3.57,3.57,0,0,0-1.2-.33,1.55,1.55,0,0,0-1.35.09c-.32.19-.42.62-.72.86a1.18,1.18,0,0,1-1.09.18,1.22,1.22,0,0,1-.9-1.41,1.66,1.66,0,0,1,.85-.9c.34-.19.41-.38.12-.69s-.61-.52-.67-.93a1.15,1.15,0,0,1,.59-1.12,1.44,1.44,0,0,1,1.84.49,1,1,0,0,1,.26.74c0,.67.9.93,1.38,1,.72.09,1.56.37,2.09-.23.38-.43.35-.86,1.41-.9a1.19,1.19,0,0,1,1.13,1.14c-.07,1-.89.9-1.41,1.3s.36,1,.53,1.32A.86.86,0,0,1,119.28,117Z"/><path class="cls-43" d="M118.27,111a1.6,1.6,0,0,0,1.42-1.25,1.81,1.81,0,0,0-3.54-.65s0,.06,0,.1l-2.41-.45a.3.3,0,0,0,0-.1,1.81,1.81,0,0,0-3.54-.65,1.61,1.61,0,0,0,.88,1.67,1.59,1.59,0,0,0-1.42,1.24,1.81,1.81,0,0,0,3.54.66.38.38,0,0,0,0-.1l2.42.44,0,.1a1.82,1.82,0,0,0,3.55.66A1.61,1.61,0,0,0,118.27,111Z"/><path class="cls-44" d="M117.22,110.32c.26-.16,1.81-.69,1.11-1.15-.45-.3-.82.25-1.12.46a2.36,2.36,0,0,1-.79.4,4.66,4.66,0,0,1-3.14-.35,1.62,1.62,0,0,1-.57-.83,2,2,0,0,0-.51-.86.56.56,0,0,0-.65,0c-.21.22,0,.61.16.77a3.87,3.87,0,0,1,.47.43.75.75,0,0,1,.15,1c-.21.35-.68.41-1,.61s-.19,1,.34.75a1.36,1.36,0,0,0,.44-.35,2.09,2.09,0,0,1,.54-.53,2.06,2.06,0,0,1,1.2-.23,5,5,0,0,1,1.67.26,2,2,0,0,1,.94,1,2.2,2.2,0,0,0,.55.73c.77.51.39-.24.29-.39C116.93,111.43,116.44,110.78,117.22,110.32Z"/><path class="cls-9" d="M118.27,111a1.6,1.6,0,0,0,1.42-1.25,1.81,1.81,0,0,0-3.54-.65s0,.06,0,.1l-2.41-.45a.3.3,0,0,0,0-.1,1.81,1.81,0,0,0-3.54-.65,1.61,1.61,0,0,0,.88,1.67,1.59,1.59,0,0,0-1.42,1.24,1.81,1.81,0,0,0,3.54.66.38.38,0,0,0,0-.1l2.42.44,0,.1a1.82,1.82,0,0,0,3.55.66A1.61,1.61,0,0,0,118.27,111Zm-1,1.81c-.54,0-.9-.61-1.12-1a1.56,1.56,0,0,0-.78-.82,5.08,5.08,0,0,0-1.22-.19,1.68,1.68,0,0,0-1.5.33,4.45,4.45,0,0,1-.66.64.76.76,0,0,1-1.11-.24c-.2-.36-.26-.77.14-1,.2-.13.42-.21.63-.32.74-.35.14-.82-.18-1.12-.52-.48-.49-1.36.12-1.52h0a1,1,0,0,1,.75,0c.4.21.53.79.68,1.17a2.17,2.17,0,0,0,2,1.11,3.38,3.38,0,0,0,1.58-.13,4.92,4.92,0,0,0,1.06-.78.74.74,0,0,1,1,0,.81.81,0,0,1,0,1.07c-.25.3-1.84.59-1.4,1.19S118.4,112.74,117.26,112.82Z"/><path class="cls-9" d="M118.27,111a1.6,1.6,0,0,0,1.42-1.25,1.81,1.81,0,0,0-3.54-.65s0,.06,0,.1l-2.41-.45a.3.3,0,0,0,0-.1,1.81,1.81,0,0,0-3.54-.65,1.61,1.61,0,0,0,.88,1.67,1.59,1.59,0,0,0-1.42,1.24,1.81,1.81,0,0,0,3.54.66.38.38,0,0,0,0-.1l2.42.44,0,.1a1.82,1.82,0,0,0,3.55.66A1.61,1.61,0,0,0,118.27,111Zm.23,1.76a1,1,0,0,1-.46.54,1.67,1.67,0,0,1-2-.69c-.25-.39-.06-.84-.48-1.13a3.24,3.24,0,0,0-1.19-.32,1.55,1.55,0,0,0-1.35.09c-.33.19-.42.62-.72.85a1.18,1.18,0,0,1-1.1.19,1.25,1.25,0,0,1-.9-1.42,1.72,1.72,0,0,1,.86-.9c.34-.18.41-.37.12-.68s-.61-.52-.67-.93a1.15,1.15,0,0,1,.59-1.12,1.45,1.45,0,0,1,1.84.48,1.05,1.05,0,0,1,.26.74c0,.68.89.94,1.38,1,.72.09,1.55.36,2.09-.24.38-.43.35-.85,1.41-.9a1.2,1.2,0,0,1,1.12,1.14c-.06,1-.88.91-1.4,1.31s.35,1,.52,1.32A.89.89,0,0,1,118.5,112.77Z"/><path class="cls-43" d="M124.81,113a1.59,1.59,0,0,0,.73-1.74,1.82,1.82,0,0,0-3.47,1,.36.36,0,0,0,0,.09l-2.37.66a.44.44,0,0,0,0-.1,1.82,1.82,0,0,0-3.47,1,1.61,1.61,0,0,0,1.53,1.11,1.6,1.6,0,0,0-.73,1.75,1.82,1.82,0,0,0,3.47-1l0-.1,2.36-.66a.3.3,0,0,0,0,.1,1.82,1.82,0,0,0,3.47-1A1.61,1.61,0,0,0,124.81,113Z"/><path class="cls-44" d="M123.56,112.8c.17-.25,1.33-1.41.5-1.52-.54-.07-.63.59-.81.91a2,2,0,0,1-.53.7,4.59,4.59,0,0,1-3,1.07,1.65,1.65,0,0,1-.88-.49,2,2,0,0,0-.84-.55.57.57,0,0,0-.58.3c-.09.28.24.56.49.62a3.28,3.28,0,0,1,.61.18.76.76,0,0,1,.55.78c0,.41-.43.68-.63,1s.28,1,.63.53a1.32,1.32,0,0,0,.24-.51,2.16,2.16,0,0,1,.26-.71,2,2,0,0,1,1-.74,5.27,5.27,0,0,1,1.62-.51,2.05,2.05,0,0,1,1.26.44,2,2,0,0,0,.81.42c.92.12.25-.39.09-.47C123.79,113.93,123.07,113.56,123.56,112.8Z"/><path class="cls-9" d="M124.81,113a1.59,1.59,0,0,0,.73-1.74,1.82,1.82,0,0,0-3.47,1,.36.36,0,0,0,0,.09l-2.37.66a.44.44,0,0,0,0-.1,1.82,1.82,0,0,0-3.47,1,1.61,1.61,0,0,0,1.53,1.11,1.6,1.6,0,0,0-.73,1.75,1.82,1.82,0,0,0,3.47-1l0-.1,2.36-.66a.3.3,0,0,0,0,.1,1.82,1.82,0,0,0,3.47-1A1.61,1.61,0,0,0,124.81,113ZM124.7,115c-.46.27-1.07-.15-1.44-.4a1.57,1.57,0,0,0-1.07-.39,4.88,4.88,0,0,0-1.18.36c-.48.18-1,.4-1.2,1a3.41,3.41,0,0,1-.31.86.76.76,0,0,1-1.1.27c-.34-.23-.57-.57-.33-1,.13-.2.28-.38.43-.57.5-.64-.24-.79-.66-.92-.67-.21-1-1-.56-1.42l0,0a.94.94,0,0,1,.68-.29c.46,0,.83.47,1.14.75a2.15,2.15,0,0,0,2.23.14,3.47,3.47,0,0,0,1.37-.81,5.19,5.19,0,0,0,.6-1.17.73.73,0,0,1,1-.45.81.81,0,0,1,.43,1c-.08.38-1.39,1.33-.73,1.68S125.69,114.46,124.7,115Z"/><path class="cls-9" d="M124.81,113a1.59,1.59,0,0,0,.73-1.74,1.82,1.82,0,0,0-3.47,1,.36.36,0,0,0,0,.09l-2.37.66a.44.44,0,0,0,0-.1,1.82,1.82,0,0,0-3.47,1,1.61,1.61,0,0,0,1.53,1.11,1.6,1.6,0,0,0-.73,1.75,1.82,1.82,0,0,0,3.47-1l0-.1,2.36-.66a.3.3,0,0,0,0,.1,1.82,1.82,0,0,0,3.47-1A1.61,1.61,0,0,0,124.81,113Zm1,1.49a.89.89,0,0,1-.18.68,1.68,1.68,0,0,1-2.09.27c-.4-.25-.43-.74-.93-.81a3.43,3.43,0,0,0-1.22.23c-.43.13-.78.11-1.16.68-.21.31-.11.74-.28,1.08a1.17,1.17,0,0,1-.9.65,1.23,1.23,0,0,1-1.43-.88,1.65,1.65,0,0,1,.38-1.18c.22-.32.2-.52-.2-.67a1.82,1.82,0,0,1-1-.54,1.17,1.17,0,0,1,0-1.27,1.46,1.46,0,0,1,1.87-.37c.37.21.34.21.55.55.35.58,1.22.45,1.68.29.69-.24,1.56-.36,1.77-1.13.16-.55-.06-.92.87-1.43a1.2,1.2,0,0,1,1.52.53c.36.9-.41,1.2-.69,1.79s.76.75,1.05,1A.85.85,0,0,1,125.79,114.45Z"/><path class="cls-43" d="M116.89,115.33a1.61,1.61,0,0,0,.73-1.74,1.81,1.81,0,0,0-3.47,1l0,.1-2.36.66s0-.07,0-.1a1.82,1.82,0,0,0-3.47,1,1.59,1.59,0,0,0,1.52,1.11,1.61,1.61,0,0,0-.73,1.74,1.82,1.82,0,0,0,3.47-1,.32.32,0,0,0,0-.09l2.36-.66a.36.36,0,0,1,0,.1,1.82,1.82,0,0,0,3.48-1A1.62,1.62,0,0,0,116.89,115.33Z"/><path class="cls-44" d="M115.64,115.17c.17-.26,1.33-1.41.49-1.52-.53-.07-.63.58-.8.91a2.19,2.19,0,0,1-.54.7,4.6,4.6,0,0,1-3,1.07,1.62,1.62,0,0,1-.88-.49,2,2,0,0,0-.85-.55.52.52,0,0,0-.57.3c-.1.28.23.56.48.62a3.38,3.38,0,0,1,.62.18.76.76,0,0,1,.55.78c0,.41-.44.67-.63,1s.27,1,.63.52a1.33,1.33,0,0,0,.24-.51,2.32,2.32,0,0,1,.25-.71,2.1,2.1,0,0,1,1-.73,4.86,4.86,0,0,1,1.62-.51,2.1,2.1,0,0,1,1.26.44,2,2,0,0,0,.81.42c.92.12.25-.39.09-.48C115.87,116.3,115.14,115.93,115.64,115.17Z"/><path class="cls-9" d="M116.89,115.33a1.61,1.61,0,0,0,.73-1.74,1.81,1.81,0,0,0-3.47,1l0,.1-2.36.66s0-.07,0-.1a1.82,1.82,0,0,0-3.47,1,1.59,1.59,0,0,0,1.52,1.11,1.61,1.61,0,0,0-.73,1.74,1.82,1.82,0,0,0,3.47-1,.32.32,0,0,0,0-.09l2.36-.66a.36.36,0,0,1,0,.1,1.82,1.82,0,0,0,3.48-1A1.62,1.62,0,0,0,116.89,115.33Zm-.11,2.07c-.47.27-1.08-.15-1.44-.4a1.57,1.57,0,0,0-1.07-.39,4.88,4.88,0,0,0-1.18.36c-.49.18-1,.39-1.2,1a4.28,4.28,0,0,1-.31.87.78.78,0,0,1-1.11.27c-.34-.23-.57-.58-.32-1a4.73,4.73,0,0,1,.43-.57c.5-.64-.24-.8-.67-.93-.67-.2-1-1-.55-1.42h0a.89.89,0,0,1,.68-.29c.45,0,.83.47,1.13.74a2.15,2.15,0,0,0,2.24.15,3.61,3.61,0,0,0,1.37-.82,5.18,5.18,0,0,0,.6-1.17.73.73,0,0,1,.94-.44.81.81,0,0,1,.44,1c-.09.38-1.39,1.33-.73,1.68S117.76,116.83,116.78,117.4Z"/><path class="cls-9" d="M116.89,115.33a1.61,1.61,0,0,0,.73-1.74,1.81,1.81,0,0,0-3.47,1l0,.1-2.36.66s0-.07,0-.1a1.82,1.82,0,0,0-3.47,1,1.59,1.59,0,0,0,1.52,1.11,1.61,1.61,0,0,0-.73,1.74,1.82,1.82,0,0,0,3.47-1,.32.32,0,0,0,0-.09l2.36-.66a.36.36,0,0,1,0,.1,1.82,1.82,0,0,0,3.48-1A1.62,1.62,0,0,0,116.89,115.33Zm1,1.48a.94.94,0,0,1-.18.69,1.66,1.66,0,0,1-2.09.26c-.4-.24-.43-.73-.93-.8a3.43,3.43,0,0,0-1.22.23c-.44.13-.79.11-1.17.67-.21.32-.1.75-.27,1.09a1.17,1.17,0,0,1-.9.65,1.23,1.23,0,0,1-1.43-.88,1.69,1.69,0,0,1,.37-1.18c.23-.32.21-.52-.19-.67a1.88,1.88,0,0,1-1-.54,1.15,1.15,0,0,1,0-1.27,1.44,1.44,0,0,1,1.86-.37,1,1,0,0,1,.56.55c.34.58,1.21.45,1.67.29.69-.24,1.56-.36,1.78-1.13.15-.55-.06-.92.87-1.43a1.19,1.19,0,0,1,1.51.53c.37.9-.4,1.2-.68,1.79s.76.75,1,.95A.88.88,0,0,1,117.87,116.81Z"/><path class="cls-43" d="M84.87,112.66a1.61,1.61,0,0,0,.73-1.74,1.82,1.82,0,0,0-3.47,1l0,.1-2.36.65s0-.06,0-.1a1.82,1.82,0,0,0-3.47,1,1.6,1.6,0,0,0,1.52,1.12,1.59,1.59,0,0,0-.73,1.74,1.82,1.82,0,0,0,3.47-1l0-.1,2.36-.66a.44.44,0,0,1,0,.1,1.82,1.82,0,0,0,3.48-1A1.62,1.62,0,0,0,84.87,112.66Z"/><path class="cls-44" d="M83.62,112.51c.17-.26,1.33-1.42.49-1.53-.53-.07-.63.59-.8.92a2.43,2.43,0,0,1-.54.7,4.59,4.59,0,0,1-3,1.06,1.56,1.56,0,0,1-.88-.49,2.15,2.15,0,0,0-.85-.55.55.55,0,0,0-.57.3c-.1.28.23.56.48.62a3.38,3.38,0,0,1,.62.18.75.75,0,0,1,.54.79c0,.4-.43.67-.62,1s.27,1,.62.53a1.35,1.35,0,0,0,.25-.51,1.77,1.77,0,0,1,1.23-1.45,4.85,4.85,0,0,1,1.62-.5,1.93,1.93,0,0,1,1.25.44,2.18,2.18,0,0,0,.82.41c.92.12.25-.39.09-.47C83.85,113.64,83.12,113.26,83.62,112.51Z"/><path class="cls-9" d="M84.87,112.66a1.61,1.61,0,0,0,.73-1.74,1.82,1.82,0,0,0-3.47,1l0,.1-2.36.65s0-.06,0-.1a1.82,1.82,0,0,0-3.47,1,1.6,1.6,0,0,0,1.52,1.12,1.59,1.59,0,0,0-.73,1.74,1.82,1.82,0,0,0,3.47-1l0-.1,2.36-.66a.44.44,0,0,1,0,.1,1.82,1.82,0,0,0,3.48-1A1.62,1.62,0,0,0,84.87,112.66Zm-.11,2.08c-.47.27-1.08-.16-1.45-.41a1.53,1.53,0,0,0-1.06-.39,4.88,4.88,0,0,0-1.18.36c-.49.18-1,.4-1.2,1a4.42,4.42,0,0,1-.31.86.76.76,0,0,1-1.11.27c-.34-.23-.57-.57-.32-1,.12-.2.28-.38.42-.57.51-.64-.23-.79-.66-.92-.67-.21-1-1-.55-1.42a0,0,0,0,1,0,0,.92.92,0,0,1,.68-.29c.45,0,.83.47,1.13.75a2.17,2.17,0,0,0,2.24.14,3.36,3.36,0,0,0,1.36-.81,5.23,5.23,0,0,0,.61-1.17.73.73,0,0,1,.94-.45.81.81,0,0,1,.44,1c-.09.38-1.4,1.33-.73,1.68S85.74,114.16,84.76,114.74Z"/><path class="cls-9" d="M84.87,112.66a1.61,1.61,0,0,0,.73-1.74,1.82,1.82,0,0,0-3.47,1l0,.1-2.36.65s0-.06,0-.1a1.82,1.82,0,0,0-3.47,1,1.6,1.6,0,0,0,1.52,1.12,1.59,1.59,0,0,0-.73,1.74,1.82,1.82,0,0,0,3.47-1l0-.1,2.36-.66a.44.44,0,0,1,0,.1,1.82,1.82,0,0,0,3.48-1A1.62,1.62,0,0,0,84.87,112.66Zm1,1.49a.92.92,0,0,1-.18.68,1.68,1.68,0,0,1-2.09.27c-.41-.25-.43-.74-.93-.81a3.43,3.43,0,0,0-1.22.23c-.44.13-.79.11-1.16.68-.22.31-.12.74-.28,1.08a1.19,1.19,0,0,1-.9.65,1.23,1.23,0,0,1-1.43-.88,1.69,1.69,0,0,1,.37-1.18c.22-.32.21-.52-.2-.67a1.94,1.94,0,0,1-1-.53,1.17,1.17,0,0,1,.05-1.28,1.45,1.45,0,0,1,1.86-.37,1,1,0,0,1,.56.55c.34.59,1.21.45,1.67.29.69-.24,1.56-.35,1.78-1.13.15-.55-.06-.92.87-1.43a1.2,1.2,0,0,1,1.51.53c.37.9-.4,1.2-.68,1.79s.76.75,1,1A.86.86,0,0,1,85.85,114.15Z"/><path class="cls-43" d="M91.08,116.66a1.63,1.63,0,0,0,1.4-1.28,1.82,1.82,0,0,0-3.56-.58.41.41,0,0,0,0,.11l-2.42-.4s0-.06,0-.1a1.82,1.82,0,0,0-3.56-.58,1.6,1.6,0,0,0,.92,1.65,1.61,1.61,0,0,0-1.39,1.28,1.81,1.81,0,0,0,3.55.58.38.38,0,0,0,0-.1l2.42.39a.44.44,0,0,1,0,.1,1.82,1.82,0,0,0,3.56.58A1.6,1.6,0,0,0,91.08,116.66Z"/><path class="cls-44" d="M90,116c.27-.16,1.8-.72,1.09-1.18-.46-.29-.82.27-1.11.5a2.53,2.53,0,0,1-.78.41,4.62,4.62,0,0,1-3.15-.28,1.59,1.59,0,0,1-.58-.81,2.14,2.14,0,0,0-.54-.86.56.56,0,0,0-.65,0c-.2.22,0,.61.18.77A3.21,3.21,0,0,1,85,115a.74.74,0,0,1,.17.94c-.2.35-.67.43-1,.63s-.17,1,.35.74a1.36,1.36,0,0,0,.43-.36,2.47,2.47,0,0,1,.53-.54,2.08,2.08,0,0,1,1.2-.26,4.78,4.78,0,0,1,1.68.23,2,2,0,0,1,1,.92,2.26,2.26,0,0,0,.57.73c.78.49.38-.26.28-.4C89.75,117.11,89.24,116.47,90,116Z"/><path class="cls-9" d="M91.08,116.66a1.63,1.63,0,0,0,1.4-1.28,1.82,1.82,0,0,0-3.56-.58.41.41,0,0,0,0,.11l-2.42-.4s0-.06,0-.1a1.82,1.82,0,0,0-3.56-.58,1.6,1.6,0,0,0,.92,1.65,1.61,1.61,0,0,0-1.39,1.28,1.81,1.81,0,0,0,3.55.58.38.38,0,0,0,0-.1l2.42.39a.44.44,0,0,1,0,.1,1.82,1.82,0,0,0,3.56.58A1.6,1.6,0,0,0,91.08,116.66Zm-1,1.83c-.54.05-.91-.59-1.14-1a1.51,1.51,0,0,0-.81-.8,4.55,4.55,0,0,0-1.22-.17,1.67,1.67,0,0,0-1.49.36,3.94,3.94,0,0,1-.64.65.76.76,0,0,1-1.12-.21c-.21-.36-.27-.76.12-1a5.28,5.28,0,0,1,.62-.33c.73-.37.12-.83-.21-1.12-.52-.47-.52-1.35.1-1.53h0a1,1,0,0,1,.74,0c.41.2.55.78.72,1.15a2.14,2.14,0,0,0,2,1.08,3.7,3.7,0,0,0,1.59-.17,5.18,5.18,0,0,0,1-.81.72.72,0,0,1,1,0,.8.8,0,0,1,0,1.07c-.23.31-1.82.63-1.36,1.23S91.24,118.38,90.11,118.49Z"/><path class="cls-9" d="M91.08,116.66a1.63,1.63,0,0,0,1.4-1.28,1.82,1.82,0,0,0-3.56-.58.41.41,0,0,0,0,.11l-2.42-.4s0-.06,0-.1a1.82,1.82,0,0,0-3.56-.58,1.6,1.6,0,0,0,.92,1.65,1.61,1.61,0,0,0-1.39,1.28,1.81,1.81,0,0,0,3.55.58.38.38,0,0,0,0-.1l2.42.39a.44.44,0,0,1,0,.1,1.82,1.82,0,0,0,3.56.58A1.6,1.6,0,0,0,91.08,116.66Zm.27,1.76a1,1,0,0,1-.45.54,1.65,1.65,0,0,1-2-.64c-.27-.39-.09-.84-.51-1.12a3.53,3.53,0,0,0-1.2-.3,1.58,1.58,0,0,0-1.34.12c-.33.2-.41.63-.71.87a1.19,1.19,0,0,1-1.09.21,1.23,1.23,0,0,1-.93-1.4,1.74,1.74,0,0,1,.84-.91c.34-.2.4-.38.1-.69s-.62-.51-.69-.91a1.16,1.16,0,0,1,.57-1.14,1.45,1.45,0,0,1,1.85.45,1,1,0,0,1,.27.73c.07.67.92.92,1.4,1,.73.07,1.57.33,2.09-.28.37-.44.33-.87,1.39-.94a1.21,1.21,0,0,1,1.15,1.12c0,1-.87.92-1.37,1.34s.37,1,.54,1.3A.87.87,0,0,1,91.35,118.42Z"/><path class="cls-43" d="M90.61,111.13A1.6,1.6,0,0,0,92,109.85a1.82,1.82,0,0,0-3.56-.57s0,.06,0,.1L86,109a.3.3,0,0,0,0-.1,1.81,1.81,0,0,0-3.55-.58,1.59,1.59,0,0,0,.91,1.65A1.62,1.62,0,0,0,82,111.23a1.82,1.82,0,0,0,3.56.58.31.31,0,0,1,0-.1l2.42.39,0,.1a1.82,1.82,0,0,0,3.56.58A1.61,1.61,0,0,0,90.61,111.13Z"/><path class="cls-44" d="M89.54,110.46c.26-.16,1.79-.72,1.08-1.17-.45-.29-.81.26-1.11.49a2.34,2.34,0,0,1-.78.41,4.59,4.59,0,0,1-3.14-.28,1.55,1.55,0,0,1-.59-.81,2.14,2.14,0,0,0-.54-.86.54.54,0,0,0-.64,0c-.21.22,0,.61.17.77a3.29,3.29,0,0,1,.49.42.75.75,0,0,1,.16.94c-.19.35-.67.43-1,.64s-.17,1,.35.73a1.24,1.24,0,0,0,.44-.35,1.82,1.82,0,0,1,.53-.54,2,2,0,0,1,1.19-.26,4.77,4.77,0,0,1,1.68.22,2.06,2.06,0,0,1,1,.93,2.07,2.07,0,0,0,.56.72c.78.49.39-.25.28-.4C89.27,111.58,88.77,110.94,89.54,110.46Z"/><path class="cls-9" d="M90.61,111.13A1.6,1.6,0,0,0,92,109.85a1.82,1.82,0,0,0-3.56-.57s0,.06,0,.1L86,109a.3.3,0,0,0,0-.1,1.81,1.81,0,0,0-3.55-.58,1.59,1.59,0,0,0,.91,1.65A1.62,1.62,0,0,0,82,111.23a1.82,1.82,0,0,0,3.56.58.31.31,0,0,1,0-.1l2.42.39,0,.1a1.82,1.82,0,0,0,3.56.58A1.61,1.61,0,0,0,90.61,111.13Zm-1,1.83c-.53.05-.91-.59-1.14-1a1.56,1.56,0,0,0-.8-.8,5.07,5.07,0,0,0-1.23-.17,1.64,1.64,0,0,0-1.48.36,4.06,4.06,0,0,1-.65.66.77.77,0,0,1-1.12-.22.71.71,0,0,1,.12-1,6.25,6.25,0,0,1,.63-.33c.72-.37.12-.83-.21-1.12-.53-.47-.52-1.35.09-1.52h0a1,1,0,0,1,.74,0c.41.2.55.78.72,1.16a2.16,2.16,0,0,0,2,1.07,3.55,3.55,0,0,0,1.59-.17,5.18,5.18,0,0,0,1-.81.74.74,0,0,1,1,0,.81.81,0,0,1,0,1.07c-.24.31-1.83.63-1.37,1.23S90.77,112.85,89.63,113Z"/><path class="cls-9" d="M90.61,111.13A1.6,1.6,0,0,0,92,109.85a1.82,1.82,0,0,0-3.56-.57s0,.06,0,.1L86,109a.3.3,0,0,0,0-.1,1.81,1.81,0,0,0-3.55-.58,1.59,1.59,0,0,0,.91,1.65A1.62,1.62,0,0,0,82,111.23a1.82,1.82,0,0,0,3.56.58.31.31,0,0,1,0-.1l2.42.39,0,.1a1.82,1.82,0,0,0,3.56.58A1.61,1.61,0,0,0,90.61,111.13Zm.26,1.76a.91.91,0,0,1-.45.54,1.65,1.65,0,0,1-2-.64c-.26-.38-.08-.84-.5-1.12a3.59,3.59,0,0,0-1.21-.3,1.55,1.55,0,0,0-1.34.13c-.32.19-.41.62-.71.86a1.13,1.13,0,0,1-1.09.21,1.24,1.24,0,0,1-.93-1.39,1.72,1.72,0,0,1,.84-.92c.34-.19.4-.38.1-.69s-.62-.51-.69-.91a1.18,1.18,0,0,1,.57-1.14,1.46,1.46,0,0,1,1.85.45,1,1,0,0,1,.28.73c.07.68.91.92,1.4,1,.72.07,1.56.33,2.08-.28.37-.44.33-.86,1.39-.93a1.18,1.18,0,0,1,1.15,1.11c0,1-.87.92-1.37,1.34s.37,1,.55,1.31A.89.89,0,0,1,90.87,112.89Z"/><path class="cls-43" d="M105.53,106.06a1.59,1.59,0,0,0,1.11-1.52,1.82,1.82,0,0,0-3.6.13s0,.07,0,.1l-2.45.09v-.1a1.82,1.82,0,0,0-3.6.13,1.6,1.6,0,0,0,1.22,1.44,1.59,1.59,0,0,0-1.11,1.52,1.82,1.82,0,0,0,3.6-.13s0-.07,0-.1l2.45-.09v.1a1.82,1.82,0,0,0,3.6-.13A1.61,1.61,0,0,0,105.53,106.06Z"/><path class="cls-44" d="M104.35,105.62c.22-.22,1.62-1.07.83-1.37-.5-.19-.75.42-1,.7a2.33,2.33,0,0,1-.69.56,4.59,4.59,0,0,1-3.13.34,1.57,1.57,0,0,1-.74-.68c-.17-.23-.41-.62-.69-.73a.55.55,0,0,0-.63.15c-.16.26.09.61.32.72a3.86,3.86,0,0,1,.56.32.76.76,0,0,1,.35.89c-.13.38-.58.55-.84.81s0,1,.48.66a1.39,1.39,0,0,0,.36-.44,2.21,2.21,0,0,1,.41-.63,2,2,0,0,1,1.12-.49,4.83,4.83,0,0,1,1.69-.11,2,2,0,0,1,1.13.72,2.08,2.08,0,0,0,.69.6c.87.33.33-.33.2-.44C104.31,106.77,103.69,106.24,104.35,105.62Z"/><path class="cls-9" d="M105.53,106.06a1.59,1.59,0,0,0,1.11-1.52,1.82,1.82,0,0,0-3.6.13s0,.07,0,.1l-2.45.09v-.1a1.82,1.82,0,0,0-3.6.13,1.6,1.6,0,0,0,1.22,1.44,1.59,1.59,0,0,0-1.11,1.52,1.82,1.82,0,0,0,3.6-.13s0-.07,0-.1l2.45-.09v.1a1.82,1.82,0,0,0,3.6-.13A1.61,1.61,0,0,0,105.53,106.06Zm-.6,2c-.51.16-1-.4-1.31-.73a1.53,1.53,0,0,0-.94-.63,5.18,5.18,0,0,0-1.24.08,1.66,1.66,0,0,0-1.39.65,3.84,3.84,0,0,1-.5.76.76.76,0,0,1-1.14,0c-.27-.31-.42-.69-.08-1,.17-.17.36-.3.54-.45.64-.51,0-.83-.42-1.06-.61-.36-.78-1.22-.21-1.51h0A.94.94,0,0,1,99,104c.44.11.7.65.93,1a2.15,2.15,0,0,0,2.14.66,3.51,3.51,0,0,0,1.52-.47,5.42,5.42,0,0,0,.86-1,.74.74,0,0,1,1-.21.81.81,0,0,1,.2,1c-.17.35-1.67,1-1.1,1.47S106,107.72,104.93,108.05Z"/><path class="cls-9" d="M105.53,106.06a1.59,1.59,0,0,0,1.11-1.52,1.82,1.82,0,0,0-3.6.13s0,.07,0,.1l-2.45.09v-.1a1.82,1.82,0,0,0-3.6.13,1.6,1.6,0,0,0,1.22,1.44,1.59,1.59,0,0,0-1.11,1.52,1.82,1.82,0,0,0,3.6-.13s0-.07,0-.1l2.45-.09v.1a1.82,1.82,0,0,0,3.6-.13A1.61,1.61,0,0,0,105.53,106.06Zm.6,1.67a.91.91,0,0,1-.34.63,1.66,1.66,0,0,1-2.09-.23c-.34-.33-.25-.82-.71-1a3.29,3.29,0,0,0-1.25-.06,1.54,1.54,0,0,0-1.29.38c-.28.26-.28.7-.52,1a1.15,1.15,0,0,1-1,.42c-.56-.06-1.25-.53-1.18-1.19a1.67,1.67,0,0,1,.64-1.06c.29-.26.32-.45,0-.69s-.71-.38-.85-.76a1.16,1.16,0,0,1,.33-1.23,1.45,1.45,0,0,1,1.91.08,1,1,0,0,1,.41.66c.2.65,1.07.72,1.56.67.73-.07,1.6,0,2-.68.28-.5.16-.91,1.18-1.19a1.2,1.2,0,0,1,1.35.87c.14,1-.67,1.07-1.09,1.58s.57.91.8,1.18A.86.86,0,0,1,106.13,107.73Z"/><path class="cls-43" d="M95.67,107.76a1.6,1.6,0,0,0,1.11-1.52,1.82,1.82,0,0,0-3.6.12s0,.07,0,.11l-2.45.09a.41.41,0,0,0,0-.11,1.82,1.82,0,0,0-3.6.13A1.61,1.61,0,0,0,88.37,108a1.6,1.6,0,0,0-1.12,1.53,1.82,1.82,0,0,0,3.6-.13s0-.07,0-.11l2.45-.08v.1a1.82,1.82,0,0,0,3.6-.13A1.6,1.6,0,0,0,95.67,107.76Z"/><path class="cls-44" d="M94.49,107.31c.22-.21,1.62-1.06.83-1.36-.5-.2-.74.42-1,.7a2.05,2.05,0,0,1-.69.55,4.59,4.59,0,0,1-3.13.35,1.68,1.68,0,0,1-.74-.68,2.13,2.13,0,0,0-.69-.74.55.55,0,0,0-.63.16c-.16.25.1.6.33.72a3.35,3.35,0,0,1,.55.31.75.75,0,0,1,.35.89c-.12.39-.58.56-.84.82s0,1,.49.65a1.21,1.21,0,0,0,.35-.43,2.1,2.1,0,0,1,.42-.63,2,2,0,0,1,1.12-.49,5.07,5.07,0,0,1,1.69-.12,2,2,0,0,1,1.12.73,2.17,2.17,0,0,0,.69.59c.87.34.33-.32.2-.44C94.45,108.47,93.83,107.93,94.49,107.31Z"/><path class="cls-9" d="M95.67,107.76a1.6,1.6,0,0,0,1.11-1.52,1.82,1.82,0,0,0-3.6.12s0,.07,0,.11l-2.45.09a.41.41,0,0,0,0-.11,1.82,1.82,0,0,0-3.6.13A1.61,1.61,0,0,0,88.37,108a1.6,1.6,0,0,0-1.12,1.53,1.82,1.82,0,0,0,3.6-.13s0-.07,0-.11l2.45-.08v.1a1.82,1.82,0,0,0,3.6-.13A1.6,1.6,0,0,0,95.67,107.76Zm-.59,2c-.52.15-1-.4-1.31-.73a1.58,1.58,0,0,0-1-.63,5.06,5.06,0,0,0-1.23.07c-.52.07-1.11.14-1.39.65a4.42,4.42,0,0,1-.5.77.77.77,0,0,1-1.14,0c-.28-.31-.42-.7-.09-1a4.7,4.7,0,0,1,.55-.45c.64-.51,0-.84-.43-1.06-.6-.36-.77-1.22-.2-1.51v0a1,1,0,0,1,.74-.12c.44.12.69.66.92,1a2.14,2.14,0,0,0,2.14.67,3.51,3.51,0,0,0,1.52-.47,5.07,5.07,0,0,0,.86-1,.74.74,0,0,1,1-.22.82.82,0,0,1,.19,1.06c-.17.35-1.67,1-1.1,1.47S96.16,109.42,95.08,109.75Z"/><path class="cls-9" d="M95.67,107.76a1.6,1.6,0,0,0,1.11-1.52,1.82,1.82,0,0,0-3.6.12s0,.07,0,.11l-2.45.09a.41.41,0,0,0,0-.11,1.82,1.82,0,0,0-3.6.13A1.61,1.61,0,0,0,88.37,108a1.6,1.6,0,0,0-1.12,1.53,1.82,1.82,0,0,0,3.6-.13s0-.07,0-.11l2.45-.08v.1a1.82,1.82,0,0,0,3.6-.13A1.6,1.6,0,0,0,95.67,107.76Zm.6,1.67a.91.91,0,0,1-.33.62,1.66,1.66,0,0,1-2.1-.23c-.33-.33-.24-.81-.71-1a3.69,3.69,0,0,0-1.24-.06,1.58,1.58,0,0,0-1.29.39c-.28.25-.28.69-.52,1a1.19,1.19,0,0,1-1,.41c-.57,0-1.26-.52-1.19-1.18a1.7,1.7,0,0,1,.64-1.06c.29-.26.32-.46,0-.7s-.71-.37-.86-.76a1.15,1.15,0,0,1,.34-1.22,1.45,1.45,0,0,1,1.9.07,1,1,0,0,1,.41.67c.2.64,1.08.72,1.56.67.73-.07,1.6,0,2-.68.28-.51.16-.92,1.18-1.19a1.19,1.19,0,0,1,1.35.87c.15,1-.67,1.07-1.08,1.58s.56.91.79,1.17A.84.84,0,0,1,96.27,109.43Z"/><path class="cls-43" d="M115.44,110.19a1.6,1.6,0,0,0,1.55-1.08,1.81,1.81,0,0,0-3.44-1l0,.1-2.34-.71,0-.1a1.81,1.81,0,0,0-3.44-1,1.6,1.6,0,0,0,.68,1.76,1.59,1.59,0,0,0-1.55,1.07,1.82,1.82,0,0,0,3.45,1.05s0-.06,0-.1l2.35.72a1,1,0,0,0,0,.1,1.82,1.82,0,0,0,3.45,1A1.6,1.6,0,0,0,115.44,110.19Z"/><path class="cls-44" d="M114.47,109.38c.28-.12,1.88-.47,1.24-1-.41-.34-.85.16-1.17.34a2.24,2.24,0,0,1-.83.3,4.63,4.63,0,0,1-3.08-.69,1.64,1.64,0,0,1-.47-.89,2,2,0,0,0-.42-.92.56.56,0,0,0-.64-.06c-.23.19-.11.61.07.79a2.73,2.73,0,0,1,.42.48.74.74,0,0,1,0,1c-.24.32-.72.33-1.06.49s-.3,1,.25.78a1.22,1.22,0,0,0,.48-.3,2.46,2.46,0,0,1,.6-.46,2,2,0,0,1,1.21-.1,4.82,4.82,0,0,1,1.64.45,2,2,0,0,1,.82,1,2.31,2.31,0,0,0,.46.79c.72.59.42-.2.34-.36C114.06,110.46,113.65,109.75,114.47,109.38Z"/><path class="cls-9" d="M115.44,110.19a1.6,1.6,0,0,0,1.55-1.08,1.81,1.81,0,0,0-3.44-1l0,.1-2.34-.71,0-.1a1.81,1.81,0,0,0-3.44-1,1.6,1.6,0,0,0,.68,1.76,1.59,1.59,0,0,0-1.55,1.07,1.82,1.82,0,0,0,3.45,1.05s0-.06,0-.1l2.35.72a1,1,0,0,0,0,.1,1.82,1.82,0,0,0,3.45,1A1.6,1.6,0,0,0,115.44,110.19Zm-1.21,1.68c-.53,0-.82-.7-1-1.11a1.49,1.49,0,0,0-.69-.9,5.4,5.4,0,0,0-1.19-.34,1.7,1.7,0,0,0-1.52.16,3.94,3.94,0,0,1-.73.56.76.76,0,0,1-1.08-.36c-.16-.38-.17-.79.26-1a5.26,5.26,0,0,1,.66-.25c.77-.27.23-.8,0-1.14-.46-.53-.34-1.41.29-1.49h0a1,1,0,0,1,.74.12c.38.26.44.85.55,1.24a2.16,2.16,0,0,0,1.8,1.33,3.61,3.61,0,0,0,1.6,0,5.84,5.84,0,0,0,1.14-.66.73.73,0,0,1,1,.12.81.81,0,0,1-.16,1.07c-.27.27-1.89.37-1.52,1S115.37,111.92,114.23,111.87Z"/><path class="cls-9" d="M115.44,110.19a1.6,1.6,0,0,0,1.55-1.08,1.81,1.81,0,0,0-3.44-1l0,.1-2.34-.71,0-.1a1.81,1.81,0,0,0-3.44-1,1.6,1.6,0,0,0,.68,1.76,1.59,1.59,0,0,0-1.55,1.07,1.82,1.82,0,0,0,3.45,1.05s0-.06,0-.1l2.35.72a1,1,0,0,0,0,.1,1.82,1.82,0,0,0,3.45,1A1.6,1.6,0,0,0,115.44,110.19Zm0,1.78a.92.92,0,0,1-.52.48,1.67,1.67,0,0,1-1.91-.91c-.21-.42,0-.85-.34-1.17a3.54,3.54,0,0,0-1.16-.47,1.54,1.54,0,0,0-1.34-.05c-.35.15-.5.56-.82.76a1.15,1.15,0,0,1-1.11.06,1.22,1.22,0,0,1-.73-1.5,1.67,1.67,0,0,1,.95-.8c.36-.15.45-.32.19-.67s-.55-.59-.56-1a1.14,1.14,0,0,1,.72-1,1.44,1.44,0,0,1,1.77.69,1,1,0,0,1,.17.76c0,.68.79,1,1.26,1.14.71.17,1.51.54,2.1,0,.43-.39.45-.81,1.51-.74a1.2,1.2,0,0,1,1,1.26c-.18,1-1,.79-1.54,1.14s.23,1,.37,1.37A.89.89,0,0,1,115.47,112Z"/></g></g></g></svg>