<svg xmlns="http://www.w3.org/2000/svg" viewBox="0 0 1163.04 1310.72"><defs><style>.cls-1{isolation:isolate;}.cls-2{fill:#7e7168;}.cls-12,.cls-13,.cls-3{fill:#f8b852;}.cls-10,.cls-11,.cls-4{fill:none;stroke-linecap:round;stroke-linejoin:round;}.cls-4{stroke:#342926;stroke-width:7.22px;}.cls-5{fill:#342926;}.cls-6{fill:#b5b5b5;opacity:0.3;mix-blend-mode:screen;}.cls-7{fill:#ece0e2;}.cls-12,.cls-7{mix-blend-mode:multiply;}.cls-8{fill:#ee3d14;}.cls-9{fill:#c5e4e4;}.cls-10{stroke:#a3cece;}.cls-10,.cls-11{stroke-width:10.78px;}.cls-11{stroke:#f2f2f2;}.cls-13{mix-blend-mode:soft-light;}</style></defs><title>shower_dog</title><g class="cls-1"><g id="Capa_1" data-name="Capa 1"><path class="cls-2" d="M643.9,1212.75l5,1.19,6,1.41c1.17.29,2.43.58,3.77.9l5.18,1c3.66.69,7.69,1.48,12.11,2.31l13.53,1.85a318,318,0,0,0,32.35,2.12,350.25,350.25,0,0,0,37.9-1.49,357.62,357.62,0,0,0,41.31-6.67,338,338,0,0,0,42.61-12.31,342.12,342.12,0,0,0,41.69-18.1A332.73,332.73,0,0,0,924,1161.54a309.78,309.78,0,0,0,33.77-27.77,276.64,276.64,0,0,0,27.14-30.51c7.67-10.49,14.4-20.75,19.48-30.89a187.91,187.91,0,0,0,12-28.3,167.67,167.67,0,0,0,6-22.85,134.52,134.52,0,0,0,2.2-15c.38-3.45.58-5.29.58-5.29a7.46,7.46,0,0,0-14.65-2.63l-.16.63-1.18,4.71a116.47,116.47,0,0,1-3.78,13.15,150.38,150.38,0,0,1-8,19.56,166,166,0,0,1-13.93,23.41c-5.59,8.26-12.73,16.43-20.6,24.65a242.12,242.12,0,0,1-27.15,23.36A274.47,274.47,0,0,1,903.19,1128a290.84,290.84,0,0,1-73.78,26.42,284.83,284.83,0,0,1-37.23,5.52,297.14,297.14,0,0,1-34.8.93,289.23,289.23,0,0,1-30.63-2.94,252,252,0,0,1-25.13-5.09l-10.18-2.8-7.81-2.64c-1.17-.4-2.29-.76-3.34-1.1l-3.63-1.4-5.72-2.2-4.75-1.83a37.74,37.74,0,0,0-27.09,70.45A43.37,43.37,0,0,0,643.9,1212.75Z"/><path class="cls-2" d="M507.44,324.09c10.55,10.22,79.75,61.09,88.86,83.42,14.45,35.39-37.4,85.08-73.13,92.9-20.6,4.51-31.67-16.24-39.41-31.85-12.62-25.47-27.45-48.88-39-74.83-10.75-24.15-31.25-73.11-17.7-89C447.52,280.8,493.94,311,507.44,324.09Z"/><path class="cls-3" d="M107.51,294.64c26.92,37.9,56.37,62.87,84.44,93.54,18.34,20.07,54.7,34.61,55.92,81.81,1.14,45,146.27,13.56,182.22,18.1,44.46,5.57,41-49.89,51-90.46C519.56,242,335,97.45,243.21,143.93c-25.77-21.08-44.55-43.08-65.47-54.35a69.32,69.32,0,0,0-8.81-4,54.7,54.7,0,0,0-14.14-3.39c-13.22-1.3-28.08,2-46.35,12.06a186.52,186.52,0,0,0-18.33,11.55C14.11,159.52,67.74,238.55,107.51,294.64Z"/><path class="cls-4" d="M270.88,181.52c26.77-7,39.71,22.87,15.6,37.06"/><path class="cls-5" d="M108.44,94.28A42.9,42.9,0,0,0,115,104.53c8.3,9.88,30.76,33.34,47,23.88,13.12-7.65,17.67-23.82,15.73-38.83C178.16,76.39,108.44,79.39,108.44,94.28Z"/><path class="cls-6" d="M154.79,81.2c.14,1.3.28,3.41.35,4.19,1,6.58,2.24,13,3.61,19.72.94,4.39,5.69,12.33,9.16,4.39,2-4.47,1.74-9.53,1.74-14.43-.08-3.18-.58-9-1-12C164.54,82,159.76,81.7,154.79,81.2Z"/><path class="cls-3" d="M151.6,1182.21c64.1,106.39,300.56,99.74,398.78,83.29,108.78-18.27,206.29-91.6,192.15-227.59-7.73-74.26-50.39-142.76-86.33-209.6C648,813,640,797.79,633,782.56c-6-12.93-13-27.51-20.72-43.39C566.92,645.7,497.13,509.08,475.25,428.44c-87.2,19.14-136.13,38.13-227.36,41.59,4.18,39.11-12,145.36-21.43,213.21-9.9,71.16-28.37,136.7-40.57,208.44-5.84,34.44,1.8,97.45,41.29,115l4.9.72C145.61,1009.19,100.8,1097.89,151.6,1182.21Z"/><path class="cls-7" d="M205.06,988.45c19.1-1.66,38.18-1.05,58.24,4.29,6.9,1.85,11-5.24,8.45-11-13.09-29.92-27-67.28-16.73-99.59,1.37,19.06,5.16,37.83,12.39,55.74,8.35,20.62,21.5,40.64,28.06,61.72,3.37,8.28,23.94,36.43,36.58,51.77-9-2.91-37.9-26.17-58.89-34.77-15.64-6.41-31.63-8.16-48.24-7.42a16,16,0,0,0-1.08-1.35C226.54,1007.6,211,996.26,205.06,988.45Z"/><path class="cls-8" d="M233.54,544.78c-2.37,11.12,7.74,17.27,18.5,15.63l255.59-22.3c10.77-1.63,13.46-6,12.08-15.12l-15.78-37.4c-6.3-13-14.91-12.07-25.67-10.44L266.64,490.63c-10.77,1.64-24.21-3.14-27.82,17.92Z"/><path class="cls-2" d="M421.38,360.88c1.45,14.6,21.48,98.14,14,121.07-11.82,36.36-83.49,40.84-115.83,23.75-18.65-9.87-13.7-32.85-9.54-49.76,6.79-27.61,10.59-55.06,18.51-82.34,7.37-25.39,23.33-76,43.91-79.38C403.56,289.13,419.53,342.15,421.38,360.88Z"/><path class="cls-2" d="M516.84,781.58c-11.31-29.45-24.13-65-44.19-17.49C449.48,818.9,486.44,874.63,529.8,907.7c23.12,17.63,74.35,2,59.94-31.23-5-11.46-33.79-26.77-42.94-39C534.09,820.47,524.46,801.34,516.84,781.58Z"/><path class="cls-2" d="M682.3,931.83a6.71,6.71,0,0,0-.57-1.45c-3.46-6.64-12.87-3.78-18.3-5.91-14.11-5.55-1-30.89-12.4-37.42-15.21-8.69-31.94,17.07-32.78,29-.58,8.2,1.52,21,6.24,28,9.9,14.58,32.66,10.54,45.65,3.14C674.87,944.52,684.06,938.41,682.3,931.83Z"/><path class="cls-2" d="M609.21,777.51c7.94,5.33,12,9.09,12.93,18.83.63,7.73-1.52,16.38,3.52,23.1,6.36,8.45,20.5,7.79,30.54,8.87C648,813,640,797.79,633,782.56c-6-12.93-13-27.51-20.72-43.39A22.63,22.63,0,0,0,605,741C582.21,750.44,595.07,768,609.21,777.51Z"/><path class="cls-2" d="M516.53,723c-5.09,4.33-11.09,2.06-15-2.65C479.73,693.83,530.32,711.23,516.53,723Z"/><path class="cls-2" d="M563.67,679.46c-.84,1.51-2.72,2.65-6,3.16-9,1.38-19.81-5-27.76-8.55-14.46-6.42-27.3-15.67-35.73-29.33-7.32-11.87-20.87-44.18-2.22-53.34,25.55-12.55,32.5,41.05,43.52,53.13,6,6.54,13.42,11.6,19.62,17.91C558.91,666.37,566.31,674.73,563.67,679.46Z"/><path class="cls-9" d="M484.63,663.3c-23.35-43-68-38.48-94.25-15C365,605,308.17,633.79,308.64,670.59c-24.13-12.6-53.34-3.9-71.63,14.6-18.33-47.33-87.76-61.22-123.83-28.7C86.23,594.21,5,645.41,33.93,691.58a49.54,49.54,0,0,0,3.64,5c-20.94,16-32.29,44-15.54,70.67,25.31,40.35,77.74,26.78,98.86-2.54,33.88,24.84,87.33,25.3,108.44-9.14,24.57,36.08,70.75,28,95.75,3.78a55.94,55.94,0,0,0,6.8,15.67c27.87,44.45,86.85,27.07,107.19-6.57,29.48,44.86,110.09,53.26,131.1,2.65C601.53,695.48,536.76,654,484.63,663.3Z"/><path class="cls-9" d="M594.06,255.72c16.26-30,3.81-74.64-28.47-87.2,11.49-25.9-5.14-64.33-39.26-60-11.51,1.44-19.92,6.78-25.57,14.07-5.09-11.91-13.5-22.12-24.83-28.16.61-32.89-22.45-67-61.52-62-27.21,3.42-42.49,21.93-47.61,43.33-16.91-26.31-63.32-33.09-78.5,1.69-13.08,30,9.84,55.17,34.77,61.42-7.52,33.05,9,72.63,43.2,74.38a88.84,88.84,0,0,0,14.59-.45c-13.28,51.79,47,125.22,106.78,116.12,2,34.43,22.33,66.9,57.1,68.67C644.55,402.63,648.36,289.77,594.06,255.72Z"/><path class="cls-10" d="M396.13,109.05c2.41-28,29.6-23.48,33.61,1.6,8.39-7.82,24.52-10,30.87,1.76,7.12,13.25-9,26.65-16.4,35.88"/><path class="cls-10" d="M503,181.72c9.67-11.34,28.41-4.93,20.9,10.52,14.19-7.1,21.32,8.4,13.07,19.06,24,1.66,19.16,24.07,4.26,35.22"/><path class="cls-10" d="M421.41,210.59c-17.49,8.59-16.68,35.59,5.94,30-8.74,20.07,26.89,30.2,36.14,10.91"/><path class="cls-10" d="M575.69,298.78c13.67,11.48,17.62,32-.38,41.42"/><path class="cls-10" d="M417.2,154.63c15.58-26.16,46.17.46,35.51,26.19"/><path class="cls-11" d="M421.8,47.88c-12-5.27-38.63,15.44-37.06,27.49"/><path class="cls-11" d="M307.76,75.91c12.59-14,28.7-11.68,39.85,1.78"/><path class="cls-11" d="M336.71,148.08c-2.56,14.47.49,26.1,9.66,38"/><path class="cls-11" d="M519.8,128.42c6-6.46,17.13-8,24.34-3"/><path class="cls-11" d="M587.8,216.13c3.38,8.07,1.59,19.1-3.48,26.43"/><path class="cls-11" d="M612.59,300.41c5.71,7.55,5.67,24.36,2.55,33.18"/><path class="cls-11" d="M614,344.87c-1.67,3.15-3.66,7.11-5,10.05"/><path class="cls-11" d="M435.94,302.17c-1.59,2.18,26.73,10,35.05,7.92"/><path class="cls-11" d="M505.17,342.12c2.49,12.29,5.26,23,14.93,32.41"/><path class="cls-11" d="M423.25,291.1a23.41,23.41,0,0,1-7.42-8.31"/><path class="cls-9" d="M1005.36,636.85c-11.56-32.15-53.16-52.56-84-36.84-11.67-25.81-51.41-39-70.94-10.67-6.58,9.54-8.2,19.38-6.53,28.45-12.26-4.14-25.49-4.66-37.52-.23-24.15-22.34-64.91-27.83-87.27,4.6-15.18,22-12.09,45.12-.29,63-30.78-4.48-66.25,25.51-50.5,59.79,13.6,29.6,47.4,29.39,68.67,15.16,19.37,28.3,60.6,43,85,18.33a82.4,82.4,0,0,0,13.7-18c29.47,38.26,98.1,59.2,138.16,26.8A116.32,116.32,0,0,0,993,767.88c26.64,19,62,23.73,85.34.15C1148.59,696.94,1066.93,619,1005.36,636.85Z"/><path class="cls-11" d="M730.76,635.34c-4,12.68-4.82,24,1.38,36.2"/><path class="cls-11" d="M734.93,624.9a9.6,9.6,0,0,1,7-7.67"/><path class="cls-11" d="M677.13,732.12c-1.72-14.13,10.64-26.58,23.68-29.25"/><path class="cls-11" d="M879.77,588c13.08-1.24,22.61,5.92,30.64,15.32"/><path class="cls-11" d="M965.42,613.76c6.73,1.53,17.4,9.85,22.27,16.71"/><path class="cls-11" d="M1048.28,654.13c12.57,4,23,12.69,30.64,24.38"/><path class="cls-11" d="M1086.57,690.36a18.72,18.72,0,0,1,4.87,11.83"/><path class="cls-10" d="M788.55,669.46c-15.3-8.69,8.43-31.9,21.49-14.84-1-23.77,23.7-13.89,33.41-4.86.34-30.55,49.08-13.54,28.64,15.52"/><path class="cls-10" d="M946.61,671.54c4.15-18.35,35-16.15,41.06-.59,21.36-19.4,50,9.79,30,31.24"/><path class="cls-10" d="M786.46,726.56c1.91-6.45-1.39-19.69,9.24-24.08,10.37-4.29,14.07,4.69,20.57,9.41,4.86-22.54,19.57-13.29,29.4-2.82,20.46-35.21,49.53,3.5,27.83,21.66"/><path class="cls-10" d="M728,732.12c-17.05-7.86,2.7-32.08,17.42-22.27"/><path class="cls-10" d="M923.64,690.36c8.06-11.86,27.79-10,30.64,4.86"/><path class="cls-11" d="M45.9,684.85c-8.4-9.1-5.53-21.46,1.05-31.34"/><path class="cls-11" d="M130.51,661.53c6.85-6.2,23.19-9.53,33.4-9.75"/><path class="cls-11" d="M175.41,651.43a33.11,33.11,0,0,1,7.66.7"/><path class="cls-11" d="M248.52,691.47c1.69-6.91,15.13-12.52,22.29-14.28"/><path class="cls-11" d="M324.42,672c-.95-10.15,6.59-21.79,16-25.41"/><path class="cls-11" d="M443.83,642.72c8.45,1.72,20.48,10.92,25.77,17.76"/><path class="cls-11" d="M522.87,676.15a75.69,75.69,0,0,1,31.33,24.37"/><path class="cls-11" d="M560.81,709.22a61.94,61.94,0,0,1,3.14,8"/><path class="cls-10" d="M72.71,736.73c-20.87-11.05-9.43-36.42,11-23.74-4.73-25.52,36.79-24.77,35.64.07"/><path class="cls-10" d="M397.19,685.21c-.86-17.41,27.25-20.06,33.37-6.18,13.76-11.5,22.93-7.17,29.41,7.45,6-1.49,17.09-4.72,22.68-.37,7.13,5.52,5.7,17.44-1.9,22.06"/><path class="cls-10" d="M305.28,709.57c-12.37,11.12-.27,29.76,13,17.42,2.68,9.16,12.34,11.53,20.13,7.15,8.6-4.87,9.3-14,8.63-23.17"/><path class="cls-10" d="M150.7,712.36c-3.21-12.83,7.35-22.16,18.1-11.84"/><path class="cls-3" d="M1049.75,1261.75c0,27-19.52,49-43.6,49H156.9c-24.1,0-43.61-21.93-43.61-49L72,876.76c0-27,19.53-49,43.62-49h931.84c24.08,0,43.62,21.94,43.62,49Z"/><path class="cls-12" d="M366.27,1221.34c-51.82-85.87-8.8-172.09,61.64-230,102.32-84.14,258.3-53.9,379.59-48.58,92.68,4,185.16-.63,277.83-1.49l5.74-64.51c0-27-19.54-49-43.62-49H115.61c-24.09,0-43.62,21.94-43.62,49l41.3,385c0,27,19.51,49,43.61,49H455.73C420,1286.53,388.25,1257.75,366.27,1221.34Z"/><path class="cls-3" d="M1163,869.94c0,24-22.28,43.45-49.77,43.45H49.78C22.28,913.39,0,894,0,869.94v-72.4c0-24,22.28-43.47,49.78-43.47H1113.27c27.49,0,49.77,19.46,49.77,43.47Z"/><path class="cls-13" d="M223.3,769.93c128.85.26,289,3.38,418,1,115.4-2.17,267.18-1.62,382.77-1.81,131.47-.22,113.38,10.87,133.75,33v-4.23c0-22.15-22.06-40.11-49.32-40.11H54.59c-27.26,0-49.33,18-49.33,40.11v.41C39.19,759.75,140.26,769.77,223.3,769.93Z"/><path class="cls-9" d="M192.15,44.94A44.94,44.94,0,1,1,147.21,0,44.94,44.94,0,0,1,192.15,44.94Z"/><path class="cls-11" d="M130.22,31.42c12.58-14,28.7-11.69,39.85,1.77"/></g></g></svg>