<svg xmlns="http://www.w3.org/2000/svg" viewBox="0 0 474.82 381.63"><defs><style>.cls-1{fill:#f03d15;}.cls-2{fill:#f0f1f1;}.cls-3{fill:#424243;}.cls-4{opacity:0.48;}.cls-5{fill:#9ed1e3;}.cls-6{opacity:0.57;}.cls-7{fill:#d0534f;}.cls-8{opacity:0.75;}.cls-9{fill:#f1e8da;}.cls-10{fill:#4f4f50;}.cls-11{opacity:0.77;}.cls-12{fill:#4e4e4e;}.cls-13{fill:#dcb89e;}.cls-14{fill:#cfad98;}.cls-15{fill:#d6ae98;}.cls-16{fill:#c47e78;}.cls-17{fill:#313130;}.cls-18{fill:#4f4f4f;}.cls-19{fill:#fff;}.cls-20{fill:#212121;}.cls-21{fill:#5e748c;}.cls-22{fill:#f4d45b;}.cls-23{fill:#dbb79c;}.cls-24{fill:#f9fbf8;}.cls-25{opacity:0.78;}.cls-26{opacity:0.73;}.cls-27{fill:#bcd589;}</style></defs><title>petshop1</title><g id="Object"><rect class="cls-1" x="40.2" y="15.08" width="400.32" height="321.49"/><path class="cls-1" d="M440.52,332.34h-384c-5,0-10.71-.79-15.65,0a5.14,5.14,0,0,1-.68,0l4.23,4.22V28.21c0-4,.69-8.64,0-12.56a2.72,2.72,0,0,1,0-.57L40.2,19.3h384c5,0,10.71.8,15.65,0a5.14,5.14,0,0,1,.68,0q-2.11-2.1-4.22-4.22V296.8c0,13-.59,26.19,0,39.19v.57c0,5.44,8.44,5.45,8.44,0V54.84c0-13,.59-26.18,0-39.19v-.57a4.29,4.29,0,0,0-4.22-4.23h-351c-16.18,0-32.52-.66-48.68,0H40.2A4.29,4.29,0,0,0,36,15.08V296.8c0,13-.59,26.19,0,39.19v.57a4.28,4.28,0,0,0,4.22,4.23h351c16.18,0,32.52.66,48.68,0,.23,0,.46,0,.68,0C446,340.79,446,332.34,440.52,332.34Z"/><rect class="cls-2" x="9.52" y="336.56" width="461.07" height="22.88"/><path class="cls-3" d="M13.74,359.44V336.56l-4.22,4.23H451.83c5.77,0,12.22.82,17.95,0a5.47,5.47,0,0,1,.81,0l-4.22-4.23v22.88c0,5.44,8.45,5.45,8.45,0V336.56a4.29,4.29,0,0,0-4.23-4.22H66.26c-18.6,0-37.34-.68-55.93,0-.27,0-.54,0-.81,0a4.29,4.29,0,0,0-4.22,4.22v22.88c0,5.44,8.44,5.45,8.44,0Z"/><g class="cls-4"><rect class="cls-3" x="6.27" y="374.68" width="213.28" height="6.95" rx="3.17"/></g><rect class="cls-5" x="163.68" y="119.95" width="247.42" height="193.88"/><path class="cls-3" d="M411.1,115.72H163.68a4.29,4.29,0,0,0-4.23,4.23V313.82a4.29,4.29,0,0,0,4.23,4.23H411.1a3.9,3.9,0,0,0,2.86-1.13l.14-.14.08-.08a3.91,3.91,0,0,0,1.14-2.88V120A4.28,4.28,0,0,0,411.1,115.72ZM327.23,309.6H167.9V124.17h239V309.6Z"/><g class="cls-6"><path class="cls-2" d="M293.51,132.37l-48.13,61.82L238.56,203c-1.65,2.12,1.32,5.13,3,3q24.07-30.9,48.14-61.82l6.81-8.75c1.65-2.12-1.32-5.13-3-3Z"/></g><rect class="cls-7" x="18.57" y="4.53" width="443.7" height="21.1"/><path class="cls-7" d="M465.37,1.67l-.14-.14-.08-.08A3.87,3.87,0,0,0,462.27.31H73.34c-18,0-36.06-.69-54,0-.25,0-.51,0-.76,0a4.29,4.29,0,0,0-4.23,4.22v21.1a4.29,4.29,0,0,0,4.23,4.22H407.51c17.95,0,36.06.69,54,0,.25,0,.51,0,.76,0a4.28,4.28,0,0,0,4.23-4.22V4.53A3.9,3.9,0,0,0,465.37,1.67ZM418.06,21.4H36.72c-4.43,0-9.33-.51-13.93-.31V8.76H407.51c16.8,0,33.73.58,50.54.1V21.4Z"/><path class="cls-7" d="M106.75,145.64h-3.3c-19.06,0-34.65,11.74-34.65,26.09v163h72.59v-163C141.39,157.38,125.8,145.64,106.75,145.64Z"/><path class="cls-3" d="M106.75,141.41c-12.24,0-24.54,2.55-33.63,11.35-6.38,6.18-8.54,13.69-8.54,22.29V334.77A4.28,4.28,0,0,0,68.8,339h72.59a4.29,4.29,0,0,0,4.23-4.23V183.27c0-7.65.78-15.64-2.74-22.7-6.55-13.16-22.25-19-36.13-19.16-5.44-.07-5.44,8.37,0,8.45,11.38.17,25.95,5.07,29.69,17.16,1.59,5.14.73,11.72.73,17V334.77l4.22-4.22H68.8L73,334.77V186.82c0-6.28-1.24-14.7,1-20.73,4.89-13,20.48-16.23,32.68-16.23C112.19,149.86,112.19,141.41,106.75,141.41Z"/><path class="cls-5" d="M128.19,195.8V175.47c0-8.25-9.81-15-21.79-15h-2.08c-12,0-21.79,6.75-21.79,15V195.8Z"/><path class="cls-3" d="M130.3,195.8v-17c0-7.26-2.25-12.8-8.88-16.65-13.07-7.61-40.87-4.69-41,14.53,0,6.37,0,12.74,0,19.11a2.14,2.14,0,0,0,2.11,2.11h45.66c2.72,0,2.72-4.22,0-4.22H82.53c.71.7,1.41,1.41,2.11,2.11V177.38c0-11,11.25-14.8,20.72-14.8s20.72,3.84,20.72,14.8V195.8C126.08,198.52,130.3,198.52,130.3,195.8Z"/><g class="cls-8"><path class="cls-9" d="M186.37,176c10.21,0,18.5,5.59,18.5,12.5v3.82c.38-.16.76-.32,1.12-.51,4.65-1,9.65-4.73,12.92-7.21a9.22,9.22,0,0,0,2-2,5.4,5.4,0,0,0,1.37-2.07,4.77,4.77,0,0,1-1,.32c-5.59,1-5-6.17-1-6.56a5.24,5.24,0,0,0-2.17-.86c-.29-.12-.6-.23-.92-.33a12.45,12.45,0,0,1-4.79-2.52,9.7,9.7,0,0,1-.6,1l-6.1-5.44s.59-.51,1.45-1.17a14.28,14.28,0,0,0-14.88-.46,8.43,8.43,0,0,1,1.71,2.17s-5.12,1.81-6.86,4.58c0,0-.25-.36-.58-.92a15.56,15.56,0,0,0-1.87,5.71c.21,0,.41,0,.62,0Zm23.26-4.77a1.38,1.38,0,1,1-1.38,1.38A1.37,1.37,0,0,1,209.63,171.22Z"/><path class="cls-9" d="M192.21,164.48a10.25,10.25,0,0,0-6.88-2.4c-2.05,2.22,0,6.39,1.15,8.23A15.08,15.08,0,0,1,192.21,164.48Z"/><path class="cls-9" d="M193.92,166.65a8.43,8.43,0,0,0-1.71-2.17,15.08,15.08,0,0,0-5.73,5.83c.33.56.58.92.58.92C188.8,168.46,193.92,166.65,193.92,166.65Z"/><path class="cls-9" d="M212.17,170.39l.17.14a12.37,12.37,0,0,0,.82-8.74c-1.25-.38-4.26,1.74-6.07,3.15A15.28,15.28,0,0,1,212.17,170.39Z"/><path class="cls-9" d="M211.74,171.55a9.7,9.7,0,0,0,.6-1l-.17-.14a15.28,15.28,0,0,0-5.08-5.45c-.86.66-1.45,1.17-1.45,1.17Z"/><path class="cls-10" d="M209.63,174a1.38,1.38,0,1,0-1.38-1.37A1.37,1.37,0,0,0,209.63,174Z"/><path class="cls-10" d="M222.24,176.65a5.33,5.33,0,0,1,0,3.83c2.84-1.21,3.21-4.84-.35-6a4.12,4.12,0,0,0-1.72-.21A5.22,5.22,0,0,1,222.24,176.65Z"/><path class="cls-10" d="M221.24,180.8a4.77,4.77,0,0,0,1-.32,5.33,5.33,0,0,0,0-3.83,5.22,5.22,0,0,0-2-2.41C216.24,174.63,215.65,181.79,221.24,180.8Z"/><path class="cls-9" d="M204.87,192.31a14.11,14.11,0,0,1-5.58,1.16c-8.19,0-14.82-6.91-14.82-15.43a16.7,16.7,0,0,1,.14-2c-7.66.17-14.15,3.47-16.7,8.08v39.26c2.62,4.74,9.39,8.12,17.32,8.12h1.14c5.75,0,10.89-1.78,14.29-4.57-4.66-1-11.29-3.55-9.24-8l1.47,1.13a20.65,20.65,0,0,0,11,2.91,8.84,8.84,0,0,0,1-4Z"/><path class="cls-9" d="M199.29,193.47a14.11,14.11,0,0,0,5.58-1.16v-3.82c0-6.91-8.29-12.5-18.5-12.5h-1.14c-.21,0-.41,0-.62,0a16.7,16.7,0,0,0-.14,2C184.47,186.56,191.1,193.47,199.29,193.47Z"/><path class="cls-9" d="M200.66,226.91a22.33,22.33,0,0,0,3.23.48c7.84.39,13.7-6.35,16.56-12.89,2.36-5.42,4-16.49-3.89-18.82-2-.59-11.8-.44-9.32,3.91,2,3.45,7.07-1,9.77.56,3.4,2,2.18,7.73,1.36,10.75-2.17,7.93-8,11.81-14.47,12A12.08,12.08,0,0,1,200.66,226.91Z"/><path class="cls-9" d="M192.89,220l-1.47-1.13c-2,4.46,4.58,7,9.24,8a12.08,12.08,0,0,0,3.24-4A20.65,20.65,0,0,1,192.89,220Z"/></g><g class="cls-11"><path class="cls-12" d="M290.1,309.45l.35-20.83s-2-6.68-8.91-2l.12,22.81Z"/><path class="cls-12" d="M319.82,309.45V286.64c-6.93-4.7-8.52,2-8.52,2l.34,20.83Z"/><rect class="cls-12" x="277.44" y="269.04" width="47.89" height="30.82" rx="8"/><path class="cls-13" d="M273.19,228.9c-2.77-4.12-6.66-7.41-9.8-11.24-2.84-3.44-5.84-7.15-10.4-8.21-4.28-1-9.71.25-12.87,3.45-1.54,1.56-1.16,3-2,4.79s-2.74,1.87-3.91,3.29c-2.05,2.47-.05,3.09,2.14,2.69,4.38-.81,7.54-3.06,11.92-1.37,1.16.44,3.9,2.31,5.12,1.16s-.52-3.23-1.45-4l-.14-.22c2.64,2.7,6.11,4.34,8.94,6.8s5.27,5.8,7.74,8.82C269.2,234.38,273.74,229.75,273.19,228.9Z"/><path class="cls-13" d="M325.8,239.62c0,10.58-10.79,19.12-24,19.09h-.46c-13.24,0-24-8.64-23.93-19.21l.1-38.66c0-10.58,10.79-19.12,24-19.09H302c13.24,0,23.95,8.64,23.92,19.21Z"/><rect class="cls-13" x="293.06" y="196.65" width="17.17" height="48.58" transform="translate(79.9 521.99) rotate(-89.85)"/><path class="cls-13" d="M277.66,209.11s-5.55.14-5.56,5.56,5.53,5.34,5.53,5.34Z"/><path class="cls-14" d="M276.51,211.35s-3.26.08-3.27,3.27,3.25,3.15,3.25,3.15Z"/><path class="cls-13" d="M325.32,209.24s5.54.16,5.53,5.59-5.56,5.31-5.56,5.31Z"/><path class="cls-14" d="M326.45,211.48s3.27.1,3.26,3.29-3.27,3.13-3.27,3.13Z"/><rect class="cls-13" x="287.04" y="189.41" width="29.02" height="48.58" rx="2.14" transform="translate(87.05 514.68) rotate(-89.85)"/><path class="cls-15" d="M287.74,198.29a36.55,36.55,0,0,1,1.13-3.79c.88-2.46,2.14-4.75,3-7.18s3-3.66,4.83-5.06c-1.08.37-2.24.13-3.32.46a36.27,36.27,0,0,0-6.49,2.91c-3.39,1.81-6.77,4.22-8.24,7.89-1.92,4.79-1.39,10.1-1.27,15.13.17,6.92,0,13.84,0,20.76,0-.43,5.67.18,6.17.18,1.2,0,3.31.61,3.77-.79.55-1.67-1.11-4.44-1.1-6.24C286.22,214.51,285.82,206.17,287.74,198.29Z"/><polygon class="cls-16" points="297.03 219.53 303.04 219.55 303.07 209.06 297.03 219.53"/><rect class="cls-9" x="299.11" y="222.64" width="4.96" height="2.63" rx="1.27" transform="translate(76.94 525.02) rotate(-89.87)"/><path class="cls-17" d="M291.35,210.63a1.63,1.63,0,1,1-1.63-1.64A1.63,1.63,0,0,1,291.35,210.63Z"/><path class="cls-18" d="M290.62,210.7a.91.91,0,1,1-.9-.91A.9.9,0,0,1,290.62,210.7Z"/><path class="cls-19" d="M290.56,209.94a.47.47,0,1,1-.47-.47A.47.47,0,0,1,290.56,209.94Z"/><path class="cls-17" d="M315.23,210.7a1.63,1.63,0,0,1-3.26,0,1.63,1.63,0,1,1,3.26,0Z"/><path class="cls-18" d="M314.51,210.77a.91.91,0,1,1-.91-.91A.9.9,0,0,1,314.51,210.77Z"/><path class="cls-19" d="M314.44,210a.47.47,0,1,1-.46-.47A.47.47,0,0,1,314.44,210Z"/><path class="cls-20" d="M325.77,208.18a30.36,30.36,0,0,0,.21-4.58,36,36,0,0,0-.43-6.47c-1-5.64-5.28-10.55-10.31-13a30.87,30.87,0,0,0-18-3.05,29.57,29.57,0,0,0-9.94,3.25c-2.89,1.72-5.63,3.62-7.49,6.49-2.56,3.95-2.61,8.77-2.67,13.36,0,.33.2,4,.11,4.23h0a24.37,24.37,0,0,0,4.32-1.26c6.53-2.1,37.3-8.24,36.86-13.24,0,0-1.07,15.08,6.37,14.95a1.28,1.28,0,0,0,.58.13l.19,0,.37,0-.14-.47A1.78,1.78,0,0,1,325.77,208.18Z"/><path class="cls-17" d="M287.75,207.9h4.55a.69.69,0,0,0,0-1.38h-4.55a.69.69,0,0,0,0,1.38Z"/><path class="cls-17" d="M312.26,207.39l.06-.06.1-.09c-.08.07,0,0,0,0a3.8,3.8,0,0,1,.74-.4,2.55,2.55,0,0,1,2.54.56c.68.56,1.67-.41,1-1a4,4,0,0,0-3.68-1,4.28,4.28,0,0,0-1.75,1c-.64.61.33,1.59,1,1Z"/><rect class="cls-13" x="300.04" y="212.22" width="0.5" height="34.01" transform="translate(70.27 528.9) rotate(-89.85)"/><polygon class="cls-13" points="325.58 245.23 325.61 232.81 325.61 232.81 325.58 245.23 325.58 245.23"/><polygon class="cls-13" points="325.47 285.11 325.57 248.68 325.57 248.68 325.47 285.11"/><polygon class="cls-21" points="277.32 232.68 283.27 232.7 283.28 229.43 277.32 229.41 277.18 284.98 325.47 285.11 277.18 284.98 277.32 232.68"/><rect class="cls-21" x="319.82" y="227" width="3.27" height="8.32" transform="translate(89.44 552) rotate(-89.85)"/><path class="cls-21" d="M285.93,232.71l15,12.52H304a10.57,10.57,0,0,0,8.44-10.06v-2.39h4.8v-3.27l-34-.09v3.27Z"/><polygon class="cls-21" points="317.26 245.23 325.58 245.23 325.61 232.81 317.29 232.79 317.26 245.23"/><polygon class="cls-21" points="277.38 248.68 277.38 245.23 283.24 245.23 283.27 232.7 277.32 232.68 277.18 284.98 325.47 285.11 325.57 248.68 277.38 248.68"/><path class="cls-21" d="M317.29,232.79h-4.8v2.39A10.57,10.57,0,0,1,304,245.23h13.22Z"/><polygon class="cls-21" points="285.93 232.71 283.27 232.7 283.24 245.23 300.89 245.23 285.93 232.71"/><polygon class="cls-19" points="325.57 248.68 325.62 248.68 325.62 245.23 325.58 245.23 325.57 248.68"/><polygon class="cls-19" points="325.58 245.23 325.57 248.68 325.57 248.68 325.58 245.23 325.58 245.23"/><path class="cls-19" d="M304,245.23h-3.15l.39.33A11.85,11.85,0,0,0,304,245.23Z"/><polygon class="cls-19" points="317.25 246.79 283.24 246.7 283.24 245.23 277.38 245.23 277.38 248.68 325.57 248.68 325.58 245.23 317.26 245.23 317.25 246.79"/><path class="cls-19" d="M317.25,246.79v-1.56H304a11.85,11.85,0,0,1-2.76.33l-.39-.33H283.24v1.47Z"/><rect class="cls-16" x="286.6" y="215.39" width="6.04" height="2.37" rx="0.84"/><rect class="cls-16" x="310.99" y="215.39" width="6.04" height="2.37" rx="0.84"/><path class="cls-21" d="M313.19,172.28c-7.76-4.41-21.12-5.48-26.9,3.42,0,0-11.72,11.53,39.32,23.74C325.61,187.73,324,178.45,313.19,172.28Z"/><polygon class="cls-21" points="277.32 229.41 273.24 227.05 265.61 237.86 277.65 243.91 277.32 229.41"/><path class="cls-22" d="M325.61,199.9s-38.46,1.48-48.1,0c0,0-12.73-10.21-3.09-20C282.51,171.64,316,186.55,325.61,199.9Z"/><path class="cls-23" d="M317.12,283.9a.8.8,0,0,0-.07,1.11l3.21,3.76a.76.76,0,0,0,1.08.07l4.39-4a.8.8,0,0,0,.07-1.11L322.59,280a.76.76,0,0,0-1.08-.07Z"/><path class="cls-13" d="M326,240.86s15.12,20.53-4.54,39l4.33,4.85s12.74-11.48,12.74-27-12.88-28.05-12.88-28.05Z"/><path class="cls-21" d="M328.65,246.3h7.8a26.47,26.47,0,0,0-11-16.88l.14,11.22A30.27,30.27,0,0,1,328.65,246.3Z"/><polygon class="cls-24" points="319.52 281.69 323.9 286.54 325.82 284.7 321.43 279.85 319.52 281.69"/></g><rect class="cls-2" x="167.15" y="224.25" width="241.57" height="10.66"/><path class="cls-3" d="M408.72,232.79H167.15l2.11,2.11V224.25l-2.11,2.11H408.72l-2.11-2.11V234.9c0,2.72,4.22,2.72,4.22,0V224.25a2.15,2.15,0,0,0-2.11-2.12H167.15a2.15,2.15,0,0,0-2.11,2.12V234.9a2.14,2.14,0,0,0,2.11,2.11H408.72C411.44,237,411.44,232.79,408.72,232.79Z"/><g class="cls-6"><path class="cls-2" d="M304.34,146.52q-16.45,21.14-32.92,42.28c-1.65,2.12,1.32,5.13,3,3l32.92-42.27c1.65-2.13-1.32-5.14-3-3Z"/></g><g class="cls-25"><rect class="cls-9" x="275.63" y="251.1" width="131.39" height="5.95"/><rect class="cls-9" x="284.93" y="257.06" width="6.76" height="52.39"/><rect class="cls-9" x="312.19" y="257.06" width="6.76" height="52.39"/><rect class="cls-9" x="339.46" y="257.06" width="6.76" height="52.39"/><rect class="cls-9" x="366.72" y="257.06" width="6.76" height="52.39"/><rect class="cls-9" x="393.98" y="257.06" width="6.76" height="52.39"/></g><g class="cls-26"><path class="cls-9" d="M230.88,302.44c-5.66-.42-3.33-7.21.63-6.61a5.22,5.22,0,0,0-1.89-1.37,8.14,8.14,0,0,0-.81-.54,12.79,12.79,0,0,1-4.16-3.8,14.72,14.72,0,0,0-10.55-10.73,14.33,14.33,0,0,0-8.42.43l.17.13c1.2.95,1.4,2.67,1.43,4.2a48.82,48.82,0,0,1-2.19,15.56,16.38,16.38,0,0,1-1.84,4.22q1.73,2.64,3.28,5.38a14.73,14.73,0,0,0,3.27.42h.43a14.54,14.54,0,0,0,3.16-.39c4.74.21,10.51-2.21,14.3-3.8a9.36,9.36,0,0,0,2.45-1.49,5.34,5.34,0,0,0,1.84-1.66A5,5,0,0,1,230.88,302.44Zm-9.61-11a11.16,11.16,0,0,1-6.61,1.52c-.67-.05-.67-1.11,0-1.05a10.2,10.2,0,0,0,6.08-1.39A.53.53,0,0,1,221.27,291.47Z"/><path class="cls-10" d="M233.13,296.45a4.09,4.09,0,0,0-1.62-.62,5.16,5.16,0,0,1,1.36,2.83,5.29,5.29,0,0,1-.89,3.73C235,301.91,236.28,298.49,233.13,296.45Z"/><path class="cls-10" d="M232.87,298.66a5.16,5.16,0,0,0-1.36-2.83c-4-.6-6.29,6.19-.63,6.61a5,5,0,0,0,1.1-.05A5.29,5.29,0,0,0,232.87,298.66Z"/><path class="cls-10" d="M220.74,290.55a10.2,10.2,0,0,1-6.08,1.39c-.67-.06-.67,1,0,1.05a11.16,11.16,0,0,0,6.61-1.52A.53.53,0,0,0,220.74,290.55Z"/><path class="cls-9" d="M206.78,309.73l-.25-.42h-.05a14.34,14.34,0,0,1-5.67-2.93,10.31,10.31,0,0,1-11.65.11,8.32,8.32,0,0,1-3.38-5.37c-.36-2.5.64-5,1.88-7.18a31,31,0,0,1,3.21-4.57,30.15,30.15,0,0,0-12.27-1.2c-2.62.29-5.37,1-7.15,3a19.68,19.68,0,0,0-3.54,5.49v13.1Z"/><path class="cls-9" d="M203.21,304a8.73,8.73,0,0,1-2.4,2.37,14.34,14.34,0,0,0,5.67,2.93h.05q-1.56-2.74-3.28-5.38A.16.16,0,0,1,203.21,304Z"/><path class="cls-10" d="M192.49,290c1,1.13,2,2.31,3,3.48a15.7,15.7,0,0,1,10.19-13.62l-.21-.17a31.24,31.24,0,0,0-14.6,9.71,28.7,28.7,0,0,1,3.35,1.25Z"/><path class="cls-10" d="M195.93,290.69a15.58,15.58,0,0,0-.44,2.75,108.82,108.82,0,0,1,7.76,10.49,16.38,16.38,0,0,0,1.84-4.22,48.82,48.82,0,0,0,2.19-15.56c0-1.53-.23-3.25-1.43-4.2l-.17-.13A15.57,15.57,0,0,0,195.93,290.69Z"/><path class="cls-10" d="M185.78,301.11a8.32,8.32,0,0,0,3.38,5.37,10.31,10.31,0,0,0,11.65-.11,15.34,15.34,0,0,1-5.32-12.93c-1-1.17-2-2.35-3-3.48l1.73.65a28.7,28.7,0,0,0-3.35-1.25,31,31,0,0,0-3.21,4.57C186.42,296.12,185.42,298.61,185.78,301.11Z"/><path class="cls-10" d="M200.81,306.37a8.73,8.73,0,0,0,2.4-2.37.16.16,0,0,0,0-.07,108.82,108.82,0,0,0-7.76-10.49A15.34,15.34,0,0,0,200.81,306.37Z"/></g><rect class="cls-5" x="82.53" y="212.32" width="45.66" height="99.97"/><path class="cls-3" d="M128.19,310.18H82.53l2.11,2.12v-100l-2.11,2.12h45.66l-2.11-2.12v100c0,2.71,4.22,2.72,4.22,0v-100a2.14,2.14,0,0,0-2.11-2.11H82.53a2.14,2.14,0,0,0-2.11,2.11v100a2.14,2.14,0,0,0,2.11,2.11h45.66C130.91,314.41,130.91,310.18,128.19,310.18Z"/><rect class="cls-2" x="163.3" y="40.03" width="247.8" height="65.46"/><path class="cls-3" d="M411.1,103.37H163.3l2.11,2.12V40c-.71.7-1.41,1.41-2.11,2.11H411.1c-.71-.7-1.41-1.41-2.11-2.11v65.46c0,2.71,4.22,2.72,4.22,0V40a2.14,2.14,0,0,0-2.11-2.11H163.3A2.14,2.14,0,0,0,161.18,40v65.46a2.15,2.15,0,0,0,2.12,2.11H411.1C413.82,107.6,413.82,103.37,411.1,103.37Z"/><path class="cls-3" d="M175.37,92.08V53.25h10.86a11.36,11.36,0,0,1,4.53.92,11.71,11.71,0,0,1,3.69,2.51,12.13,12.13,0,0,1,2.48,3.71,11.2,11.2,0,0,1,.92,4.54,11.69,11.69,0,0,1-.89,4.53,11.23,11.23,0,0,1-2.49,3.69,12.16,12.16,0,0,1-3.69,2.48,11,11,0,0,1-4.5.93H183.1V92.08Zm7.73-23.31h3.13A3.76,3.76,0,0,0,189,67.64a3.69,3.69,0,0,0,1.13-2.71A3.84,3.84,0,0,0,186.23,61H183.1Z"/><path class="cls-3" d="M201.44,53.25h23.41V61H209.17v7.73h15.68v7.79H209.17v7.73h15.68v7.79H201.44Z"/><path class="cls-3" d="M247.08,61v31h-7.74V61H228.43V53.25H258V61Z"/><path class="cls-3" d="M285.85,76.21a11.22,11.22,0,0,1-3.51-1.53,12.7,12.7,0,0,1-2.81-2.56A11.38,11.38,0,0,1,277,64.91a11.36,11.36,0,0,1,.92-4.53,12,12,0,0,1,2.49-3.7,11.51,11.51,0,0,1,3.68-2.51,11.37,11.37,0,0,1,4.54-.92,19.16,19.16,0,0,1,6.43,1.08,18.75,18.75,0,0,1,5.5,3L295,62.93a11.92,11.92,0,0,0-3-1.38,11.19,11.19,0,0,0-3.4-.51,3.84,3.84,0,0,0-3.9,3.89,4,4,0,0,0,.92,2.51,4.33,4.33,0,0,0,2.3,1.33,20.1,20.1,0,0,0,2.86.41,12.77,12.77,0,0,1,4.42,1,11.23,11.23,0,0,1,3.55,2.33A10.89,10.89,0,0,1,301.12,76a11.79,11.79,0,0,1-.05,9,11.58,11.58,0,0,1-6.16,6.17,11.2,11.2,0,0,1-4.53.93A18.8,18.8,0,0,1,283,90.63a19.33,19.33,0,0,1-6-4l5.48-5.49a11.69,11.69,0,0,0,3.61,2.3,11.35,11.35,0,0,0,4.33.82,3.68,3.68,0,0,0,2.71-1.12,3.74,3.74,0,0,0,1.13-2.77,4.09,4.09,0,0,0-.36-1.68,2.62,2.62,0,0,0-1.18-1.28,5.33,5.33,0,0,0-1.58-.59,16.94,16.94,0,0,0-1.8-.26l-1.84-.15A13.5,13.5,0,0,1,285.85,76.21Z"/><path class="cls-3" d="M305.62,53.25h7.74V68.77h14.13V53.25h7.74V92.08h-7.74V76.56H313.36V92.08h-7.74Z"/><path class="cls-3" d="M358.2,53.25a18.53,18.53,0,0,1,7.52,1.54,19.54,19.54,0,0,1,10.33,10.34,19.18,19.18,0,0,1,0,15.06,19.68,19.68,0,0,1-4.16,6.17,20,20,0,0,1-6.17,4.18,19.13,19.13,0,0,1-15,0,19.81,19.81,0,0,1-6.16-4.18,19.54,19.54,0,0,1-4.17-6.17,19.18,19.18,0,0,1,0-15.06,19.63,19.63,0,0,1,10.33-10.34A18.53,18.53,0,0,1,358.2,53.25Zm0,7.79a11.2,11.2,0,0,0-4.54.92A12.28,12.28,0,0,0,350,64.43a11.67,11.67,0,0,0-2.51,3.68,11.59,11.59,0,0,0,0,9,11.76,11.76,0,0,0,6.22,6.21,11.64,11.64,0,0,0,9.07,0,11.58,11.58,0,0,0,3.69-2.5,12.13,12.13,0,0,0,2.48-3.71,11.59,11.59,0,0,0,0-9A11.52,11.52,0,0,0,362.76,62,11.19,11.19,0,0,0,358.23,61Z"/><path class="cls-3" d="M381.23,92.08V53.25h10.85a11.37,11.37,0,0,1,4.54.92,11.67,11.67,0,0,1,3.68,2.51,12.16,12.16,0,0,1,2.49,3.71,11.37,11.37,0,0,1,.92,4.54,11.69,11.69,0,0,1-.89,4.53,11.23,11.23,0,0,1-2.49,3.69,12.16,12.16,0,0,1-3.69,2.48,11,11,0,0,1-4.5.93H389V92.08ZM389,68.77h3.12a3.76,3.76,0,0,0,2.77-1.13A3.69,3.69,0,0,0,396,64.93a3.84,3.84,0,0,0-3.9-3.89H389Z"/><rect class="cls-2" x="376.67" y="272.42" width="90.37" height="10.48"/><path class="cls-3" d="M467.05,280.79H376.67l2.12,2.12V272.42l-2.12,2.12h90.38l-2.12-2.12v10.49c0,2.71,4.23,2.72,4.23,0V272.42a2.14,2.14,0,0,0-2.11-2.11H376.67a2.14,2.14,0,0,0-2.11,2.11v10.49a2.14,2.14,0,0,0,2.11,2.11h90.38C469.76,285,469.77,280.79,467.05,280.79Z"/><rect class="cls-2" x="385.55" y="282.8" width="72.62" height="53.58"/><path class="cls-3" d="M458.17,334.27H385.55l2.11,2.12V282.8l-2.11,2.12h72.62l-2.11-2.12v53.59c0,2.71,4.22,2.72,4.22,0V282.8a2.14,2.14,0,0,0-2.11-2.11H385.55a2.14,2.14,0,0,0-2.11,2.11v53.59a2.14,2.14,0,0,0,2.11,2.11h72.62C460.89,338.5,460.89,334.27,458.17,334.27Z"/><path class="cls-27" d="M462.73,272.18c0-.49.06-1,.06-1.49a22.13,22.13,0,0,0-20.48-21.94,22.38,22.38,0,0,0-41.65,3.07h-.3A19.31,19.31,0,0,0,380.93,271c0,.4,0,.79,0,1.18Z"/><path class="cls-3" d="M464.84,272.18c.51-13.45-9.3-24.15-22.53-25.54l1.82,1c-9.88-19.73-38.79-17.26-45.51,3.57l2-1.55c-12.4-.3-22.21,10.33-21.8,22.48a2.14,2.14,0,0,0,2.11,2.11h81.76c2.72,0,2.73-4.22,0-4.22H381l2.11,2.11c-.33-9.91,7.41-18.5,17.58-18.25a2.17,2.17,0,0,0,2-1.55c4.73-14.68,24.06-19.3,34.52-7.54,1.63,1.82,2.5,5.11,4.81,6,1.46.56,3.3.48,4.85,1a20,20,0,0,1,13.74,20.37C460.52,274.9,464.74,274.89,464.84,272.18Z"/><rect class="cls-2" x="2.11" y="275.79" width="80.44" height="9.33"/><path class="cls-3" d="M82.55,283H2.11l2.11,2.11v-9.33L2.11,277.9H82.55l-2.11-2.11v9.33c0,2.72,4.22,2.73,4.22,0v-9.33a2.14,2.14,0,0,0-2.11-2.11H2.11A2.14,2.14,0,0,0,0,275.79v9.33a2.14,2.14,0,0,0,2.11,2.11H82.55C85.27,287.23,85.27,283,82.55,283Z"/><rect class="cls-2" x="10.01" y="285.03" width="64.63" height="47.69"/><path class="cls-3" d="M74.65,330.61H10l2.12,2.11V285L10,287.14H74.65c-.71-.7-1.41-1.4-2.11-2.11v47.69c0,2.72,4.22,2.73,4.22,0V285a2.14,2.14,0,0,0-2.11-2.11H10A2.14,2.14,0,0,0,7.9,285v47.69A2.14,2.14,0,0,0,10,334.83H74.65C77.37,334.83,77.37,330.61,74.65,330.61Z"/><path class="cls-27" d="M78.71,275.57c0-.43.05-.87.05-1.32a19.7,19.7,0,0,0-18.23-19.53,19.92,19.92,0,0,0-37.07,2.73h-.27A17.19,17.19,0,0,0,5.9,274.53c0,.35,0,.7,0,1Z"/><path class="cls-3" d="M80.82,275.57c.46-12.12-8.4-21.67-20.29-23l1.82,1c-8.94-17.73-34.81-15.48-40.93,3.24l2-1.55c-11.16-.28-20,9.29-19.64,20.23a2.16,2.16,0,0,0,2.12,2.12H78.71c2.72,0,2.72-4.23,0-4.23H5.94c.7.71,1.4,1.41,2.11,2.11-.29-8.68,6.49-16.23,15.41-16a2.16,2.16,0,0,0,2-1.55c4.32-13.23,22-17,30.89-5.94,1.32,1.64,1.84,4,3.86,4.72,2.88,1.1,5.55,1,8.31,2.8a17.71,17.71,0,0,1,8,16C76.49,278.29,80.72,278.29,80.82,275.57Z"/></g></svg>