<svg xmlns="http://www.w3.org/2000/svg" viewBox="0 0 872.34 550.62"><defs><style>.cls-1{isolation:isolate;}.cls-2,.cls-3,.cls-5{fill:#f03d15;}.cls-3{opacity:0.5;mix-blend-mode:multiply;}.cls-4{opacity:0.6;}.cls-4,.cls-5{mix-blend-mode:overlay;}.cls-5{opacity:0.7;}</style></defs><title>pets</title><g class="cls-1"><g id="_1" data-name="1"><path class="cls-2" d="M296.58,192.61l7.18,35.92.76,39.48C284.89,227.48,296.58,192.61,296.58,192.61Z"/><path class="cls-2" d="M410.82,195.6l-16.4,32.71-11.18,37.85C412.78,232.32,410.82,195.6,410.82,195.6Z"/><path class="cls-2" d="M340.5,8.39c-7-2.57,7,23.23,7,23.23l24.25,30C366.56,46.88,347.5,11,340.5,8.39Z"/><path class="cls-2" d="M368.12,109.62,340.83,306.46s52-47.09,66.73-90.7S386.33,124.29,368.12,109.62Z"/><path class="cls-2" d="M367.93,112.3,362.7,150c.3,1.1.61,2.2.94,3.31,9.66,31.66,31.87,52,47.18,42.28C412.87,154.13,383,124.42,367.93,112.3Z"/><path class="cls-2" d="M368.12,109.62l-5.22,37.71c.29,1.1.6,2.2.94,3.31,9.65,31.66,31.87,52,47.17,42.29C413.06,151.45,383.18,121.75,368.12,109.62Z"/><path class="cls-2" d="M387.28,128.45c13.16,28.45,15.88,58.19,21.7,56.72.82-.2,1.44-1.07,1.88-2.48C409.15,160.31,398.46,141.88,387.28,128.45Z"/><path class="cls-2" d="M356,196.8l-15.2,109.66s26-23.53,46.42-52.73C374.42,246,362.59,224.45,356,196.8Z"/><path class="cls-2" d="M386.67,164.34c-6.8-2.9-18.24,2.47-27.87,10.92l-20.27,128.9c23-20.19,34.24-35.21,45.28-58.07C408.48,195,402.12,171,386.67,164.34Z"/><path class="cls-2" d="M346.46,399.09c-23.4-10.81-36.4-58.67-33.37-93.79a320.75,320.75,0,0,1,16-76.81s3.9,48.25,3.9,71.79S325.66,384.42,346.46,399.09Z"/><path class="cls-2" d="M331.25,363.77c.84,2.5,1.61,5,2.32,7.39-3.73-23.92-.55-55.4-.55-70.88,0-23.54-3.9-71.79-3.9-71.79a320.75,320.75,0,0,0-16,76.81,133.66,133.66,0,0,0,.05,22C318.79,333.69,325.73,347.3,331.25,363.77Z"/><path class="cls-2" d="M346.46,399.09c-10-7-13.48-24.65-14.41-43.67-2.71,5.18-4.66,13.09-5.34,22.3C332,387.73,338.64,395.48,346.46,399.09Z"/><path class="cls-2" d="M317.12,380.06c-20-17.23-21.36-68.27-10.3-102.22A320.9,320.9,0,0,1,340,206.24s-7.44,48.87-12.9,72.2S300.55,359.73,317.12,380.06Z"/><path class="cls-2" d="M321,300.92c2.45-8.88,4.74-16.74,6.09-22.48,5.46-23.33,6.21-70.49,6.21-70.49-34.44,56.19-34.84,93.6-33.2,124.1C305.69,314.21,313.85,301.72,321,300.92Z"/><path class="cls-2" d="M303.61,355.36c2.79,10.52,7.23,19.28,13.51,24.7-8.24-10.1-7.16-29.5-3.33-49.32C308.81,332.84,304.53,342.9,303.61,355.36Z"/><path class="cls-2" d="M339.09,378.63c-10.83-14.28-30.14-92-8-160.74l48.34,18.32s-32.5,50.18-38.56,75.27C335.08,335.22,339.09,378.63,339.09,378.63Z"/><path class="cls-2" d="M333.2,269c4.84,0,9.09,12.29,11.5,30.8,10.56-26.36,34.69-63.62,34.69-63.62l-48.34-18.32c-9.14,28.4-11.19,58.34-9.7,84.72C323.69,282.56,328.12,269,333.2,269Z"/><path class="cls-2" d="M328.25,350c3.46,14.06,7.54,24.3,10.84,28.64,0,0-3.3-35.76.39-60.12C334.59,323,330.3,334.9,328.25,350Z"/><polygon class="cls-2" points="369.86 504.71 379.39 509.21 376.79 283.94 372.89 284.69 369.86 504.71"/><path class="cls-2" d="M377.53,321.8l-.74-37.86-3.9.75-1.08,45.85A98,98,0,0,1,377.53,321.8Z"/><path class="cls-2" d="M325.66,312.25s-33.63-76.2-31.2-123.12c1.29-25.09,13.16-63.85,47.26-75.53,5.63-1.93,4.68,36.29-3.49,56.23C320,214.21,325.66,312.25,325.66,312.25Z"/><path class="cls-2" d="M324.16,176.4c-17.78,10,2.84,105-22.47,66.38,9.26,36.14,24,69.47,24,69.47S329.33,204.79,324.16,176.4Z"/><path class="cls-2" d="M341.72,117.23c-34.1,11.68-46,50.44-47.26,75.53-.13,2.49-.16,5.07-.09,7.71,14.13-.65,30.71-10.86,44.08-27.58C346.41,152.8,347.29,115.32,341.72,117.23Z"/><path class="cls-2" d="M341.72,113.6c-34.1,11.68-46,50.44-47.26,75.53-.13,2.49-.16,5.07-.09,7.71,14.13-.65,30.71-10.87,44.08-27.59C346.41,149.17,347.29,111.69,341.72,113.6Z"/><polygon class="cls-2" points="299.12 198.58 301.99 182.9 302.77 195.91 299.12 198.58"/><path class="cls-2" d="M332.15,254.07s2.77,13.25,5.64,13.15c5-.17,2-12.64,2-12.64Z"/><path class="cls-2" d="M327.05,223.55c-1.94,19.69-.15,36,10.38,37.91,4.5.81,11.2-24.28,11.2-24.28Z"/><path class="cls-2" d="M352.55,254.55s-6.16,12-3.87,13.76a3.37,3.37,0,0,0,5.17-1.86c.85-3.3,5.37-7.1,5.37-7.1Z"/><path class="cls-2" d="M380.65,232.23c-5.16,15.22-14.72,30.92-27.46,29.4-5.39-.65,3.2-25,3.2-25Z"/><path class="cls-2" d="M380.37,240.64c6.25-10.87,24.19-38.66,18.54-66.82-6.49-32.4-23.13-43-24.85-69.68l-43.59-3.44c13.77,19.21-4.1,41.79-8.5,66.59-3.2,18-4.21,40.53.1,69.22.69,5,4.49,14.06,6.68,13.31,1.32-.46,1.31-8,1.76-12.2,0,0-.21,10,4,11.62,4.9,1.95,6.64-6,6.64-6s-2.44,6.25,1.39,7.16,8.82-6.74,8.82-6.74-4.67,6.42.07,7,12.36-9.77,12.36-9.77-4.63,7.14-2,8.34C368.38,254.11,377.58,245.49,380.37,240.64Z"/><path class="cls-2" d="M398.91,173.82c-4-20-11.88-31.71-17.73-44-10.59-6.27-34.24,6.17-43.16,19.93-23,35.55,23.27,87.22,53.62,69.86C397.43,206.68,402.22,190.32,398.91,173.82Z"/><path class="cls-2" d="M322.44,200.92c0-46,19.2-83.31,42.87-83.31a24.22,24.22,0,0,1,12.22,3.46,62.13,62.13,0,0,1-3.47-16.93l-43.59-3.44c13.77,19.21-4.1,41.79-8.5,66.59-3.2,18-4.21,40.53.1,69.22.69,5,4.49,14.06,6.68,13.31.45-.16.74-1.14.95-2.51C325.12,234.05,322.44,218.09,322.44,200.92Z"/><path class="cls-2" d="M319.27,194.48c8.34-36.41,36.11-61.21,62.57-55.56a36,36,0,0,1,4.62,1.32c-5.88-11.41-11.44-21.27-12.4-36.1l-43.59-3.44c13.77,19.21-4.1,41.79-8.5,66.59A183.19,183.19,0,0,0,319.27,194.48Z"/><path class="cls-2" d="M352.27,265.59l-3.59,2.72s6.46,4.88,9.61,8.46l9,.86S358.29,269.89,352.27,265.59Z"/><path class="cls-2" d="M356.46,268.74c-1.46-1.14-3-3.66-4.29-4.58l-3.49,4.15a100.81,100.81,0,0,1,7.8,6.6A12.5,12.5,0,0,1,356.46,268.74Z"/><path class="cls-2" d="M301.39,279.66c11.67-13.08,63.27,0,78.87-1.55s45.07-1.92,45.5,3.86-24.26,12.74-50.27,7.34C375.49,289.31,288,294.71,301.39,279.66Z"/><path class="cls-2" d="M400.75,285.94c-8.82.37-16.75-.33-22-1.74-6.2,1.77-16.63,2.83-28.08,2.61-17.57-.34-30.88-3.57-29.73-7.21.74-2.31,7.08-4.22,16.08-5.23-15.46-1.23-30.06-.94-35.61,5.29-13.44,15,74.2,10.68,74.2,10.68,26,5.41,50.61-2.58,50.17-8.37a1.78,1.78,0,0,0-.32-.86C420.71,283.57,411.46,285.49,400.75,285.94Z"/><path class="cls-2" d="M335.08,289.85c-5.19-4.74.95-12.84,5.18-14.27,0,0,.9-4.95-6.89-.51s-7.49,10.32-3.56,13.22A8,8,0,0,0,335.08,289.85Z"/><path class="cls-2" d="M357.48,276.55c5.81,3.85,1.17,9.8-2.7,10.72,0,0-.06,3.76,6.77.69s5.58-7.6,1.29-10A10.81,10.81,0,0,0,357.48,276.55Z"/><path class="cls-2" d="M341.05,273.6c7.29,3.42,5.94,11.88,2.81,13.92,0,0,1.8,4.67,6.61-.73s1.41-10.72-3.75-12.68S341.05,273.6,341.05,273.6Z"/><path class="cls-2" d="M360.44,277.44c8.05.1,10.32,8.36,8.31,11.51,0,0,3.57,3.51,5.72-3.4s-3.14-10.34-8.65-10S360.44,277.44,360.44,277.44Z"/><path class="cls-2" d="M368.56,61c-29.87-17.14-43.77,8.49-46.37,17.37s3.32,22.25,8.32,27.42c9.54,9.87,32.63,13.67,43.26.94C376.21,103.81,394.13,75.65,368.56,61Z"/><path class="cls-2" d="M309.19,0c-6.07-.39,11.7,19.68,15.17,22.38,0,0-32.51-17.75-37.27-15s10.83,25.86,41.6,39.75c0,0-27.3-8.87-29.47-4.63s8.24,10.42,8.24,10.42-16.47,0-15.61,5.41S317.56,65,322.32,89.7l54.91-21C365.09,49.41,325.13,1,309.19,0Z"/><path class="cls-3" d="M378.84,124.54c-.18-.18-2.51-7.74-2.69-7.91s-.17-.61-.24-.91-.14-.5-.2-.76a.36.36,0,0,0,0-.1c-.1-.4-.19-.8-.28-1.2s-.15-.68-.22-1a.07.07,0,0,0,0,0c-.07-.38-.14-.76-.22-1.14l-.21-1.25v0c-.06-.35-.12-.69-.17-1-.07-.51-.13-1-.2-1.55v0c0-.28-.07-.56-.1-.84-.09-.84-.16-1.69-.22-2.55l-43.59-3.44a26.72,26.72,0,0,1,5.1,15.4c-29.4,14-39.9,49.51-41.11,73-.07,1.19-.1,2.4-.12,3.63V193c0,2.35,0,4.77.16,7.23C315.42,155.84,364.51,133,378.84,124.54Z"/><path class="cls-2" d="M319.29,78.9c3.73,7.46-1.11,30.46.57,33.27,3.44,5.73,9.75,0,9.75,0s-9.46,12-6.88,13.19,10.61-3.44,10.61-3.44-2.58,5.16-.29,6.31c5.2,2.59,16.64-7.17,16.64-7.17s-3.16,4.87,2.29,5.16,21.79-16.92,27-29.25Z"/><path class="cls-2" d="M323.54,99.57c-8.13,7-20.23,2.79-14.57-7,4.54-7.84,13.83-17,13.83-17Z"/><path class="cls-2" d="M362,111.25c.69,11,12.34,17.31,15.46,6.33,2.51-8.81,3-28.07,3-28.07Z"/><path class="cls-2" d="M378.84,100.7s-13.19,14.53-25.43,14.53,4.4-28.87,4.4-28.87Z"/><path class="cls-2" d="M315.79,71.88c-18.4-3.68-19,2.53-6.61,9.55,7.21,4.09,14.5,7.31,14.5,7.31Z"/><path class="cls-2" d="M340.41,263.14,336.06,265s2.21,5.54,2,9.44l7,.63S343,265.94,340.41,263.14Z"/><path class="cls-2" d="M342.13,267.21a3.31,3.31,0,0,1,.55.05c-.68-1.68-1.45-4.08-2.27-5L335.57,265a23.21,23.21,0,0,1,2.26,6.35C338.55,268.9,340.21,267.21,342.13,267.21Z"/><path class="cls-2" d="M358.38,275.3c6.34,5.41,2.22,13.7-1.64,15,0,0,.33,5.25,7,1s4.77-12.7.14-16.06S358.38,275.3,358.38,275.3Z"/><path class="cls-2" d="M343.68,274.73c7.66,3.3,6.17,12.43,2.86,14.77,0,0,1.86,4.92,7-1.11s.8-13.55-4.62-15.39S343.68,274.73,343.68,274.73Z"/><path class="cls-2" d="M362.32,277.3c8.67-.46,12.18,8.31,10.44,11.86,0,0,4.3,3.54,5.7-4.08s-6.48-12.39-12.35-11.63S362.32,277.3,362.32,277.3Z"/><path class="cls-2" d="M340.43,274.66c-8.68,1.6-9.95,11-7.33,14,0,0-3.36,4.47-6.66-2.62s3.29-13.59,9.28-14.24S340.43,274.66,340.43,274.66Z"/><path class="cls-2" d="M344.53,274.34l-4.88-.15c-.58.9-1,5.18-1.72,8.89-.83,4.6-1.62,8.73.76,9.37,2.64.7,4.85-3,5.84-8C345.15,281.25,345.47,277.38,344.53,274.34Z"/><path class="cls-2" d="M313.73,279.76c0-2.41-3-3.7-6.65-2.88s-6.59,3.42-6.56,5.82,3,3.7,6.66,2.89S313.76,282.17,313.73,279.76Z"/><path class="cls-2" d="M340.41,8.36c-6.5-2.16,3,14.63,5.79,20.89a14.4,14.4,0,0,1,1.1-1.11C345.88,24.7,337.93,10.79,340.41,8.36Z"/><path class="cls-2" d="M288.57,7.07a3.06,3.06,0,0,0-1.48.27C282.34,10,297.8,33,328.31,46.91c.22-1.11.19-1.12.47-2.2C311.12,33,297.84,18.75,288.57,7.07Z"/><path class="cls-2" d="M328.83,64.7c1.43-4.2-1.35-13.61-.53-17.73-3.32-1.06-27.06-8.46-29.08-4.51-2.16,4.25,8.24,10.42,8.24,10.42s-16.47,0-15.61,5.41c.57,3.51,11.28,5.3,20,12.92-14.46-2-14.07,3.74-2.67,10.22,1.91,1.08,3.82,2.1,5.6,3A64.31,64.31,0,0,0,309,92.59c-4.87,8.41,3.41,12.67,11,9.25-.43,5.09-.76,9.24-.11,10.33,3.44,5.73,9.75,0,9.75,0s-9.46,12-6.88,13.19,10.61-3.44,10.61-3.44-2.58,5.16-.29,6.31c5.2,2.59,16.64-7.17,16.64-7.17s-3.16,4.87,2.29,5.16c2.46.13,7.13-3.3,12-8.24,3.63,6.24,11,8,13.44-.4a39.4,39.4,0,0,0,.9-4C351.09,118.67,316.52,100.89,328.83,64.7Z"/><path class="cls-2" d="M360.57,84.84c-8.12,7.38,1.25,24.58,11.77,20.16,8.44-3.55,16.71-19.36,16.71-19.36Z"/><path class="cls-2" d="M357.51,92.14c12.31-.73,20.71.65,26.19,2.51,3.31-4.58,6.21-8.94,6.21-8.94l-29.34-.87A9.63,9.63,0,0,0,357.51,92.14Z"/><path class="cls-2" d="M373.49,103.52c-9.24,3.88-17.58-8.9-14-17.07-6.1,7.86,2.84,23.18,12.84,19,6.54-2.75,13-12.86,15.54-17.27-.67,1.09-1.64,1.49-2.54,2.79C382.17,95.52,377.94,101.64,373.49,103.52Z"/><path class="cls-2" d="M292,57c.1,4,30,13.18,36.34,14.46l.1-15S316.21,53.25,306,52.92C298.39,52.67,292,54.81,292,57Z"/><path class="cls-2" d="M358.4,88.27c-6.14,12.62-22.77,16.82-28.55,5.73S325.8,64,334,56.82c17.4-15.41,34.56,10,34.56,10Z"/><path class="cls-2" d="M362,57.68c-5.36,3.44,1.91,10.71,4.21,9.94l9.93-1.15C380.75,55.77,367.37,54.24,362,57.68Z"/><path class="cls-2" d="M364.7,56.54a4.29,4.29,0,0,0-.2,1.24c0,3.75,5,6.78,11.09,6.78.42,0,.83,0,1.24,0C378.72,56.94,370.34,55,364.7,56.54Z"/><path class="cls-2" d="M345.91,69.85c.34-2.69-.76-5.31-2.56-5.85s-3.87,1.42-4.22,4.46,1,5.61,3,5.84S345.57,72.52,345.91,69.85Z"/><path class="cls-2" d="M344.1,67.82a2,2,0,0,0-1-2.19c-.73-.22-1.48.5-1.62,1.63s.37,2.09,1.11,2.19S344,68.81,344.1,67.82Z"/><path class="cls-2" d="M366.54,60.68c-.45-1.16-1.43-2-2.22-1.82s-1.16,1.37-.64,2.66,1.59,2,2.37,1.73S367,61.82,366.54,60.68Z"/><path class="cls-2" d="M368.68,65.92c-11.35,2.18-12.87,24.4-12.87,24.4l1.61-.09C358.39,84.06,361.46,70.81,368.68,65.92Z"/><path class="cls-2" d="M356.86,90.32s2.17-22.77,13-24.7,24.27,8.49,24.7,35.89C394.56,101.51,392.39,88,356.86,90.32Z"/><path class="cls-2" d="M394.5,101.28a1.13,1.13,0,0,1,.06.23c-.43-27.4-13.87-37.82-24.7-35.89-3.92.7-6.7,4.12-8.66,8.21C375.08,74.32,392.33,87.57,394.5,101.28Z"/><path class="cls-2" d="M358.62,90.3a1.88,1.88,0,1,0-1.46,2.58A2.14,2.14,0,0,0,358.62,90.3Z"/><path class="cls-2" d="M299.88,42.15c-1,3.87,22.85,12.52,28.58,15.53l2.83-10.8S300.89,38.27,299.88,42.15Z"/><path class="cls-2" d="M359.18,90.59a2,2,0,0,0,.5-2.7,2,2,0,0,0-2.77.14,1.94,1.94,0,0,0-.5,2.69A2,2,0,0,0,359.18,90.59Z"/><path class="cls-2" d="M375.68,68.13c.64-.64-4.19-2.24-6.05-1.69s-2.72,1.8-1.69,2.13S375.1,68.7,375.68,68.13Z"/><path class="cls-2" d="M336.28,67.8c-2.24,5.4-3.12,21.2,8.39,16.3l-.08-.17C335,87.32,334.68,74.16,336.28,67.8Z"/><path class="cls-2" d="M346.86,74.06c2.57-4.28,5.3-17.48-5-14.8l.05.15C350.38,57.76,349,68.9,346.86,74.06Z"/><polygon class="cls-2" points="310.78 193.99 314.8 176.21 314.58 191.74 310.78 193.99"/><polygon class="cls-2" points="403.31 196.33 403.74 183 405.7 195.93 403.31 196.33"/><path class="cls-2" d="M381.8,196.19a77.88,77.88,0,0,1-12.33,29.25l6,6C382.66,216.55,381.8,196.19,381.8,196.19Z"/><path class="cls-2" d="M342.87,179.92a77.92,77.92,0,0,1-7.18,30.92l7,4.91C347.18,199.83,342.87,179.92,342.87,179.92Z"/><path class="cls-2" d="M392.72,195.76a77.86,77.86,0,0,1-15.8,27.53l5.25,6.71C391.09,216.07,392.72,195.76,392.72,195.76Z"/><path class="cls-2" d="M361.4,180.41c-5.71,24.36-17.64,40.24-17.64,40.24l6.9,8.92C360.74,209.12,361.4,180.41,361.4,180.41Z"/><path class="cls-2" d="M729.67,458.73l-2,.57c.85,1.9,1.8,5.23,3.51,4.56S729.67,458.73,729.67,458.73Z"/><path class="cls-2" d="M688.14,461.25c-2.14,1.42-6.7.14-1-3.43,2.6-1.63,4.57,2.85,11,4.28,1.15.26.29,3,.29,3Z"/><path class="cls-2" d="M660.43,462.65l-5.49-5.29s-4.8,19.47-2.7,28.34l6.51-2.49S655.63,475.43,660.43,462.65Z"/><path class="cls-2" d="M724.23,445.84,717,444.27s5.55,13.51,11.63,16.93l3.34-2.09S725.66,455.25,724.23,445.84Z"/><path class="cls-2" d="M604.55,535.42h79.17l-24-26.11s4.28-21,9-25.67l12.84-8.56,41.51-9.41,14.12-7.28s36.8-20.11,73.6-2.14l18-3,5.56.85,17.54-9.84-19.68,7.27s-36.8-.85-43.65-8.56c0,0-31.67-1.28-62.48,18.83l-9.41,3.43s-23.54-.86-28.67-5.14c0,0-30.38,23.11-50.92,30l-12,16.69-3.43,11.12S606.27,526.43,604.55,535.42Z"/><path class="cls-2" d="M716.67,465.24s-23.54-.86-28.67-5.14c0,0-30.38,23.11-50.92,30l-12,16.69-3.09,10c11.54-11.46,13.82,11.35,61.71,18.66L663.46,509.1s.58-20.76,5.28-25.46l12.84-8.56,41.51-9.41,14.12-7.28a92.53,92.53,0,0,1,31.73-9.14,35.83,35.83,0,0,0-3.63-3.67,117.69,117.69,0,0,0-39.23,16.23Z"/><path class="cls-2" d="M778.58,432c-1-6.27-8.13-2.56-8.13-2.56s2.53-22.64-44.37-29.67c-5.7-.86,1.15,20,1.15,20s-16.55-41.94-57.63-30.81S604,477.65,628,504.46s88.15,34.24,103-4c2.57-6.2,3.71-18.69-5.7-22.68-13.47-5.71-28.53,14.12-20.68,24.53s14.7,3.44,16.47-1.06c3.93-10-3.92-14-7.13-13.27s-3.78,5.63-1.71,6.77,2.28,4.43.78,5.71-5.13,1.29-5-5.71,8.77-12,15.26-9.12c14.54,6.39-16.81,55.52-68.46,25.38-24-14-15.85-40.19-1.72-43.93,9.7-2.57,42.51-18.83,58.49-19.4s29.38,7.42,46.78-2S779.16,435.68,778.58,432Z"/><path class="cls-2" d="M729.16,497.43c-14.83,38.23-76.84,28.79-100.81,2-.94-1.06-4-.19-4.78-1.41a30.21,30.21,0,0,0,4.38,6.46c24,26.82,88.15,34.24,103-4,2.05-4.94,3.18-13.84-1.18-19.29C731.93,486.5,730.86,493.33,729.16,497.43Z"/><path class="cls-2" d="M725.45,416.69s-.21-.64-.53-1.69c-.52-1-1.12-2-1.83-3.15A48,48,0,0,1,725.45,416.69Z"/><path class="cls-2" d="M770.11,425.8a20.3,20.3,0,0,0-3.21-7.15,15.56,15.56,0,0,1,1.77,7.74A11.34,11.34,0,0,1,770.11,425.8Z"/><path class="cls-2" d="M711,492.13a2.87,2.87,0,0,0,1.18,2.61A3.84,3.84,0,0,0,711,492.13Z"/><path class="cls-2" d="M778.58,432a4.14,4.14,0,0,0-1.79-3.1.13.13,0,0,0,0,.06c2.86,4.61-1.4,6-18.8,15.39s-32.26-.27-48.24.3-49.15,16.26-58.85,18.83c-6.86,1.82-16,2.29-17.12,10.92-1.35,10.78,4.6,18.29,8.27,23.71-6.58-13.28,1.15-27.5,11.58-30.25,9.7-2.58,42-18.64,58-19.21s29.31,6.46,46.71-2.95S779.16,435.68,778.58,432Z"/><path class="cls-2" d="M724.77,486.63a5.69,5.69,0,0,0-3.31-4c-6.49-2.85-15.12,2.14-15.26,9.13-.08,3.63.87,5.37,2,6a13.64,13.64,0,0,1-.23-3,8.87,8.87,0,0,1,1.37-4.51c-.54-1.9.38-4.77,2.78-5.3a5.79,5.79,0,0,1,3.37.51,10.61,10.61,0,0,1,7.74.18A5.29,5.29,0,0,1,724.77,486.63Z"/><path class="cls-2" d="M721.87,498.34c.69-3.63-.35-6.25-2-8a11.64,11.64,0,0,1-.66,7.83c-1.75,4.44-8.42,11.26-16.11,1.54a10.11,10.11,0,0,0,1.41,2.57c3.32,4.42,6.46,5.7,9.13,5.38A37.13,37.13,0,0,0,721.87,498.34Z"/><path class="cls-2" d="M751,420.42c-1.65-5.45-6.63-8.68-11.14-7.22s-6.82,7.07-5.18,12.53,6.63,8.68,11.14,7.22S752.62,425.87,751,420.42Z"/><path class="cls-2" d="M682,398.47c26.44,0,30.41,3.23,37.86,8.58-8.46-11.31-24.54-26.56-50.22-19.6-41.08,11.12-65.62,90.2-41.65,117s88.15,34.24,103-4c2.57-6.2,3.71-18.69-5.7-22.68a12.7,12.7,0,0,0-4.64-1c-2.21,3.65,1,4.37,4.2,6.21,17.74,10.14-19.7,62.22-75.72,32.57C606.79,493.18,626,398.47,682,398.47Z"/><path class="cls-2" d="M762.36,434.18c2.33-2,6.26-3.56,11.14-4.52a35.12,35.12,0,0,1,3.65-.51c-2.39-2-6.7.29-6.7.29s2.33-20.95-39.23-28.8C742,403.24,768.64,423.31,762.36,434.18Z"/><path class="cls-2" d="M639,479.73a19.34,19.34,0,0,1,10.64-12.64c-2.18-7-12.52-7-16-1.52C630.53,470.61,633.76,476.58,639,479.73Z"/><path class="cls-2" d="M648.05,464.15a26.65,26.65,0,0,1-7,6.66,28.55,28.55,0,0,1-7.37,3.64,16.85,16.85,0,0,0,6.57,7.12c1.53-6.08,5.35-11.15,10.2-13.5A6.32,6.32,0,0,0,648.05,464.15Z"/><path class="cls-2" d="M708.1,433.38c-6.46-.24-11.69,4.54-11.69,10.68a10.86,10.86,0,0,0,1,4.53,59.32,59.32,0,0,1,14-2.16,57.73,57.73,0,0,1,8.17.64,10.51,10.51,0,0,0,.22-2.12C719.79,438.81,714.55,433.63,708.1,433.38Z"/><path class="cls-2" d="M704.67,444.25c-4.35,0-4.82-2.27-7.38-4.4-1.19,2.7-1.73,6.57-.41,9.47,5.27-1.32,10.57-2.39,14.45-2.38,2.79,0,9,.2,11.69.57-2.47-2.09-3.31-5.25-4.41-7.44C716.05,442.06,708.87,444.25,704.67,444.25Z"/><path class="cls-2" d="M750.33,419c-1.69-5.19-6.49-8.28-10.72-6.9S733.33,418.79,735,424s6.49,8.28,10.72,6.91S752,424.19,750.33,419Z"/><path class="cls-2" d="M750.33,419a11.49,11.49,0,0,0-2.28-4c.11,3.94-1.86,7.43-5.17,8.51-3,1-6.18-.27-8.43-2.86A11.44,11.44,0,0,0,735,424c1.69,5.19,6.49,8.28,10.72,6.91S752,424.19,750.33,419Z"/><path class="cls-2" d="M747.44,420.41c-1.06-3.22-4-5.15-6.67-4.29s-3.91,4.16-2.86,7.39,4,5.15,6.67,4.3S748.49,423.64,747.44,420.41Z"/><path class="cls-2" d="M740.78,416.44c2.55-.83,5.4.84,6.68,3.77,0,0,0,0,0-.06-1.1-3.36-4.21-5.37-6.94-4.47s-4.08,4.34-3,7.71c.08.24.17.47.26.69C736.73,420.74,738.06,417.33,740.78,416.44Z"/><path class="cls-2" d="M744,425.34c-1.74.67-3.8-.39-4.81-2.39a.06.06,0,0,1,0,0c.9,2.31,3.15,3.6,5,2.87s2.67-3.19,1.78-5.51c-.07-.16-.14-.32-.22-.47C746.65,422.18,745.86,424.61,744,425.34Z"/><path class="cls-2" d="M744.1,421a1.8,1.8,0,1,0-1.13,2.35A1.84,1.84,0,0,0,744.1,421Z"/><path class="cls-2" d="M736.93,440.56s-11.13-12.83-12.84-27.1l2.85,4.56S731.08,434,736.93,440.56Z"/><path class="cls-2" d="M710.19,442.53c1.87-1.09,4.66-6.89.15-6.88s-14.15,2-22.57-1.48-8,5.11-2.41,7.32S703.57,446.38,710.19,442.53Z"/><path class="cls-2" d="M710.47,441.52c-6.62,3.86-19.73-.49-25.3-2.7a6.58,6.58,0,0,1-3.73-3.68c-.64,2,.87,5.14,3.92,6.35,5.57,2.2,19.26,5.56,25.89,1.71A.93.93,0,1,0,710.47,441.52Z"/><path class="cls-2" d="M697.7,464.52c-3.71-4.56-20-25.38-15.83-30.24s16.26,26.39,20.68,30Z"/><path class="cls-2" d="M692.73,447.29c.74,3.49.56,6-.69,6.61-.82.37-2-.2-3.29-1.46,3.57,5.31,7.38,10.15,9,12.08l4.85-.28C700.45,462.55,696.62,454.63,692.73,447.29Z"/><path class="cls-2" d="M677.8,480.43c1.58,0,1.25-3.58-1.06-6.17a10.21,10.21,0,0,0-5.33-2.64c-5-.95-3.82,2-3.82,2a15.2,15.2,0,0,1,6,2.38C675.65,477.55,676.37,480.43,677.8,480.43Z"/><path class="cls-2" d="M704.64,474.65c1.47.59,2.48-2.87,1.29-6.13a10.31,10.31,0,0,0-4-4.42c-4.28-2.71-4.28.42-4.28.42a15.23,15.23,0,0,1,4.71,4.43C703.7,471.18,703.31,474.12,704.64,474.65Z"/><path class="cls-2" d="M681.45,469.16c-3.85-2.94-11,.41-13.21,1.63l2,1.86s4.79-3.41,8.84-.73C682.83,474.41,685.31,472.1,681.45,469.16Z"/><path class="cls-2" d="M712,466.61c-2-4.42-9.84-4.84-12.41-4.84l.86,2.56s5.83-.71,8.13,3.57C710.73,471.89,714,471,712,466.61Z"/><path class="cls-2" d="M736.79,457.94c-1.71-3.28-7.33-1.68-9.64-.84l1.73,2.42s4.16-2.6,6.33.37C736.81,462.09,738.17,460.57,736.79,457.94Z"/><path class="cls-2" d="M724.87,464.33c-1.84-3.2,2-6.49,3.64-7.74l1.15,2.71s-3.92,1.62-2.53,5C728.15,466.77,726.34,466.9,724.87,464.33Z"/><path class="cls-2" d="M636,472.54c9.09-.63,13.69-19.34,19.63-20,2.2-.23,3.37-8.46.54-8.59s-15.31,10.86-20.72,20.46C632.33,470,633.7,472.7,636,472.54Z"/><path class="cls-2" d="M657.38,444.81c-.21,2-1,3.89-2,4-5.93.64-9.22,22.3-18.29,22.94-1.19.08-5.11,3.18-3,2.55,19.39-5.69,15.8-21,21.73-21.65C657.66,452.46,658.61,446.94,657.38,444.81Z"/><path class="cls-2" d="M656.19,444c-3-.56-5.81,8.64-1.93,9.06s8.88,13.56,12,21.85L671,471.8C668.23,463.51,659.22,444.55,656.19,444Z"/><path class="cls-2" d="M661.68,451.2c1.73,6.06,1.91,11.4.58,13.59,1.48,3.45,2.85,7.09,4,10.1L671,471.8A148.17,148.17,0,0,0,661.68,451.2Z"/><path class="cls-2" d="M668.9,486.23c-.85,1.4-3.8-.68-4.81-4a10.43,10.43,0,0,1,.58-6c1.87-4.88,3.79-2.39,3.79-2.39a15.65,15.65,0,0,0-1.17,6.5C667.56,482.88,669.67,485,668.9,486.23Z"/><path class="cls-2" d="M755.71,442.48l-.85-1c.62-2.7,7.77-9.26,15.61-12.76l.31.51C762.58,432.94,758.85,436.2,755.71,442.48Z"/><path class="cls-2" d="M767.31,423.37c-1,2-3.9-5.32-3.33-6.08C764,417.29,768.54,420.9,767.31,423.37Z"/><path class="cls-2" d="M640.14,411.78c9.72-12.16,24.62-24.86,41-25.28,17.3-.45,29.34,11.34,29.34,11.34C683.11,383.26,663.1,388.61,640.14,411.78Z"/><g class="cls-4"><path class="cls-2" d="M707.37,421.92a.89.89,0,1,0,.89-.89A.88.88,0,0,0,707.37,421.92Z"/><path class="cls-2" d="M691,430.92a.89.89,0,1,0,.89-.89A.88.88,0,0,0,691,430.92Z"/><path class="cls-2" d="M714,412.92a.89.89,0,0,0,1.77,0,.89.89,0,1,0-1.77,0Z"/><path class="cls-2" d="M725,439.34a.89.89,0,1,0,.89-.89A.89.89,0,0,0,725,439.34Z"/><path class="cls-2" d="M745.13,409.11a.89.89,0,1,0,.89-.88A.89.89,0,0,0,745.13,409.11Z"/><path class="cls-2" d="M756.73,421.28a.89.89,0,1,0,.88-.89A.88.88,0,0,0,756.73,421.28Z"/><path class="cls-2" d="M766.8,434.78a.89.89,0,1,0,.89-.89A.88.88,0,0,0,766.8,434.78Z"/><path class="cls-2" d="M700.78,430.22a.89.89,0,0,0,1.77,0,.89.89,0,1,0-1.77,0Z"/><path class="cls-2" d="M730.68,410.26a.89.89,0,1,0,.89-.89A.88.88,0,0,0,730.68,410.26Z"/><path class="cls-2" d="M721.43,427.55a.89.89,0,1,0,.89-.88A.89.89,0,0,0,721.43,427.55Z"/><path class="cls-2" d="M751.21,432.69a.89.89,0,1,0,.89-.89A.88.88,0,0,0,751.21,432.69Z"/><path class="cls-2" d="M740.76,439a.89.89,0,1,0,1.77,0,.89.89,0,0,0-1.77,0Z"/><path class="cls-2" d="M732,446.94a.89.89,0,1,0,.88-.88A.88.88,0,0,0,732,446.94Z"/><path class="cls-2" d="M730.68,427a.89.89,0,1,0,.89-.88A.89.89,0,0,0,730.68,427Z"/><path class="cls-2" d="M748.17,442.76a.89.89,0,1,0,.89-.89A.89.89,0,0,0,748.17,442.76Z"/><path class="cls-2" d="M680.12,409.3a.89.89,0,1,0,.89-.88A.89.89,0,0,0,680.12,409.3Z"/><path class="cls-2" d="M664.34,410.32a.89.89,0,1,0,.89-.89A.89.89,0,0,0,664.34,410.32Z"/><path class="cls-2" d="M676.57,397.52a.89.89,0,1,0,.89-.89A.89.89,0,0,0,676.57,397.52Z"/><path class="cls-2" d="M665.12,398.52a.89.89,0,1,0,.89-.89A.88.88,0,0,0,665.12,398.52Z"/><path class="cls-2" d="M706.35,402.65a.89.89,0,1,0,.89-.88A.89.89,0,0,0,706.35,402.65Z"/><path class="cls-2" d="M695.9,409a.89.89,0,1,0,.89-.89A.89.89,0,0,0,695.9,409Z"/><path class="cls-2" d="M696.28,394.86a.89.89,0,1,0,.89-.89A.88.88,0,0,0,696.28,394.86Z"/><path class="cls-2" d="M687.16,416.91A.89.89,0,1,0,688,416,.88.88,0,0,0,687.16,416.91Z"/><path class="cls-2" d="M676.57,427.55a.89.89,0,1,0,.89-.88A.89.89,0,0,0,676.57,427.55Z"/><path class="cls-2" d="M685.82,397a.89.89,0,1,0,.89-.89A.89.89,0,0,0,685.82,397Z"/><path class="cls-2" d="M671.57,418.62a.89.89,0,1,0,.88-.89A.89.89,0,0,0,671.57,418.62Z"/><path class="cls-2" d="M700.65,417.48a.89.89,0,1,0,.89-.89A.88.88,0,0,0,700.65,417.48Z"/><path class="cls-2" d="M668.15,452.33a.89.89,0,1,0,.88-.89A.88.88,0,0,0,668.15,452.33Z"/><path class="cls-2" d="M676.51,439.15a.89.89,0,1,0,.89-.89A.89.89,0,0,0,676.51,439.15Z"/><path class="cls-2" d="M679.55,447.7a.89.89,0,1,0,.89-.89A.89.89,0,0,0,679.55,447.7Z"/><path class="cls-2" d="M668.91,428.89a.89.89,0,0,0,1.77,0,.89.89,0,1,0-1.77,0Z"/><path class="cls-2" d="M658.45,435.22a.89.89,0,1,0,.89-.89A.89.89,0,0,0,658.45,435.22Z"/><path class="cls-2" d="M654.09,411.85A.89.89,0,1,0,655,411,.89.89,0,0,0,654.09,411.85Z"/><path class="cls-2" d="M658.83,421.09a.89.89,0,1,0,.89-.89A.89.89,0,0,0,658.83,421.09Z"/><path class="cls-2" d="M641.72,415.2a.89.89,0,1,0,.89-.89A.89.89,0,0,0,641.72,415.2Z"/><path class="cls-2" d="M650.28,443.52a.89.89,0,1,0,.88-.88A.89.89,0,0,0,650.28,443.52Z"/><path class="cls-2" d="M641.15,450.68a.89.89,0,1,0,.89-.89A.89.89,0,0,0,641.15,450.68Z"/><path class="cls-2" d="M631.27,457.91a.89.89,0,0,0,1.77,0,.89.89,0,1,0-1.77,0Z"/><path class="cls-2" d="M627.66,477.1a.89.89,0,1,0,.89-.88A.89.89,0,0,0,627.66,477.1Z"/><path class="cls-2" d="M633,485.23a.89.89,0,1,0,.88-.88A.88.88,0,0,0,633,485.23Z"/><path class="cls-2" d="M638.56,508.91a.89.89,0,1,0,.88-.88A.88.88,0,0,0,638.56,508.91Z"/><path class="cls-2" d="M653.89,514.36a.89.89,0,1,0,1.77,0,.89.89,0,0,0-1.77,0Z"/><path class="cls-2" d="M630.57,501.31a.89.89,0,1,0,.89-.89A.89.89,0,0,0,630.57,501.31Z"/><path class="cls-2" d="M659.85,521.27a.89.89,0,1,0,.88-.89A.88.88,0,0,0,659.85,521.27Z"/><path class="cls-2" d="M673.91,522.22a.89.89,0,1,0,.89-.89A.89.89,0,0,0,673.91,522.22Z"/><path class="cls-2" d="M688.87,524.88a.89.89,0,1,0,.88-.89A.88.88,0,0,0,688.87,524.88Z"/><path class="cls-2" d="M700.4,521.08a.89.89,0,0,0,1.77,0,.89.89,0,1,0-1.77,0Z"/><path class="cls-2" d="M713.65,518.54c.1.35.62.5,1.15.34s.88-.57.78-.92-.63-.49-1.16-.33S713.54,518.2,713.65,518.54Z"/><path class="cls-2" d="M719.47,509.57c.18.24.64.2,1-.09s.55-.72.38-1-.64-.2-1,.09S719.29,509.32,719.47,509.57Z"/><path class="cls-2" d="M729.11,498.28a.78.78,0,0,0,.48,1c.35.06.69-.29.77-.76s-.14-.91-.49-1S729.19,497.8,729.11,498.28Z"/><path class="cls-2" d="M727.05,505.06c-.17.46-.18.88,0,.94s.43-.26.6-.71.18-.87,0-.93S727.22,504.61,727.05,505.06Z"/><path class="cls-2" d="M727.73,491.06c.07.47.3.84.53.8s.35-.44.29-.92-.3-.84-.53-.8S727.67,490.58,727.73,491.06Z"/><path class="cls-2" d="M707.16,502.74a.66.66,0,1,0,.15-1.06C707,501.83,706.93,502.31,707.16,502.74Z"/><path class="cls-2" d="M705.29,491.5c-.09.47.12.91.46,1s.7-.27.78-.74-.12-.91-.46-1S705.37,491,705.29,491.5Z"/><path class="cls-2" d="M717.61,502.08a.78.78,0,0,0,.48,1c.35.06.69-.28.77-.76a.78.78,0,0,0-.49-1C718,501.26,717.69,501.6,717.61,502.08Z"/><path class="cls-2" d="M713.24,492.67a.78.78,0,0,0,.48,1c.35.06.69-.28.77-.76a.78.78,0,0,0-.49-1C713.66,491.86,713.31,492.19,713.24,492.67Z"/><path class="cls-2" d="M714.82,478.71c-.42.24-.62.68-.45,1a.78.78,0,0,0,1.07.12c.42-.24.62-.68.45-1A.77.77,0,0,0,714.82,478.71Z"/><path class="cls-2" d="M723.7,482.75a.79.79,0,0,0-1,.28c-.12.33.15.73.61.9a.79.79,0,0,0,1.05-.29C724.43,483.32,724.16,482.92,723.7,482.75Z"/><path class="cls-2" d="M730.15,484.22c-.19-.44-.61-.68-.93-.53a.8.8,0,0,0-.22,1.06c.2.44.62.68.93.53A.78.78,0,0,0,730.15,484.22Z"/><path class="cls-2" d="M719.08,493.08a.78.78,0,0,0,1,.27A.91.91,0,0,0,719,492C718.74,492.23,718.77,492.7,719.08,493.08Z"/><path class="cls-2" d="M638.3,500.36a.89.89,0,1,0,.89-.89A.89.89,0,0,0,638.3,500.36Z"/><path class="cls-2" d="M626.07,493.14a.89.89,0,1,0,.89-.89A.89.89,0,0,0,626.07,493.14Z"/><path class="cls-2" d="M623.48,469a.89.89,0,1,0,.88-.88A.88.88,0,0,0,623.48,469Z"/><path class="cls-2" d="M644.58,433.45a.89.89,0,0,0,1.77,0,.89.89,0,1,0-1.77,0Z"/><path class="cls-2" d="M633.55,442.06a.89.89,0,1,0,1.77,0,.89.89,0,0,0-1.77,0Z"/><path class="cls-2" d="M626.52,449.41a.89.89,0,1,0,.88-.88A.88.88,0,0,0,626.52,449.41Z"/><path class="cls-2" d="M648.38,423.18a.89.89,0,1,0,.88-.89A.88.88,0,0,0,648.38,423.18Z"/><path class="cls-2" d="M635.45,428.12a.89.89,0,1,0,.89-.89A.89.89,0,0,0,635.45,428.12Z"/><path class="cls-2" d="M666.06,442.7a.89.89,0,1,0,.88-.89A.88.88,0,0,0,666.06,442.7Z"/></g><path class="cls-2" d="M808,454.36l-1,.19c7.6,3.8,13.69,12.93,16.54,18.25l3.23.19S818.62,459.68,808,454.36Z"/><path class="cls-2" d="M448.05,414c-35.7,62.68,1.74,97.94,33.52,111.43l5.66-13.49C418.45,487.53,448.05,414,448.05,414Z"/><path class="cls-2" d="M477.65,443.13c6.92,16.56,27.86,3.05,24.81-11.32s-30-92.72-21.33-116.66C481.13,315.15,431.72,333.33,477.65,443.13Z"/><path class="cls-2" d="M481.91,437.55c4.74,12.56,17.87,1.88,15.64-9.07S473,346,478.12,327.56C478.12,327.56,450.43,354.22,481.91,437.55Z"/><path class="cls-2" d="M523.79,297.74c10-2.61,28.73-1.31,44,36.13s44,121.45,8.7,118.84S523.79,297.74,523.79,297.74Z"/><path class="cls-2" d="M532.65,313.56c8.07-2,23-.57,34.5,31.36s32.82,103.46,4.63,100.6S532.65,313.56,532.65,313.56Z"/><path class="cls-2" d="M579.51,471.43s1.29-55-23.08-82.89-45.06-3.27-45.06-3.27S488.53,437,483.31,454.88s-12.63,67.48-10,80.54H594.75S605.63,504.51,579.51,471.43Z"/><path class="cls-2" d="M579.51,471.43s2.61-59.2-21.76-87.07-47.89-3.91-47.89-3.91S488.53,437,483.31,454.88s-12.63,67.48-10,80.54h43c-4.82-62.1,12.25-132.65,42.22-124.25,21.07,5.91,23.43,50,15.07,99.07a195.13,195.13,0,0,1-6,25.18h27.18S605.63,504.51,579.51,471.43Z"/><polygon class="cls-2" points="519.55 535.42 534.89 535.42 532.37 414.66 505.6 434.9 519.55 535.42"/><polygon class="cls-2" points="564.91 535.42 573.74 535.42 574.06 449.26 551.36 430.58 564.91 535.42"/><path class="cls-2" d="M492,535.42H451.53s-11.86-7.48-5.77-16.62,34.69-4.91,39.82-.32C491.78,524,492,535.42,492,535.42Z"/><path class="cls-2" d="M482.44,449.66c-13.06,5.22-19.59,54.85-19.16,71.83l6.1,13.93h30.91S495.5,444.44,482.44,449.66Z"/><path class="cls-2" d="M495,512.51a124.92,124.92,0,0,1,1.16,22.91h5.75s-6.53-92.9-19.59-87.68c-4.34,1.74-7.84,10.34-10.73,19.08C480.87,465.75,491.33,486.12,495,512.51Z"/><path class="cls-2" d="M621.72,513.82c-35.84-4.33-46.36,21.6-46.36,21.6H623.1S631.4,515,621.72,513.82Z"/><path class="cls-2" d="M621.1,523.61c-13.51.59-24.62-2.57-24.82-7.08,0,0,0-.06,0-.09a50.88,50.88,0,0,0-23.43,19H623.1a52.2,52.2,0,0,0,3.19-12.23Q623.79,523.49,621.1,523.61Z"/><path class="cls-2" d="M567.76,360.42c-7-37.87-21.77-71.39-63.12-60.94s-31.78,53.76-19.7,78.9c5.34,4,16,8.16,17.09,23.1l62.25-1.88C554.26,379.58,567.76,360.42,567.76,360.42Z"/><path class="cls-2" d="M567.76,360.42c-6.76.37-22.68-18.12-40.56-15.31-12.24,1.94-36.07,34.12-42.15,33.35,5.6,3.65,15.69,11.47,16.6,24l63.7-2.43C556.78,382.94,565.08,364.83,567.76,360.42Z"/><path class="cls-2" d="M539.17,342.9s-3.71,8-11.72,10.72c-4,1.38-9.53.42-15.31-1.43,0,0,8.45,12.48,20.29,8.6S539.17,342.9,539.17,342.9Z"/><path class="cls-2" d="M519.37,371.23c2.94,3.65,15,11.67,20.73,7.18s12.3-14.44,8-24.81-19.48,4.64-19.48,4.64Z"/><path class="cls-2" d="M540.41,371.41c-4.49,2.67-12.33,1.64-18.73-.2l-.61.93C524,375,535.58,381,540.6,376.8a22,22,0,0,0,7.13-11.49A30,30,0,0,1,540.41,371.41Z"/><path class="cls-2" d="M514,342.47c-7.84,3.59-18.95,12.77-17.65,27.78,0,0,12.18,7.64,21,5.23,7.18-2,14.27-21.26,14.27-21.26Z"/><path class="cls-2" d="M526.93,351.09c-2.39,6.06-8.92,12.27-17.82,16.13a41.13,41.13,0,0,1-12.28,3.27c3.24,1.62,14.11,7.53,21.88,4.42s12.92-20.69,12.92-20.69Z"/><path class="cls-2" d="M529.48,336.56c7.83-3.6,21.53-1.71,31.68,10,0,0,.64,20.8-8.46,19.86s-23.28-12.54-23.28-12.54Z"/><path class="cls-2" d="M543.69,353.81a46.68,46.68,0,0,1-14.26-4.41v4.5s14.18,11.61,23.28,12.54c5.65.58,7.54-7.2,8.17-13.19A44.4,44.4,0,0,1,543.69,353.81Z"/><path class="cls-2" d="M538.58,320.42c-1.7-3.56-4.79-5.64-6.77-4.59s-2,4.46-.36,7.69,3.63,3.79,5.56,3.07S540.23,323.9,538.58,320.42Z"/><path class="cls-2" d="M499.52,337.94c-1.88-3.94-5.15-6.2-7.3-5.07s-2.39,5.27-.51,9.2,4.24,4.53,6.39,3.39S501.39,341.88,499.52,337.94Z"/><path class="cls-2" d="M531.13,353.89c-2.64,1.21-21.27-5.44-20.4-10.44s18.48-14.11,23.51-8.49C537.94,339.09,534,352.58,531.13,353.89Z"/><polygon class="cls-2" points="513.67 535.42 529.02 535.42 528.48 442.52 505.14 462 513.67 535.42"/><path class="cls-2" d="M528.38,451.64l.15,0,.36-21.55c-5.48-12.91-27.23-3-24.87,31.07.69,9.79,5.66,39.93,5.66,39.93C511.86,473,520,451.15,528.38,451.64Z"/><path class="cls-2" d="M591.26,535.42h-17l-23.4-107c10.15,3.54,17.24,6.58,26.9,10Z"/><path class="cls-2" d="M524.12,535.42h21.22s-3.92-11.1-16.09-11.45C521.18,523.74,524.12,535.42,524.12,535.42Z"/><path class="cls-2" d="M507.86,535.42h21.22s-2-9.21-14.12-9.49C506.92,525.73,507.86,535.42,507.86,535.42Z"/><path class="cls-2" d="M601.34,535.42H580.92s1.94-9.21,13.59-9.49C602.24,525.73,601.34,535.42,601.34,535.42Z"/><path class="cls-2" d="M566.54,535.42h21.22s-2-9.21-14.13-9.49C565.6,525.73,566.54,535.42,566.54,535.42Z"/><path class="cls-2" d="M582.68,473.68l-4.91-35.34c-6.87-33.26-30.6-28.69-26.9-10l3.88,17.71C562.72,445.21,573.61,456.33,582.68,473.68Z"/><path class="cls-2" d="M522.86,343.11a36,36,0,0,1-11.56,2.34c3.12,4.59,17.53,9.5,19.83,8.44,2.65-1.23,6.31-13.15,3.72-18.05A33.13,33.13,0,0,1,522.86,343.11Z"/><path class="cls-2" d="M525.76,351c.87-.33-2.71-5.43-6.33-5.94s-4.14,1.28-2.83,2.45S524.73,351.4,525.76,351Z"/><path class="cls-2" d="M530.69,350.29c-.83.48-2.33-5.63-.32-8.82s3.75-2.46,3.77-.67S531.67,349.73,530.69,350.29Z"/><path class="cls-2" d="M486,337c.59,6.49-7,6.74-6.52-2.62s10.41-17.25,15.61-16.84,1.93,7-2.19,7.21S485.21,328.45,486,337Z"/><path class="cls-2" d="M524.93,313.4c-5.07,3.66-9.28-4-1.27-7.88s19.8,2.52,22.2,8-4.77,5.26-7.13,1.16S531.59,308.61,524.93,313.4Z"/><path class="cls-2" d="M526.49,372.38s3.87,15.92,9.8,14.89c7.43-1.3,8.37-20.72,8.37-20.72S533.12,365.6,526.49,372.38Z"/><path class="cls-2" d="M496.82,519.31c-4.09,10.73-23,16.21-42.82,12.26a63.31,63.31,0,0,1-8.46-2.29,24.14,24.14,0,0,0,7.52,6.14h50.8S503.58,525.09,496.82,519.31Z"/><path class="cls-2" d="M513.66,535.42h5s-1.52-4.36-2.94-4.57S513.66,535.42,513.66,535.42Z"/><path class="cls-2" d="M525.3,535.42h5s-1.53-4.36-2.94-4.57S525.3,535.42,525.3,535.42Z"/><path class="cls-2" d="M536.29,535.42h5s-3.08-4-4.57-4.25S536.29,535.42,536.29,535.42Z"/><path class="cls-2" d="M572.21,535.42h4.72s-1.43-4.36-2.77-4.57S572.21,535.42,572.21,535.42Z"/><path class="cls-2" d="M583.21,535.42h4.73s-1.44-4.36-2.78-4.57S583.21,535.42,583.21,535.42Z"/><path class="cls-2" d="M593.59,535.42h4.73s-2.9-4-4.31-4.25S593.59,535.42,593.59,535.42Z"/><path class="cls-5" d="M532.28,335.52c-.34-.9-2.47-.92-4.74-.06s-3.84,2.31-3.5,3.21,2.46.92,4.74.05S532.62,336.42,532.28,335.52Z"/><path class="cls-5" d="M520.59,340.45c-.27-.37-1-.27-1.71.23s-1,1.21-.71,1.59,1,.26,1.72-.24S520.87,340.82,520.59,340.45Z"/><path class="cls-2" d="M276.54,415.52c11.4.6,20.49-1.09,17-10.92-5.05-14.4-18.53,6.2-18.53,6.2Z"/><path class="cls-2" d="M279,311.93c7.69,8.71-1.74,17.41-7.25,20.6l-13.2-12.91C259.37,318.17,271.26,303.23,279,311.93Z"/><path class="cls-2" d="M276.66,314.27c5.55,6.29-1.26,12.58-5.24,14.88-2.49-4.63-4.8-7.6-9.53-9.32C262.51,318.78,271.11,308,276.66,314.27Z"/><path class="cls-2" d="M233.73,311.14c-8,7.15-.27,16.83,4.5,20.81l14.64-10C252.18,320.38,242.21,303.53,233.73,311.14Z"/><path class="cls-2" d="M234.77,314.05c-5.86,5.16-.23,12.21,3.25,15.08l10.5-7.25C248,320.73,240.89,308.65,234.77,314.05Z"/><path class="cls-2" d="M227.39,413.57l3.06,2.37H215.77S212.26,411.25,227.39,413.57Z"/><path class="cls-2" d="M232.41,374.55c20.28,6.26,23.14,34.5,22.09,41.39H224.33C210.13,391.61,226.19,372.64,232.41,374.55Z"/><path class="cls-2" d="M225.23,395.49c0-6.26-1-11.67-2.37-14.3,3.06-4.86,7.08-7.4,9.55-6.64,20.28,6.26,23.14,34.5,22.09,41.39H224.33a45,45,0,0,1-2.46-4.83C223.79,409.52,225.23,403.13,225.23,395.49Z"/><path class="cls-2" d="M274.46,415.94c4.93-9,19.14-44.1-2.9-72.53s-46.43,22.34-46.43,38,6.38,34.52,20.31,34.52Z"/><path class="cls-2" d="M229.92,369c5.08-19.58,28.43-17.7,32.79-13.49,15.14,14.64,2.75,47.29-1,60.44H245.15C229.35,409.22,224.85,388.57,229.92,369Z"/><path class="cls-2" d="M262.13,392.52c-5.59-14.33-17.2-23.19-25.93-19.79-4.42,1.72-7.26,6.26-8.25,12.18a60.16,60.16,0,0,1,2-15.92c5.08-19.58,28.43-17.7,32.79-13.49C274.55,367,269.55,389.44,265,405A42.67,42.67,0,0,0,262.13,392.52Z"/><path class="cls-2" d="M230.9,361.59l4.32,21.59-1.18,0s-6.46-5.39-8.28-7.36S222.84,362.76,230.9,361.59Z"/><path class="cls-2" d="M227.53,393.1c5.05-9.4,12.5-13.76,18.19-11.3s6.21,12.07,1.15,21.47-13.11,13.33-19.47,12.55C223.6,411.67,222.47,402.49,227.53,393.1Z"/><path class="cls-2" d="M227.84,393.86c2-3.51,3.42-6.29,5.91-8.6,2.15-2.59,8.24-2.23,9.85-1.13,8.4,5.72-8.63,26.69-16.34,31.57C223.58,412,222.45,403.44,227.84,393.86Z"/><path class="cls-2" d="M227.53,393.1a30.08,30.08,0,0,1,5.82-7.77,6.84,6.84,0,0,1,5.15.71c7.74,5.24-3.72,24.25-11.2,29.66C223.58,411.5,222.51,402.4,227.53,393.1Z"/><path class="cls-2" d="M250.3,395.47c1.85.22,5.51-9-2.51-14.22s-15.48.39-13.15,2.22c1.2.95,4.57-.86,10.25,3.58S249.14,395.33,250.3,395.47Z"/><path class="cls-2" d="M240.41,383.07c5.07.53,9.24,1.61,9.57,0,5.06,5.29,2,12.62.32,12.42-1.16-.14.39-3.87-5.41-8.42s-9-2.63-10.25-3.58a1.05,1.05,0,0,1-.43-.93C235.84,382.73,238,382.81,240.41,383.07Z"/><path class="cls-2" d="M246.52,376.89l1.56-1.63c2,1.44,2.64,4.12-.39,7.38l-.49-.27S249.89,378.45,246.52,376.89Z"/><path class="cls-2" d="M270.6,359.38l-22.38,22.05,1.15.85s14-3.29,22.92-1.63l6.68-9.47S276,356.65,270.6,359.38Z"/><path class="cls-2" d="M275.47,371.52c-1.48-3.89-7.88-4.68-15.08-2.08l10.21-10.06c6.48-5.53,9.85,11.2,9.85,11.2l-8.16,10.07-.1,0C275.1,377.46,276.45,374.09,275.47,371.52Z"/><path class="cls-2" d="M280.16,374.17c17,6.3,5.42,34.81.78,41.77H250.57C249,391.38,274.94,372.23,280.16,374.17Z"/><path class="cls-2" d="M274.37,407.25c7.37-12.46,9.1-25.07,3.87-28.17S262.77,383.56,255.4,396c-.65,1.09-1.25,2.18-1.8,3.26,6.77-15.93,22.6-26.57,26.56-25.1,17,6.3,5.42,34.81.78,41.77H268.11A58.1,58.1,0,0,0,274.37,407.25Z"/><path class="cls-3" d="M242,359.51s-10.5,7.36-14.78,3.79a7.07,7.07,0,0,1,3.48-1.64c8.45-18.73,25.26-38.41,40.9-18.25a56.25,56.25,0,0,1,7.73,13.41C272.33,373.3,245.26,369.27,242,359.51Z"/><path class="cls-2" d="M242.25,357.44c4.06,3.09,16.64,17,29.79,1.16s-7.35-40.43-14.89-39.27a38,38,0,0,0-29.21,25.53c-2,5.89-2.2,14.21,0,16.06C232.21,364.5,242.25,357.44,242.25,357.44Z"/><path class="cls-2" d="M239.64,357.44c.33.25.71.57,1.15.94-2.44,1.48-7.4,4.12-10.9,3.44C234.41,361.11,239.64,357.44,239.64,357.44Z"/><path class="cls-2" d="M269.43,358.6c12.21-14.73-4.58-37-13.09-39.13l.81-.14c7.54-1.16,28,23.4,14.89,39.27C267,364.73,262,366.41,257.49,366,261.25,365.61,265.31,363.56,269.43,358.6Z"/><path class="cls-2" d="M240.51,351.15c3.15,2.06,10.32,3.67,14.22,3.67,11.59,0,17.83-8.34,18.12-21.32,4,7.83,5.51,17.47-.81,25.1-13.15,15.86-25.73,1.93-29.79-1.16,0,0-10,7.06-14.31,3.48-.91-.77-3.19-5.81-1.17-11.13C230.71,353.55,233.06,352.6,240.51,351.15Z"/><path class="cls-2" d="M262.9,415.94H243.81C240.48,411,254.78,409,262.9,415.94Z"/><path class="cls-2" d="M258.15,415.94H243.8C241.29,412.22,252,410.69,258.15,415.94Z"/><path class="cls-2" d="M236.58,352.85c-4.75,1.87-8.9.59-8.62-3.19s5.11-11.14,10-12.2c4.24-.93,6.89,4,6.52,7.12S240.76,351.21,236.58,352.85Z"/><path class="cls-2" d="M234.42,347.91c4-2.94,6.26-7,4.49-9.35a3.27,3.27,0,0,0-1.23-1l.24-.06c4.24-.93,6.89,4,6.52,7.12s-3.68,6.63-7.86,8.27-8,.82-8.55-2.08C230.07,350.76,232.15,349.57,234.42,347.91Z"/><path class="cls-2" d="M245,353.5c-3.12-1.55-6-2.74-7.09-4.87-1.18-2.39-.17-5.73,2.12-7.53,4.42-3.46,13.5-2.47,19.37,1.72,5.14,3.66,5.84,8.46,2.17,11.07S250.84,356.4,245,353.5Z"/><path class="cls-2" d="M240,341.1c12.19-9.54,4.48.93,4.55,3.69.13,4.81,5.31,10.32,12.09,10.32a17.32,17.32,0,0,0,3.18-.3C256,356.38,250,356,245,353.5c-3.12-1.55-6-2.74-7.09-4.87C236.72,346.24,237.73,342.9,240,341.1Z"/><path class="cls-2" d="M239.53,344.62l.27.27a21,21,0,0,0,1.49,6.78l-1.15-.24S239.11,346.7,239.53,344.62Z"/><path class="cls-2" d="M245.54,353.76s-6.49-3.18-8.43-.86a2.77,2.77,0,0,1,2.74-2.19C242.15,350.61,245.54,353.76,245.54,353.76Z"/><path class="cls-2" d="M238.58,329.19c3.8-3.19,13.77-7.58,15.81-6s-6.37,10.31-10.46,13.54-8.41,4.13-10.07,2.44S234.91,332.28,238.58,329.19Z"/><path class="cls-2" d="M246.17,336.88C245,331.69,249.65,323.5,254,323s8.8,3.34,10,8.53-1.41,9.79-5.75,10.26S247.33,342.07,246.17,336.88Z"/><path class="cls-2" d="M254.74,335.73a1.08,1.08,0,0,1,1.08-1,1,1,0,0,1,.69,1.19,1.09,1.09,0,0,1-1.08,1A1,1,0,0,1,254.74,335.73Z"/><path class="cls-2" d="M252.57,326.64c-1.86,11.8-4.93,13.29-6.84,14.79l-10-1.07S254.43,314.84,252.57,326.64Z"/><path class="cls-2" d="M250.37,333.45c.85.86-3.74,6.83-4.44,7.93l-4.8-1.57C246,339,250.37,333.45,250.37,333.45Z"/><path class="cls-2" d="M246.18,340.28c.7,1.54-4,5.69-6.38,5.69-1,0-5.19-4.52-4.75-5.68S245.46,338.69,246.18,340.28Z"/><path class="cls-2" d="M234.37,383.43a1.54,1.54,0,0,1-.79-1.84,5.23,5.23,0,0,1,1.67-2.09,1.16,1.16,0,0,1,1,.19Z"/><path class="cls-2" d="M245.71,380a1.54,1.54,0,0,1,1.94-.63c.41.16,1.89,1.49,1.94,1.94a1.13,1.13,0,0,1-.28,1Z"/><path class="cls-2" d="M247,380.32c-.71.28-2.53,1.42-2.89,1.09-.73-.64,1.41-1.77,2.13-1.91S247,380.32,247,380.32Z"/><path class="cls-2" d="M235.25,379.5c.73-.1,2.66-.78,3-.38.6.79-1.65,1.38-2.37,1.34S235.25,379.5,235.25,379.5Z"/><path class="cls-2" d="M235,380.87c.7.26,2.75.62,2.83,1.11.15,1-2.13.37-2.75,0S235,380.87,235,380.87Z"/><path class="cls-2" d="M248.19,380.88c-.61.47-2,2.07-2.48,1.87-.88-.4.86-2.09,1.52-2.43S248.19,380.88,248.19,380.88Z"/><path class="cls-2" d="M234.31,382.15c.6.46,2.47,1.41,2.4,1.89-.14.95-2.16-.29-2.65-.83S234.31,382.15,234.31,382.15Z"/><path class="cls-2" d="M249.77,381.93c-.61.47-2,2.07-2.46,1.87-.88-.4.85-2.08,1.5-2.42S249.77,381.93,249.77,381.93Z"/><path class="cls-2" d="M228,393.79c.31-.58.63-1.13,1-1.67a18.83,18.83,0,0,1,2.48,12.3,19.64,19.64,0,0,1-3.86,10C224.35,410.42,223.5,402.2,228,393.79Z"/><path class="cls-2" d="M237,353.29c-.18-1.1,2.14-1.6,4.8-1.13,2.32.42,4,1.42,3.9,2.25s-1.62,1.3-3.75,1.12C239.49,355.33,237.14,354.34,237,353.29Z"/><path class="cls-2" d="M245.19,353.87c0-.29.17-.52.38-.52s.38.23.38.52-.17.53-.38.53S245.19,354.17,245.19,353.87Z"/><path class="cls-2" d="M236.78,352.73c0-.29.17-.52.38-.52s.38.23.38.52-.17.53-.38.53S236.78,353,236.78,352.73Z"/><path class="cls-2" d="M246,340a17.78,17.78,0,0,1-7.94,1.51,25.58,25.58,0,0,1-2.69-.14,1.59,1.59,0,0,1-.27-1.1C235.46,339.2,244.28,338.74,246,340Z"/><path class="cls-2" d="M240.73,344.79c1.3-.22,5.21-3.54,3-3.32C239.27,341.91,240.73,344.79,240.73,344.79Z"/><path class="cls-2" d="M238.72,344.59c-.84-.23-3.4-3.11-2.1-2.75A2.86,2.86,0,0,1,238.72,344.59Z"/><path class="cls-2" d="M230.15,391.83a3.33,3.33,0,0,1,1.14-2.6c1-.69,1.91.22,1.64,2-.22,1.46-1.12,2.35-1.84,2.24C230.54,393.36,230.16,392.67,230.15,391.83Z"/><path class="cls-2" d="M240,335.35a1.1,1.1,0,0,1,1.13-.89.65.65,0,0,1,.44,1,1.1,1.1,0,0,1-1,.68A.61.61,0,0,1,240,335.35Z"/><polygon class="cls-2" points="415.4 364.69 409.88 368.47 417.48 368.85 415.4 364.69"/><polygon class="cls-2" points="423.44 365.26 417.56 368.43 425.07 369.62 423.44 365.26"/><polygon class="cls-2" points="401.99 363.88 400.42 368.39 407.87 368.2 401.99 363.88"/><path class="cls-2" d="M361.5,429.16s11.84,1.48,20.19,10l-4-15.31Z"/><path class="cls-2" d="M437.8,431.4s10.81-5.07,22.39-2.35l-11.53-10.83Z"/><path class="cls-2" d="M432.76,434.45a18.36,18.36,0,0,1,15.48,1.17l-7.44-12.54Z"/><path class="cls-2" d="M448.47,535.42H418.3s8.27-83.18,15.68-72C451.52,489.82,448.47,535.42,448.47,535.42Z"/><path class="cls-2" d="M453.63,526.54c-4.32-.95-7,2.5-8.06,5.52l1,3.36h8.26C458,532.57,458,527.48,453.63,526.54Z"/><path class="cls-2" d="M361.55,524.15c-18.81,6.46-33.22-4.42-32.63-17.94s7.93-53.81-10.29-54.39-19.12,47.92-4.41,69.09S357.73,531.2,363.9,528Z"/><path class="cls-2" d="M361.55,524.15c-18.81,6.46-33.22-4.42-32.63-17.94.35-8.16,3.16-26.06,1.33-39.1-.45,5.39-1.16,11.11-2.15,17-2.73,16.24-7,30.47-11.5,39.78C331.83,541,358.05,531,363.9,528Z"/><path class="cls-2" d="M359.79,535.42h85.85s-23.13-86.25-6.67-109l-59.58-2.74S337.44,476.61,359.79,535.42Z"/><path class="cls-2" d="M433.46,471.73c.55,21,5.68,63.69,5.68,63.69h-8.32s-15.72-43.52-11.67-63.2C420.56,465.39,433,452.22,433.46,471.73Z"/><path class="cls-2" d="M433.07,455.88c-.1-12.49,1.45-23.29,5.9-29.45l-59.58-2.74s-41.95,52.92-19.6,111.73h32.12C354.07,418.57,425.24,431.56,433.07,455.88Z"/><path class="cls-2" d="M461.13,348s1.28,18.55-5.57,35.21l-29.91-14.63S456.79,345.18,461.13,348Z"/><path class="cls-2" d="M458.12,352.53s.87,12.63-3.79,24l-20.36-10S455.16,350.59,458.12,352.53Z"/><path class="cls-2" d="M359.59,349.21s1.38,20.38,11.18,35.67l28.81-16.27S363.51,345.68,359.59,349.21Z"/><path class="cls-2" d="M363.77,353.88s1.09,16.23,8.89,28.4l22.94-12.95S366.89,351.07,363.77,353.88Z"/><path class="cls-2" d="M348.42,417s38.22,19.8,68.6,16.86,54.69-20,54.69-20L467,409l8.43-1.77-3.92-3.92,6.86-1.17s-25.1-35.06-53.71-34.3c-7.45.19-25.09-1.18-28.23.39s-26.85,8.43-35.08,16.46l8,3.53s-15.48,2.74-20.19,4.51c0,0,9.61,5.1,16.67,7.25L349.2,408.6l6.47,3.92Z"/><path class="cls-2" d="M471.56,403.35c-13.13,9.12-32.76-5.29-53.62-5.29-22.37,0-41.5,13.56-54.69,3.26L349.2,408.6l6.47,3.92-7.25,4.5s38.22,19.8,68.6,16.86,54.69-20,54.69-20L467,409l8.43-1.77Z"/><path class="cls-2" d="M403.72,383.76c-.13-2.91-2-5.27-4.18-5.27s-3.86,2.36-3.74,5.27,2,5.28,4.19,5.28S403.85,386.68,403.72,383.76Z"/><path class="cls-2" d="M434.73,382.4c-.84-3-3.3-5.38-5.5-5.38s-3.3,2.41-2.47,5.38,3.3,5.38,5.5,5.38S435.56,385.37,434.73,382.4Z"/><path class="cls-2" d="M415.85,411.59l-1.76,2s5.68,7.06,13.13-2.94C427.22,410.61,420,415.9,415.85,411.59Z"/><path class="cls-2" d="M391.93,405.46c3.72,4.62,14.47,9.56,21.57,3.14,8.23-7.45,4.31-13.53,4.31-13.53l-6.08-5.29S379,389.39,391.93,405.46Z"/><path class="cls-2" d="M447.09,403.42c-2.28,4.14-12.06,8.29-21.54,2.14-10.25-6.64-8.22-11.63-8.22-11.63l4.27-4.28S454.88,389.31,447.09,403.42Z"/><path class="cls-2" d="M418.87,397.14s-9.63-7-7.54-8.57,11.88-.21,12.41,1.31S418.87,397.14,418.87,397.14Z"/><path class="cls-2" d="M388.53,465.34c4.48,23.11,9.12,70.08,9.12,70.08H407s7-47.88-2.29-69.54C401.45,458.36,384.35,443.87,388.53,465.34Z"/><path class="cls-2" d="M434.12,463.37c2.34,23.76,11.1,72,11.1,72H436.9s-19.43-49.23-17-71.49C420.68,456.2,432,441.3,434.12,463.37Z"/><path class="cls-2" d="M353.61,535.42h41.45s-36.39-84.9-43.21-73.51C335.71,488.88,353.61,535.42,353.61,535.42Z"/><path class="cls-2" d="M347.48,479.37c9.92-2.7,22.31,14.26,33.34,37.89a108.11,108.11,0,0,1,6.66,18.16h7.58s-33.8-90.27-43.21-73.51a50.72,50.72,0,0,0-5.7,18A7.35,7.35,0,0,1,347.48,479.37Z"/><path class="cls-2" d="M353.29,534.51l.32.91h.18Z"/><path class="cls-2" d="M449.25,524.81c-5.33-1.14-8.61,3-9.83,6.59l1.29,4h10.15C454.74,532,454.58,525.94,449.25,524.81Z"/><path class="cls-2" d="M413.92,525.28c-5.76-1.08-8.15,2.85-8.56,6.3l2.28,3.84H418.1C421.3,532.17,419.68,526.36,413.92,525.28Z"/><path class="cls-2" d="M397.22,524.33c4.68-.85,7.41,2.35,8.68,5.91l-1.41,5.17H392.13A7.49,7.49,0,0,1,397.22,524.33Z"/><path class="cls-2" d="M353.16,525.73c9.64-.75,21.86,9.68,21.86,9.68h-26.7C340.16,531.56,343,526.51,353.16,525.73Z"/><path class="cls-2" d="M407.2,524.55c-5.56-1-12.57,2.5-8.13,10.87H410.9C414.83,531.93,413.6,525.71,407.2,524.55Z"/><path class="cls-2" d="M410,531.08c-.17,1.68-2.39,3-5.1,3a5.82,5.82,0,0,1-4.64-1.86,4.36,4.36,0,0,0,.89,3.19h8C410.8,534.21,411.08,532.4,410,531.08Z"/><path class="cls-2" d="M418.74,531.08c-.19,1.68-2.79,3-6,3-2.41,0-5.37.06-4.39,1.33h10C420.33,534.21,420.05,532.4,418.74,531.08Z"/><path class="cls-2" d="M418.35,391.13a18.73,18.73,0,0,1-7.13-1.26c1.15,2.56,7.65,7.27,7.65,7.27s4.4-4.6,4.86-6.68A20.94,20.94,0,0,1,418.35,391.13Z"/><path class="cls-2" d="M358.51,409.26l-.2-.34c.18-.11,18.9-10.86,39.39-10.73v1.17h-.46C377.22,399.36,358.69,409.15,358.51,409.26Z"/><path class="cls-2" d="M372,419.32l-.41-.34c.5-.61,12.43-14.88,26-18.64l.31,1.13C384.64,405.13,372.08,419.18,372,419.32Z"/><path class="cls-2" d="M381.33,423.21l-.48-.17c0-.11,3.88-11,17.37-18.07l.55,1C385.69,412.87,381.36,423.1,381.33,423.21Z"/><path class="cls-2" d="M405.65,397c0-.54-.28-1-.63-1s-.62.44-.62,1,.28,1,.62,1S405.65,397.55,405.65,397Z"/><path class="cls-2" d="M398.1,400.34c0-.54-.28-1-.62-1s-.63.44-.63,1,.28,1,.63,1S398.1,400.88,398.1,400.34Z"/><path class="cls-2" d="M405.75,404.66c0-.55-.28-1-.63-1s-.62.43-.62,1,.28,1,.62,1S405.75,405.2,405.75,404.66Z"/><path class="cls-2" d="M413.78,400.34c0-.54-.28-1-.62-1s-.63.44-.63,1,.28,1,.63,1S413.78,400.88,413.78,400.34Z"/><path class="cls-2" d="M430.64,396c0-.54-.28-1-.62-1s-.63.44-.63,1,.28,1,.63,1S430.64,396.57,430.64,396Z"/><path class="cls-2" d="M433.58,402.89c0-.54-.28-1-.63-1s-.62.44-.62,1,.28,1,.62,1S433.58,403.43,433.58,402.89Z"/><path class="cls-2" d="M479.23,407.25l.2-.34c-.19-.11-18.9-10.85-39.39-10.73v1.18h.46C460.53,397.36,479.05,407.15,479.23,407.25Z"/><path class="cls-2" d="M465.79,417.31l.41-.33c-.5-.61-12.43-14.89-26-18.64l-.31,1.13C453.1,403.12,465.67,417.17,465.79,417.31Z"/><path class="cls-2" d="M456.41,421.2l.48-.16c0-.11-3.88-11-17.37-18.08l-.55,1C452.05,410.87,456.38,421.09,456.41,421.2Z"/><path class="cls-2" d="M440.93,403.28c0-.54-.28-1-.62-1s-.63.44-.63,1,.28,1,.63,1S440.93,403.82,440.93,403.28Z"/><path class="cls-2" d="M441,396c0-.54-.28-1-.63-1s-.62.44-.62,1,.28,1,.62,1S441,396.57,441,396Z"/><path class="cls-2" d="M398.51,374a15.2,15.2,0,0,0-10.09,7.24s-2.2-5.14,2.21-7.64A7.06,7.06,0,0,1,398.51,374Z"/><path class="cls-2" d="M432.16,373a14.67,14.67,0,0,1,9.16,7.93s2.48-5-1.57-7.78A6.61,6.61,0,0,0,432.16,373Z"/><path class="cls-2" d="M420.41,389.09c-1-.06-1.76.18-1.78.54s.74.69,1.7.74,1.76-.19,1.78-.54S421.37,389.14,420.41,389.09Z"/><path class="cls-2" d="M417,393.59c-1.13-1.35-3.23-2.72-2.79-1.35a5.77,5.77,0,0,0,2.45,2.53c.47.24.81.26.91.11S417.48,394.22,417,393.59Z"/><path class="cls-2" d="M420.64,394.32c1.35-1.14,2.71-3.24,1.35-2.8a5.63,5.63,0,0,0-2.53,2.46c-.24.46-.26.8-.11.9S420,394.84,420.64,394.32Z"/><path class="cls-2" d="M394.39,535.38h3.77s-1.15-3.92-2.21-4.11S394.39,535.38,394.39,535.38Z"/><path class="cls-2" d="M403.15,535.38h3.77s-1.15-3.93-2.21-4.12S403.15,535.38,403.15,535.38Z"/><path class="cls-2" d="M411.43,535.39h3.76s-2.31-3.65-3.44-3.83S411.43,535.39,411.43,535.39Z"/><path class="cls-2" d="M454.73,535.39h-3s1.62-3.92,2.5-4.11S454.73,535.39,454.73,535.39Z"/><path class="cls-2" d="M447.91,535.39h-3.72s2.29-3.65,3.4-3.83S447.91,535.39,447.91,535.39Z"/><path class="cls-2" d="M184.05,487.71l4.08,11.91c-29.23-18.09-63,4-64.55-20.58C129.09,477.1,184.05,487.71,184.05,487.71Z"/><path class="cls-2" d="M367.67,506.79c-6.12,2-48.74-9.3-48.74-9.3l19.52-11a39,39,0,0,0,13.95,12.14C360.71,502.8,371.25,505.64,367.67,506.79Z"/><path class="cls-2" d="M345.43,503.85a1.73,1.73,0,0,1-.43-1.08c0-1.65,2.88-3.13,7.42-4.14,8.31,4.17,18.82,7,15.25,8.16C365,507.65,355.41,506,345.43,503.85Z"/><path class="cls-2" d="M293.12,535.42H269.44s2.35-39.23,15.8-45.52,9.48,2.56,8.09,5.09C289.39,502.18,288,518.05,293.12,535.42Z"/><path class="cls-2" d="M196.62,535.42H173s12-38.17,27-44.29,8.85,2.5,6.85,5C201.05,503.08,195.77,518.52,196.62,535.42Z"/><path class="cls-2" d="M346.65,492.19c-15.95,6.21-76.59,20.5-82,22.57,0,0-46,5.56-79-16.53l-11.54-22.44Z"/><path class="cls-2" d="M180.17,476.37l8.4,17.56c30.87,22.06,74,20,80.29,19.58-2.1.57-3.57,1-4.23,1.25,0,0-44.81,8.41-82.55-18.23l-10.35-8Z"/><path class="cls-2" d="M238.19,535.42H214.52s5.85-33.91,19.85-39.35,9.25,2.22,7.64,4.4C237.43,506.69,234.63,520.4,238.19,535.42Z"/><path class="cls-2" d="M214.52,535.42s2.47-14.31,8-25.83a9.49,9.49,0,0,1,3.29-.61c4.35,0,8.26,3.09,10.94,8a58,58,0,0,0,1.4,18.45Z"/><path class="cls-2" d="M311.93,535.42H336s-5.95-33.91-20.2-39.35-9.41,2.22-7.77,4.4C312.7,506.69,315.55,520.4,311.93,535.42Z"/><path class="cls-2" d="M324.29,506.56a6.6,6.6,0,0,1,2.12.36c6.67,11.83,9.6,28.5,9.6,28.5H311.93a57.41,57.41,0,0,0,1.5-17.26C315.83,511.15,319.8,506.56,324.29,506.56Z"/><path class="cls-2" d="M200.94,496s-4.81,1.36-6.45,1.81c0,0-28.77-17.07-70.1-15.28a3.2,3.2,0,0,1-3-3.38c0-4.92-1.36-10.53,1.57-13.81,7.46-8.37,27.18-9.8,35.93-.74,2.86,2.95,3.12,4.19,8.32,6.38C187.59,463.94,200.94,496,200.94,496Z"/><path class="cls-2" d="M162.26,468a20.3,20.3,0,0,0,4.9,3c20.43-7,33.78,25,33.78,25s-4.81,1.36-6.45,1.81c0,0-20.22-12-51.09-14.81C152.5,479.53,159.41,473.91,162.26,468Z"/><path class="cls-2" d="M167.65,475.84a41.58,41.58,0,0,0-4.93-7.5,20.4,20.4,0,0,0,4.44,2.62c20.43-7,37,27.15,37,27.15s-8-.77-9.63-.32c0,0-8.45-5-22.76-9.31A40.07,40.07,0,0,0,167.65,475.84Z"/><path class="cls-2" d="M354.28,492.84c-2,6.75-119.4,13.67-144.52,7.11-26.41-6.89-45.15-32.09-45.15-32.09s2-6.73,8.66-1.55c0,0,42.16-61.82,60.09-66.79,5.6-1.55,62.12,1.55,75.87,28S341.81,486,341.81,486,357.29,482.48,354.28,492.84Z"/><path class="cls-2" d="M167.19,464.69c5.38,6.43,21.78,24.14,43.25,29.74,24.09,6.29,133,.18,143.69-6.28a7.87,7.87,0,0,1,.72,5.47c-2,6.76-120.52,13.81-145.64,7.25-26.41-6.9-44.6-33-44.6-33A5.69,5.69,0,0,1,167.19,464.69Z"/><path class="cls-2" d="M234.08,401.39c5.6-1.56,61.36-1,75.11,25.36,13.22,25.39,31.17,56.75,32.53,59.07-32.45,5-111.84,8.31-132.05,3.09-16.73-4.32-30.4-15.84-38.28-23.83a11.72,11.72,0,0,1,1.88,1.23S216.15,406.36,234.08,401.39Z"/><path class="cls-2" d="M273,446.69c-28,0-52.47-9.21-65.76-22.91,10.06-11.13,20.15-20.55,26.81-22.39,5.6-1.56,61.36-1,75.11,25.36,2,3.92,4.19,8,6.37,12A112.93,112.93,0,0,1,273,446.69Z"/><polygon class="cls-2" points="270.83 451.79 293.49 466.8 292.98 492.17 291.71 492.17 291.71 467.06 271 453.24 249.19 464.21 254.54 492.17 253.52 492.68 247.92 463.43 270.83 451.79"/><polygon class="cls-2" points="225.68 458.85 248.42 463.25 248.68 464.8 225.93 459.88 213.21 473.09 215.75 493.28 213.97 493.02 211.68 473.09 225.68 458.85"/><polygon class="cls-2" points="235.52 425.29 261.15 425.98 271.51 452.38 269.98 453.07 260.81 427.36 235.86 426.15 222.28 441.16 226.53 459.63 225.34 459.63 221.27 441.33 235.52 425.29"/><polygon class="cls-2" points="200.73 443.41 221.78 440.82 222.12 442.02 201.07 444.27 193.26 461.18 196.66 471.54 212.44 472.91 211.93 474.47 195.81 472.4 192.41 461.35 200.73 443.41"/><polygon class="cls-2" points="190.76 481.13 196.15 472.18 195.64 470.76 190.16 480.85 190.76 481.13"/><polygon class="cls-2" points="192.33 461.7 182.78 461.7 173.36 467 173.27 466.31 182.53 460.92 192.84 461.05 192.33 461.7"/><polygon class="cls-2" points="182.27 453.8 182.78 461.7 182.14 461.7 181.51 454.58 182.27 453.8"/><polygon class="cls-2" points="200.73 443.83 190.55 443.06 191.05 442.48 201.11 443.45 200.73 443.83"/><polygon class="cls-2" points="200.73 443.83 202.38 428.69 201.62 429.6 200.09 443.83 200.73 443.83"/><polygon class="cls-2" points="212.44 417.05 227.33 413.94 235.52 425.29 235.1 426.11 226.95 414.71 211.81 417.69 212.44 417.05"/><polygon class="cls-2" points="293.06 467.56 308 459.97 322.26 469.98 326.84 488.1 328.37 487.93 323.27 470.33 330.24 465.67 329.56 464.46 323.11 469.12 308.51 458.59 292.21 467.05 293.06 467.56"/><polygon class="cls-2" points="260.81 427.36 269.13 414.24 263.53 402.34 262.34 401.82 268.11 414.24 259.8 426.84 260.81 427.36"/><polygon class="cls-2" points="227.72 414.59 238.75 399.58 237.56 399.58 226.87 414.24 227.72 414.59"/><polygon class="cls-2" points="309.02 459.28 307.15 440.82 314.05 436.14 313.77 435.68 306.37 440.67 307.96 459.44 309.02 459.28"/><polygon class="cls-2" points="270.83 452.29 290.31 434.17 306.81 441.33 307.15 440.47 289.97 432.96 270.32 451.34 270.83 452.29"/><polygon class="cls-2" points="290.35 433.61 287.8 417.31 293.15 411.74 292.26 411.09 287.04 416.79 289.46 434.26 290.35 433.61"/><polygon class="cls-2" points="268.37 414.34 287.29 417.82 287.42 416.66 268.45 413.68 268.37 414.34"/><path class="cls-2" d="M146.94,468.9l-8.69-.48s.44,5.26,4.94,5.19C144.88,473.58,146.94,468.9,146.94,468.9Z"/><path class="cls-2" d="M140.56,479.07c-.43-1.41-2.46,4.57-16.29,3.07l-.52.39S142.34,485,140.56,479.07Z"/><path class="cls-2" d="M136.15,468.34c1.56,1.35,10.35,1.9,12.47,1.81s-.34-6.47-5.35-6.64S134.53,467,136.15,468.34Z"/><polygon class="cls-2" points="269.98 452.38 248.42 463.25 225.68 458.85 248.25 460.66 269.98 452.38"/><polygon class="cls-2" points="211.93 472.74 196.66 471.54 193.26 461.18 201.07 444.27 194.96 460.49 197.46 469.48 211.93 472.74"/><polygon class="cls-2" points="221.44 440.82 200.78 443.41 202.43 429.08 201.91 442.02 221.44 440.82"/><polygon class="cls-2" points="291.71 467.06 291.75 490.17 254.83 491.59 252.29 480.72 255.85 490.3 290.22 488.75 291.71 467.06"/><polygon class="cls-2" points="322.26 469.98 326.88 487.71 293.02 490.17 293.4 475.42 294.68 488.88 324.85 486.29 322.26 469.98"/><path class="cls-2" d="M250.26,475.67l3,15.92s-33.09.65-37.93-1.81l-2.17-16.69,3.06,15.53,35.9,1.81Z"/><path class="cls-2" d="M0,535.07H872.34s-192.53,15.55-451.62,15.55S0,535.07,0,535.07Z"/></g></g></svg>