<svg xmlns="http://www.w3.org/2000/svg" viewBox="0 0 962.7 692.9"><defs><style>.cls-1{fill:#f1f2f2;}.cls-2{fill:#ce2002;}.cls-3{fill:#d64b0d;}.cls-4{fill:#aa6755;}.cls-5{fill:#4f4b47;}.cls-6{fill:#a9b4b9;}.cls-7{fill:#fff;}.cls-8{fill:#fc4629;}.cls-9{fill:#3b3631;}.cls-10{fill:#d5c6ab;}.cls-11{fill:#eac1a4;}.cls-12{fill:#363f51;}.cls-13{fill:#3b455a;}.cls-14{fill:#ff7f15;}.cls-15{fill:#f03d15;}</style></defs><title>users</title><g id="Shadow"><path class="cls-1" d="M441.66,587.12c-28.19.08-56.38.76-84.52,3.89-10.62,1.18-21,3.78-31.64,4.82-21.24,2.09-42.11,6-63.43,7.8-17.16,1.45-34.4,2.3-51.52,4.14a181.41,181.41,0,0,1-49.74-1.52c-11.79-2.11-23.64-3.3-35.23-6.68-13-3.79-27-6.5-40.56-6.4-19.27.13-38,.15-56.47,6.84-6.47,2.35-14.39,6.21-19.31,11.14C-2,622.43-3.53,650.58,7.7,662.28,26.62,682,67,689.7,93.53,690.07c29.06.39,57.29-1.76,86.4-3,27-1.18,54-2.86,81.11-2.8,55.33.12,110.67,0,165.89-3.69,51.89-3.48,103.91-2.28,155.91-2.28,53.33,0,106.29.41,159.24,7.5,23.06,3.09,46.56,4.17,69.75,6.33,20.76,1.94,40.71,0,61.39-1.82a146.65,146.65,0,0,0,50.39-13.51c12.49-6,34.75-24.5,38.58-38.75,10.74-39.93-151.3-39-176.18-38.88-27.83.1-55.88,1-83.69,0-11.7-.44-23.23-2.73-34.64-5.24s-22.83-1.86-34.37-2.91c-48.09-4.37-96.29-3.73-144.53-3.73C473.08,587.21,457.37,587.07,441.66,587.12Z"/></g><g id="Object"><polygon class="cls-2" points="789.83 456.28 792.97 529.09 783.76 652.88 770 653.86 753.27 541.42 730.12 446.29 789.83 456.28"/><polygon class="cls-2" points="770.49 659.66 785.9 666.04 792.82 658.07 784.85 651.15 769.96 652.21 770.49 659.66"/><polygon class="cls-2" points="692.36 430.52 689.34 485.55 698.3 649.18 712.09 649.87 732.75 542.55 750.98 424.86 692.36 430.52"/><polygon class="cls-2" points="711.72 655.68 696.44 662.39 689.36 654.56 697.18 647.48 712.09 648.23 711.72 655.68"/><path class="cls-3" d="M772.52,268.4l-43-4.61s-23.94,2.56-40.17,59.4c-9,31.62-11.79,81.44-12.45,119.42,1,5.42,6.92,29.15,31.88,25.13,42.86-6.92,65.67-13.83,84.34-10.37,15.9,3.45,14.56-18.44,12.81-35.14l-6.34-51.7Z"/><path class="cls-4" d="M764.21,214.85c-10.84-2.39-22-4.53-32.86-2.38-2.38.47-4.93,1.3-6.22,3.35a9.68,9.68,0,0,0-1,2.62c-2.73,10.18-6.21,25.28.49,34.66a16.79,16.79,0,0,0,4.84,4.36,24,24,0,0,0,8,3.15,42.58,42.58,0,0,1-2.42,7.39c2.48,3.74,14.06,4.19,16.2.6l.36-9.31a23.22,23.22,0,0,0,4-2.1,26.16,26.16,0,0,0,10.1-13.74c2.07-6,5-11.76,6.85-17.9.69-2.24,1.23-4.79,0-6.81s-4-2.89-6.39-3.43Z"/><path class="cls-5" d="M728.12,220.67c5.36-3.44,13.4-4.93,18.44-4.56,15.23,1.1,20.82,12.29,21.63,26.3,4.2-5.33,12.07-12,12.55-18.91.39-5.62-.39-13.28-3.54-18.13-2.94-4.54-10.47-7-15-9.67l-12.67-7.44a8.59,8.59,0,0,0-2.78-1.21,8.39,8.39,0,0,0-3.57.4l-29.93,7.73c-1.92.5-4.1,1.22-4.81,3.07a6.27,6.27,0,0,0,.08,3.56c1.13,5.18,3.31,10.48,3.85,15.72.61,3.05,2.42,18.68,7.82,16.87,1.59-2.59,1.82-5.78,3.06-8.56A12.37,12.37,0,0,1,728.12,220.67Z"/><polygon class="cls-6" points="729.5 263.79 713.6 268.63 655.52 329.47 652.07 349.52 679.83 395.36 687.33 378.56 675.57 344.68 694.24 331.54 719.13 275.55 729.5 263.79"/><path class="cls-7" d="M801.75,246.75q-1.59-.8-3.21-1.56c10.78-15.66,16.62-34.88,16.62-55.26,0-49.14-34.65-89.12-77.25-89.12s-77.26,40-77.26,89.12c0,20.39,5.84,39.61,16.62,55.26-1.67.77-2.79,1.34-3.28,1.59a127.84,127.84,0,0,0-74.52,115.77v30.88a24.15,24.15,0,0,0,24.12,24.12H852.23a24.14,24.14,0,0,0,24.11-24.12V362.55A127.83,127.83,0,0,0,801.75,246.75Z"/><path class="cls-2" d="M798.14,254.28c-.42.51-.82,1-1.24,1.53-15.62,18.31-36.57,28.39-59,28.39s-43.38-10.08-59-28.39c-.42-.5-.82-1-1.24-1.53-41.1,18.78-69.85,60.33-69.85,108.27v30.88a15.77,15.77,0,0,0,15.77,15.77H852.23A15.77,15.77,0,0,0,868,393.43V362.55C868,314.61,839.24,273.06,798.14,254.28Z"/><path class="cls-2" d="M737.91,270.7c18.1,0,34.56-8.19,46.86-21.57,13.55-14.75,22-35.81,22-59.2,0-44.61-30.85-80.77-68.9-80.77S669,145.32,669,189.93c0,23.39,8.49,44.45,22,59.2C703.34,262.51,719.8,270.7,737.91,270.7Z"/><polygon class="cls-4" points="612.68 307.21 621.23 302.34 628.98 316.45 620.83 330.93 607.82 324.91 612.68 307.21"/><polygon class="cls-4" points="863.13 300.58 854.59 295.71 846.83 309.82 854.98 324.31 867.99 318.28 863.13 300.58"/><polygon class="cls-3" points="227.25 462.15 167.44 440.15 179.77 544.93 172.62 635.33 172.43 635.93 172.57 635.95 172.56 636.15 184.36 637.27 184.36 637.26 184.8 637.31 211.15 556.77 225.09 470.98 225.09 470.98 227.25 462.15"/><polygon class="cls-3" points="183.75 641.39 171.51 641.08 168.38 651.41 168.69 651.5 168.61 651.51 188.84 663.5 198.46 664.57 199.69 653.57 197.09 651.67 183.75 641.39"/><polygon class="cls-3" points="268 463.95 250.04 643.35 238.21 643.89 226.31 547.02 205.69 450.54 268 463.95"/><polygon class="cls-3" points="250.01 647.52 265.7 656.41 264.23 663.81 236.21 659.59 237.85 648.93 250.01 647.52"/><path class="cls-8" d="M296,509c3.78-2.63,3.86-7.2,3.86-11.78,0-8.61-1.56-17.41-3.53-25.77-3.76-15.69-8-34.58-9.89-54.91-4.84-52.55-21.43-87.8-21.43-87.8l-5.36-14.28c-1.06-1.86-2.16-3.69-3.32-5.5-6.68-10.49-18.29-28.33-30.71-31.24q-.39-.11-.78-.18c-13.06-2.87-29.79-1.54-41.59,4.81a40.71,40.71,0,0,0-6.2,4.4c-5.77,4.66-10.48,7.17-13,14.27-2.16,6.15-2.67,12.87-3.86,19.25-2.42,13-3.86,26.09-5.79,39.13-3.62,24.45-6.7,49-10.57,73.39-2,12.57-4,25.16-4.95,37.86-.83,11.22-11,22.62-16.65,32.68-2,3.5,26.46,12.57,29,13.17,11.8,2.74,24.35,2,36.51,2.1q40,.18,79.91-2.47c8.83-.58,19.72-2.27,27.57-6.67C295.56,509.32,295.81,509.16,296,509Z"/><path class="cls-8" d="M210.24,276.1s-15-4.05-17.09,29.82S187.62,425.52,182.78,449s-12.1,69.61-12.1,69.61l46,1.6,52.55-4.15s-18-33.19-20.74-56.69,2.07-112-9.68-145.18S224.56,276.7,210.24,276.1Z"/><polygon class="cls-8" points="278.18 351.55 281.64 355.7 294.08 338.42 244.31 283.11 225.64 277.58 234.63 301.77 278.18 351.55"/><polygon class="cls-8" points="236.58 337.24 225.66 328.91 229.01 324.09 237.75 328.13 238.28 325.12 246.76 333.38 243.95 338.87 236.58 337.24"/><polygon class="cls-8" points="279.37 335.11 278.88 336.19 244.83 329.62 239.81 340.79 281.64 355.7 279.37 335.11"/><path class="cls-9" d="M231.18,249.26c2.27,6.82-1,14.1-3.91,20.31-2.56,5.51-3.45,9.14,3,10.63,3.66.84,10.16,2.4,13.37-.4,2.43-2.13,1.06-8.68-.12-11.29-.9-2-3.29-3-4.14-5a7.19,7.19,0,0,1-.42-2.65A36.5,36.5,0,0,1,240.52,250a36.82,36.82,0,0,0,1.88-7.23c.31-3.61-2.24-7.82-3.58-11.13-2.49-6.17-11.17-14.44-18.44-9.6a10.65,10.65,0,0,0-3.43,4.78,8.8,8.8,0,0,0-.95,3.41c-.06,4.74,4.27,5.53,7.25,7.79A23.75,23.75,0,0,1,231.18,249.26Z"/><path class="cls-10" d="M217.35,275.88c6.31-1.49,11.23-6.78,13.6-12.81s2.5-12.72,1.84-19.16c-2.18-21.45-28.86-20.07-37.89-3.63C187,254.6,199,280.2,217.35,275.88Z"/><path class="cls-10" d="M217.34,273.57c-.1,2.44-.21,4.88-.31,7.33a1.51,1.51,0,0,1-.3,1,1.47,1.47,0,0,1-1.15.28l-6-.2a6.57,6.57,0,0,1-2.89-.55c-1.9-1-2.29-3.6-2-5.74s1.07-4.3.62-6.41c4.11,2,8-2.55,12.12-.53Z"/><path class="cls-9" d="M208.74,206.73c-7,2.38-11.5,9.46-18.33,12.29-3.92,1.63-8.56,1.83-11.76,4.62-7.17,6.25-1.41,19.36-7.3,26.82-1.22,1.55-2.87,2.73-4.1,4.28-2.65,3.34-3,7.89-3.24,12.15a13.46,13.46,0,0,0,.11,3c.92,9.83,15.19,9.2,20.86,8.57,6.22-.69,4.15-4.14,4.15-4.14l-.23-.28a11.93,11.93,0,0,1,4.18-10.79,15,15,0,0,0,3.37-3c1.84-2.82.08-6.54.35-9.9,1.09-13.5,23.75-10.6,30.14-20.22C234.79,218.37,222,202.23,208.74,206.73Z"/><path class="cls-7" d="M276.63,246.75q-1.59-.8-3.21-1.56c10.79-15.66,16.63-34.88,16.63-55.26,0-49.14-34.66-89.12-77.26-89.12s-77.26,40-77.26,89.12c0,20.39,5.84,39.61,16.62,55.26-1.67.77-2.79,1.34-3.28,1.59A127.84,127.84,0,0,0,74.35,362.55v30.88a24.15,24.15,0,0,0,24.12,24.12H327.11a24.14,24.14,0,0,0,24.11-24.12V362.55A127.83,127.83,0,0,0,276.63,246.75Z"/><path class="cls-2" d="M273,254.28c-.41.51-.81,1-1.24,1.53-15.62,18.31-36.57,28.39-59,28.39s-43.37-10.08-59-28.39c-.43-.5-.83-1-1.25-1.53-41.1,18.78-69.84,60.33-69.84,108.27v30.88A15.76,15.76,0,0,0,98.47,409.2H327.11a15.77,15.77,0,0,0,15.76-15.77V362.55C342.87,314.61,314.12,273.06,273,254.28Z"/><path class="cls-2" d="M212.79,270.7c18.1,0,34.56-8.19,46.86-21.57,13.55-14.75,22-35.81,22-59.2,0-44.61-30.85-80.77-68.9-80.77s-68.91,36.16-68.91,80.77c0,23.39,8.49,44.45,22,59.2C178.22,262.51,194.68,270.7,212.79,270.7Z"/><polygon class="cls-11" points="87.57 307.21 96.11 302.34 103.86 316.45 95.72 330.93 82.71 324.91 87.57 307.21"/><polygon class="cls-11" points="338.01 300.58 329.47 295.71 321.71 309.82 329.86 324.31 342.87 318.28 338.01 300.58"/><polygon class="cls-12" points="534.68 643.74 535.8 652.47 519.46 663.45 509.6 655.84 517.21 645.98 533.55 635 534.68 643.74"/><polygon class="cls-2" points="535.23 640.8 522.63 529.42 537.79 404.73 534.38 378.2 466.64 375.63 464.2 418.8 475.57 529.59 518.35 646.5 535.23 640.8"/><polygon class="cls-13" points="460.28 252.39 426.21 261.67 386.8 331.49 405.47 348.78 431.74 317.67 460.28 252.39"/><polygon class="cls-2" points="416.94 388.11 416.76 500.51 439.38 645.21 455.67 645.04 464.62 511.23 485.57 377.3 416.94 388.11"/><polygon class="cls-2" points="455.64 651.91 438.12 660.89 429.23 652.18 437.94 643.28 455.56 643.11 455.64 651.91"/><path class="cls-14" d="M544.8,426.34c-.16-4.87-.43-8.94-.46-10.39-.35-13.07-1.52-26.1-3.15-39.08-1.47-11.62-3.32-40.48-5.31-52-1.64-9.54-7.37-33.35-11.5-42.2-10.29-22-7.11-24-52.29-30.57-19.8-2.86-24.48,9.48-40.67,23.67-1.6,1.4-1.51,9.73-1.88,11.94-.65,3.88-1.35,7.76-2.15,11.63-.63,3-1.33,6.06-2.11,9.06-8,31.11-17.32,61-19.21,93.27-.54,9.1-3.33,17.93-3.09,27.11a5,5,0,0,0,.77,3c2.74,3.44,17.83-1.82,22.42-2.27a335.15,335.15,0,0,1,35.28-1.78,221.7,221.7,0,0,1,35.93,3.34c7.91,1.32,16,3.25,23.06,6.94,6.75,3.53,11.62,8.71,18.47,12.37a3.63,3.63,0,0,0,2.1.6C544.94,450.41,545.13,436.59,544.8,426.34Z"/><path class="cls-10" d="M472,258.26c2.28,1.13,7.66,1.53,13.27-.66a3,3,0,0,0,1.88-2.75,77.2,77.2,0,0,0-.82-10.19c4.21-1.48,9.07-3.7,9.81-8.1a12.59,12.59,0,0,0-.25-4.19l-3-17.18a15.37,15.37,0,0,0-1.78-5.71c-1.89-3-5.56-4.28-9-4.89-8.86-1.54-18.52.39-25.4,6.19a13.84,13.84,0,0,0-4.29,5.66c-1.24,3.48-.31,7.31.63,10.89q1.29,4.93,2.59,9.89c1,3.79,2.44,8.1,6.09,9.52,1.94.76,4.23.53,6,1.65C470.84,250.36,470.43,255,472,258.26Z"/><path class="cls-9" d="M423.13,200.91c-1.51-14.22,4.7-29.19,16.39-26.21,7.08,1.8,13.42,4.79,20.56,2.12,6.7-2.5,11.54-1.48,18.54,1,7.58,2.7,17.75,3.34,24.61,7.16a20.07,20.07,0,0,1,6.93,6.84,30.47,30.47,0,0,1,.09,32.24,43.46,43.46,0,0,1-4.75,6c-3.57,3.88-7.85,8.67-12.77,10.11-.12-4.4,3.89-18.28.51-21.88-5.36-5.73-17.48-3.73-24.14-2.32-7.25,1.54-13.72,6.67-20.91,7.77C432.3,226.17,424.52,213.85,423.13,200.91Z"/><path class="cls-7" d="M554.66,170.64c-1.24-.62-2.49-1.23-3.75-1.82,12.61-18.31,19.44-40.79,19.44-64.61C570.35,46.75,529.82,0,480,0s-90.34,46.75-90.34,104.21c0,23.84,6.83,46.31,19.44,64.62-2,.89-3.26,1.55-3.83,1.85-52.95,24.3-87.14,77.41-87.14,135.37v36.11a28.23,28.23,0,0,0,28.2,28.2H613.68a28.23,28.23,0,0,0,28.2-28.2V306.05C641.88,248.06,607.65,194.93,554.66,170.64Z"/><path class="cls-15" d="M550.44,179.45c-.48.59-1,1.2-1.45,1.78-18.27,21.41-42.76,33.21-69,33.21s-50.71-11.8-69-33.21c-.5-.58-1-1.19-1.45-1.78-48.06,22-81.67,70.54-81.67,126.6v36.11a18.43,18.43,0,0,0,18.43,18.43H613.68a18.43,18.43,0,0,0,18.43-18.43V306.05C632.11,250,598.5,201.41,550.44,179.45Z"/><path class="cls-15" d="M480,198.65c21.17,0,40.42-9.58,54.8-25.23,15.85-17.24,25.77-41.86,25.77-69.21,0-52.16-36.07-94.45-80.57-94.45s-80.57,42.29-80.57,94.45c0,27.35,9.92,52,25.77,69.21C439.59,189.07,458.84,198.65,480,198.65Z"/><polygon class="cls-11" points="388.92 369.92 385.2 360.82 400.19 354.96 413.5 364.91 405.85 377.03 388.92 369.92"/><polygon class="cls-11" points="556.34 369.87 560.03 360.76 545.01 354.94 531.74 364.95 539.44 377.04 556.34 369.87"/></g></svg>